<?xml version="1.0" standalone="no"?>
<!DOCTYPE svg PUBLIC "-//W3C//DTD SVG 1.1//EN" "http://www.w3.org/Graphics/SVG/1.1/DTD/svg11.dtd" >
<svg>
<metadata>
Created by FontForge 20120731 at Thu Sep  3 19:58:18 2015
 By ,,,
Copyright (c) 2005 by Frantisek Storm, www.stormtype.com. All rights reserved.
</metadata>
<defs>
<font id="Teuton26Pro" horiz-adv-x="464" >
  <font-face 
    font-family="Teuton26Pro"
    font-weight="400"
    font-stretch="normal"
    units-per-em="1000"
    panose-1="2 0 5 6 0 0 0 2 0 4"
    ascent="800"
    descent="-200"
    x-height="500"
    cap-height="700"
    bbox="-56 -246 1256 849"
    underline-thickness="50"
    underline-position="-50"
    unicode-range="U+0020-FB02"
  />
<missing-glyph horiz-adv-x="500" 
 />
    <glyph glyph-name=".notdef" horiz-adv-x="500" 
 />
    <glyph glyph-name=".null" horiz-adv-x="0" 
 />
    <glyph glyph-name="nonmarkingreturn" horiz-adv-x="333" 
 />
    <glyph glyph-name="space" unicode=" " horiz-adv-x="263" 
 />
    <glyph glyph-name="exclam" unicode="!" horiz-adv-x="227" 
d="M44 188l-3 512h143v-512h-140zM44 0v142h140v-142h-140z" />
    <glyph glyph-name="quotedbl" unicode="&#x22;" horiz-adv-x="352" 
d="M58 508l-11 192h111l-11 -192h-89zM205 508l-11 192h112l-12 -192h-89z" />
    <glyph glyph-name="numbersign" unicode="#" horiz-adv-x="596" 
d="M325 167h-122l-31 -167h-133l31 167h-39v114h60l26 135h-44v114h65l31 170h134l-32 -170h122l32 170h133l-31 -170h41v-114h-63l-25 -135h45v-114h-67l-31 -167h-133zM225 281h122l25 135h-122z" />
    <glyph glyph-name="dollar" unicode="$" horiz-adv-x="426" 
d="M277 104v-104h-119v104h-112v132q16 -11 49 -11h130q6 0 10.5 5.5t4.5 12.5v19q0 13 -12 18l-107 50q-42 15 -58.5 43t-16.5 86v34q0 111 92 111h20v96h119v-96h103v-135q-15 11 -49 11h-129q-16 0 -16 -17v-8q0 -12 12 -18l114 -52q38 -14 53 -39.5t15 -74.5v-73
q0 -46 -22 -70t-62 -24h-19z" />
    <glyph glyph-name="percent" unicode="%" horiz-adv-x="707" 
d="M450 700h138l-328 -700h-138zM185 469v105q0 24 -18 24h-12q-19 0 -19 -24v-105q0 -23 19 -23h12q18 0 18 23zM35 454v138q0 108 108 108h39q54 0 79 -30.5t25 -77.5v-137q0 -113 -111 -113h-41q-99 0 -99 112zM573 127v105q0 24 -18 24h-12q-19 0 -19 -24v-105
q0 -23 19 -23h12q18 0 18 23zM423 112v138q0 108 108 108h39q54 0 79 -30.5t25 -77.5v-137q0 -113 -111 -113h-41q-99 0 -99 112z" />
    <glyph glyph-name="ampersand" unicode="&#x26;" horiz-adv-x="727" 
d="M427 334h-202q-20 0 -20 -25v-159q0 -25 22 -25h119q16 0 29 5v-130h-191q-127 0 -127 132v159q0 54 33.5 83t93.5 29q-65 2 -96 28.5t-31 94.5v42q0 132 127 132h247v-134q-14 5 -30 5h-176q-20 0 -20 -25v-63q0 -25 20 -25h202l141 111v-111h112v-124h-112v-182
q0 -27 23 -27h39q34 0 50 11v-136h-127q-126 0 -126 129v205z" />
    <glyph glyph-name="quotesingle" unicode="'" horiz-adv-x="207" 
d="M58 524l-12 176h113l-12 -176h-89z" />
    <glyph glyph-name="parenleft" unicode="(" horiz-adv-x="305" 
d="M280 -73v-128q-118 0 -170.5 41t-52.5 138v528q0 110 51 152t172 42v-130q-50 0 -62.5 -9t-12.5 -39v-544q0 -31 13.5 -41t61.5 -10z" />
    <glyph glyph-name="parenright" unicode=")" horiz-adv-x="305" 
d="M26 -73q48 0 61.5 10t13.5 41v544q0 30 -12.5 39t-62.5 9v130q121 0 172 -42t51 -152v-528q0 -97 -52.5 -138t-170.5 -41v128z" />
    <glyph glyph-name="asterisk" unicode="*" horiz-adv-x="455" 
d="M269 597l94 40l31 -94l-100 -23l67 -78l-80 -59l-53 89l-53 -89l-80 59l67 78l-101 23l31 94l95 -40l-9 103h99z" />
    <glyph glyph-name="plus" unicode="+" horiz-adv-x="483" 
d="M300 228v-122h-115v122h-123v115h123v123h115v-123h122v-115h-122z" />
    <glyph glyph-name="comma" unicode="," horiz-adv-x="239" 
d="M60 144h133v-101l-48 -199h-117l32 200v100z" />
    <glyph glyph-name="hyphen" unicode="-" horiz-adv-x="311" 
d="M254 227h-196v116h196v-116z" />
    <glyph glyph-name="hyphen" unicode="&#xad;" horiz-adv-x="311" 
d="M254 227h-196v116h196v-116z" />
    <glyph glyph-name="period" unicode="." horiz-adv-x="225" 
d="M42 0v144h142v-144h-142z" />
    <glyph glyph-name="slash" unicode="/" horiz-adv-x="490" 
d="M330 700h157l-325 -900h-157z" />
    <glyph glyph-name="zero" unicode="0" horiz-adv-x="527" 
d="M320 161v378q0 26 -22 26h-68q-22 0 -22 -26v-378q0 -26 21 -26h68q23 0 23 26zM61 132v436q0 132 126 132h154q126 0 126 -132v-436q0 -132 -126 -132h-154q-126 0 -126 132z" />
    <glyph glyph-name="one" unicode="1" horiz-adv-x="527" 
d="M115 135h97v366l-125 -77v151l267 156v-596h97v-135h-336v135z" />
    <glyph glyph-name="two" unicode="2" horiz-adv-x="527" 
d="M70 0v196q0 47 14 76t47 57l178 151q12 9 12 27v32q0 26 -22 26h-169q-34 0 -50 -11v146h262q126 0 126 -132v-54q0 -51 -13.5 -81t-58.5 -67l-167 -140q-12 -11 -12 -27v-64h200q33 0 50 11v-146h-397z" />
    <glyph glyph-name="three" unicode="3" horiz-adv-x="527" 
d="M137 305q-16 0 -31 -3v129q15 -3 31 -3h161q22 0 22 28v83q0 26 -22 26h-212q-16 0 -30 -5v140h285q126 0 126 -132v-71q0 -128 -125 -132q125 -5 125 -134v-99q0 -132 -126 -132h-285v140q12 -5 29 -5h212q23 0 23 27v114q0 29 -22 29h-161z" />
    <glyph glyph-name="four" unicode="4" horiz-adv-x="527" 
d="M417 151v-151h-140v151h-238v99l222 450h156v-422h56q14 0 29 3v-133q-15 3 -29 3h-56zM277 278v225l-112 -225h112z" />
    <glyph glyph-name="five" unicode="5" horiz-adv-x="527" 
d="M344 0h-283v146q15 -11 49 -11h188q22 0 22 26v117q0 27 -22 27h-237v395h395v-140q-14 5 -30 5h-218v-137h133q126 0 126 -133v-163q0 -132 -123 -132z" />
    <glyph glyph-name="six" unicode="6" horiz-adv-x="527" 
d="M208 428h133q126 0 126 -133v-163q0 -132 -126 -132h-154q-126 0 -126 132v436q0 132 126 132h278v-140q-14 5 -30 5h-205q-22 0 -22 -26v-111zM208 305v-144q0 -26 21 -26h69q22 0 22 26v117q0 27 -22 27h-90z" />
    <glyph glyph-name="seven" unicode="7" horiz-adv-x="527" 
d="M487 591l-227 -591h-160l235 573h-239q-29 0 -43 -5v132h434v-109z" />
    <glyph glyph-name="eight" unicode="8" horiz-adv-x="527" 
d="M187 0q-126 0 -126 132v99q0 64 29 97.5t96 36.5q-67 2 -96 35.5t-29 96.5v71q0 132 126 132h154q126 0 126 -132v-71q0 -128 -125 -132q125 -5 125 -134v-99q0 -132 -126 -132h-154zM227 573q-21 0 -21 -26v-91q0 -15 5 -21.5t17 -6.5h72q12 0 17 6.5t5 21.5v91
q0 26 -21 26h-74zM229 128h70q23 0 23 26v122q0 29 -22 29h-72q-22 0 -22 -29v-122q0 -26 23 -26z" />
    <glyph glyph-name="nine" unicode="9" horiz-adv-x="527" 
d="M320 279h-133q-126 0 -126 132v157q0 132 126 132h154q126 0 126 -132v-436q0 -132 -126 -132h-279v140q14 -5 30 -5h205q23 0 23 26v118zM320 402v137q0 26 -22 26h-68q-22 0 -22 -26v-111q0 -26 21 -26h91z" />
    <glyph glyph-name="colon" unicode=":" horiz-adv-x="227" 
d="M43 0v144h142v-144h-142zM43 356v144h142v-144h-142z" />
    <glyph glyph-name="semicolon" unicode=";" horiz-adv-x="239" 
d="M56 356v144h142v-144h-142zM60 144h133v-101l-48 -199h-117l32 200v100z" />
    <glyph glyph-name="less" unicode="&#x3c;" horiz-adv-x="483" 
d="M223 336l199 -107v-126l-360 181v97l360 179v-117z" />
    <glyph glyph-name="equal" unicode="=" horiz-adv-x="483" 
d="M422 357h-360v115h360v-115zM422 126h-360v115h360v-115z" />
    <glyph glyph-name="greater" unicode="&#x3e;" horiz-adv-x="483" 
d="M260 329l-198 106v126l360 -181v-97l-360 -179v117z" />
    <glyph glyph-name="question" unicode="?" horiz-adv-x="425" 
d="M126 188l-5 132q-3 68 50 125l57 59q11 10 11 26v23q0 20 -19 20h-127q-35 0 -50 -11v138h249q95 0 95 -113v-37q0 -45 -10.5 -71.5t-40.5 -60.5l-57 -62q-10 -11 -10 -29l-5 -139h-138zM124 0v144h142v-144h-142z" />
    <glyph glyph-name="at" unicode="@" horiz-adv-x="811" 
d="M752 23q0 -63 -32 -98t-96 -35h-428q-69 0 -97.5 35t-28.5 98v432q0 131 130 131h251q126 0 126 -138v-362h-245q-42 0 -64 25t-22 66v130q0 41 22.5 66.5t63.5 25.5h119v42q0 26 -21 26h-217q-22 0 -22 -26v-397q0 -26 22 -26h399q22 0 22 26v349h118v-370zM387 304
q-13 0 -18 -6t-5 -21v-50q0 -28 23 -28h64v105h-64z" />
    <glyph glyph-name="A" unicode="A" horiz-adv-x="500" 
d="M190 234h111l-56 283zM316 130h-140l-25 -130h-160l169 700h182l167 -700h-167z" />
    <glyph glyph-name="B" unicode="B" horiz-adv-x="543" 
d="M376 365q67 -3 96 -36.5t29 -97.5v-99q0 -132 -126 -132h-319v700h319q126 0 126 -132v-71q0 -63 -29 -97t-96 -35zM354 547q0 26 -21 26h-130v-152h129q22 0 22 28v98zM332 311h-129v-183h128q23 0 23 26v129q0 28 -22 28z" />
    <glyph glyph-name="C" unicode="C" horiz-adv-x="458" 
d="M225 135h177q34 0 49 11v-146h-268q-127 0 -127 132v436q0 132 127 132h268v-146q-15 11 -49 11h-176q-22 0 -22 -26v-378q0 -26 21 -26z" />
    <glyph glyph-name="D" unicode="D" horiz-adv-x="558" 
d="M204 565v-430h128q23 0 23 26v378q0 26 -22 26h-129zM56 0v700h319q127 0 127 -132v-436q0 -132 -127 -132h-319z" />
    <glyph glyph-name="E" unicode="E" horiz-adv-x="476" 
d="M412 573h-208v-145h150q14 0 29 3v-129q-15 3 -29 3h-150v-178h222q16 0 29 5v-132h-399v700h386v-132q-14 5 -30 5z" />
    <glyph glyph-name="F" unicode="F" horiz-adv-x="444" 
d="M204 0h-148v700h386v-132q-14 5 -30 5h-208v-145h150q14 0 29 3v-129q-15 3 -29 3h-150v-305z" />
    <glyph glyph-name="G" unicode="G" horiz-adv-x="554" 
d="M502 428v-296q0 -132 -127 -132h-192q-127 0 -127 132v436q0 132 127 132h297v-146q-16 11 -50 11h-204q-22 0 -22 -26v-378q0 -26 21 -26h107q23 0 23 26v144h-52q-14 0 -29 -3v129q15 -3 29 -3h199z" />
    <glyph glyph-name="H" unicode="H" horiz-adv-x="558" 
d="M355 305h-151v-305h-148v700h148v-272h151v272h147v-700h-147v305z" />
    <glyph glyph-name="I" unicode="I" horiz-adv-x="260" 
d="M56 700h148v-700h-148v700z" />
    <glyph glyph-name="J" unicode="J" horiz-adv-x="336" 
d="M12 0v140q13 -5 29 -5h69q22 0 22 26v539h148v-568q0 -132 -127 -132h-141z" />
    <glyph glyph-name="K" unicode="K" horiz-adv-x="558" 
d="M257 305h-53v-305h-148v700h148v-272h52q31 0 45 42l75 230h164l-101 -274q-15 -44 -58 -58q43 -12 61 -64l111 -304h-170l-83 263q-8 23 -17 32.5t-26 9.5z" />
    <glyph glyph-name="L" unicode="L" horiz-adv-x="445" 
d="M204 700v-573h210q16 0 29 5v-132h-387v700h148z" />
    <glyph glyph-name="M" unicode="M" horiz-adv-x="695" 
d="M639 700v-700h-138v527l-76 -380h-153l-76 380v-527h-140v700h224l73 -394l73 394h213z" />
    <glyph glyph-name="N" unicode="N" horiz-adv-x="557" 
d="M351 0l-156 420v-420h-138v700h149l156 -421v421h139v-700h-150z" />
    <glyph glyph-name="O" unicode="O" horiz-adv-x="558" 
d="M355 161v378q0 26 -22 26h-107q-22 0 -22 -26v-378q0 -26 21 -26h107q23 0 23 26zM56 132v436q0 132 127 132h192q127 0 127 -132v-436q0 -132 -127 -132h-192q-127 0 -127 132z" />
    <glyph glyph-name="P" unicode="P" horiz-adv-x="528" 
d="M204 253v-253h-148v700h319q127 0 127 -132v-183q0 -132 -123 -132h-175zM204 565v-177h129q22 0 22 26v125q0 26 -22 26h-129z" />
    <glyph glyph-name="Q" unicode="Q" horiz-adv-x="558" 
d="M249 135l-16 54h72l20 -54h11q19 0 19 26v378q0 26 -22 26h-107q-22 0 -22 -26v-378q0 -26 21 -26h24zM379 0l77 -200h-119l-54 200h-100q-127 0 -127 132v436q0 132 127 132h192q127 0 127 -132v-436q0 -56 -30.5 -94t-82.5 -38h-10z" />
    <glyph glyph-name="R" unicode="R" horiz-adv-x="562" 
d="M409 312l125 -312h-160l-104 298h-66v-298h-148v700h319q127 0 127 -132v-128q0 -73 -29.5 -100.5t-60.5 -27.5h-3zM204 565v-137h129q22 0 22 26v85q0 26 -22 26h-129z" />
    <glyph glyph-name="S" unicode="S" horiz-adv-x="479" 
d="M281 223l-172 139q-43 35 -57.5 66.5t-14.5 81.5v58q0 132 127 132h263v-146q-16 11 -49 11h-174q-19 0 -19 -26v-31q0 -17 11 -27l172 -139q44 -35 58 -66.5t14 -82.5v-61q0 -132 -127 -132h-276v146q17 -11 50 -11h183q22 0 22 26v35q0 17 -11 27z" />
    <glyph glyph-name="T" unicode="T" 
d="M305 565v-565h-147v565h-106q-16 0 -30 -5v140h420v-140q-14 5 -30 5h-107z" />
    <glyph glyph-name="U" unicode="U" horiz-adv-x="558" 
d="M502 700v-568q0 -132 -127 -132h-192q-127 0 -127 132v568h148v-539q0 -26 21 -26h107q23 0 23 26v539h147z" />
    <glyph glyph-name="V" unicode="V" horiz-adv-x="500" 
d="M147 700l107 -517l108 517h147l-169 -700h-182l-167 700h156z" />
    <glyph glyph-name="W" unicode="W" horiz-adv-x="756" 
d="M378 426l-68 -426h-171l-142 700h155l81 -488l79 488h139l79 -488l82 488h147l-144 -700h-170z" />
    <glyph glyph-name="X" unicode="X" horiz-adv-x="521" 
d="M355 358l171 -358h-176l-94 243l-93 -243h-168l173 354l-167 346h177l86 -243l86 243h168z" />
    <glyph glyph-name="Y" unicode="Y" horiz-adv-x="516" 
d="M336 287v-287h-148v287l-201 413h177l99 -254l97 254h169z" />
    <glyph glyph-name="Z" unicode="Z" horiz-adv-x="482" 
d="M34 0v50l225 515h-185q-19 0 -32 -5v140h415v-44l-230 -529h197q20 0 32 5v-132h-422z" />
    <glyph glyph-name="bracketleft" unicode="[" horiz-adv-x="452" 
d="M221 -73h66q17 0 29 5v-132h-243v900h243v-132q-14 5 -30 5h-65v-646z" />
    <glyph glyph-name="backslash" unicode="\" 
d="M148 700l317 -700h-149l-316 700h148z" />
    <glyph glyph-name="bracketright" unicode="]" horiz-adv-x="444" 
d="M163 -73v646h-65q-16 0 -30 -5v132h243v-900h-243v132q12 -5 29 -5h66z" />
    <glyph glyph-name="asciicircum" unicode="^" horiz-adv-x="401" 
d="M197 569l-94 -157h-93l149 288h82l151 -288h-100z" />
    <glyph glyph-name="underscore" unicode="_" horiz-adv-x="729" 
d="M662 -168h-594v116h594v-116z" />
    <glyph glyph-name="grave" unicode="`" horiz-adv-x="403" 
d="M212 700l113 -158h-108l-137 158h132z" />
    <glyph glyph-name="a" unicode="a" horiz-adv-x="463" 
d="M173 317h102v37q0 26 -22 26h-136q-33 0 -50 -11v131h221q128 0 128 -132v-368h-243q-128 0 -128 133v53q0 131 128 131zM210 216q-24 0 -24 -27v-41q0 -28 23 -28h66v96h-65z" />
    <glyph glyph-name="b" unicode="b" 
d="M187 377v-257h69q21 0 21 27v204q0 26 -21 26h-69zM47 0v700h140v-200h103q127 0 127 -132v-236q0 -132 -127 -132h-243z" />
    <glyph glyph-name="c" unicode="c" horiz-adv-x="362" 
d="M297 376h-82q-28 0 -28 -30v-193q0 -32 28 -32h82q33 0 50 11v-132h-173q-127 0 -127 132v236q0 132 127 132h173v-135q-16 11 -50 11z" />
    <glyph glyph-name="d" unicode="d" 
d="M277 377h-68q-22 0 -22 -26v-204q0 -27 22 -27h68v257zM417 0h-243q-127 0 -127 134v234q0 132 127 132h103v200h140v-700z" />
    <glyph glyph-name="e" unicode="e" horiz-adv-x="461" 
d="M187 215v-71q0 -24 21 -24h156q34 0 49 11v-131h-239q-127 0 -127 132v236q0 132 128 132h113q128 0 128 -132v-153h-229zM187 317h98v38q0 27 -23 27h-54q-21 0 -21 -27v-38z" />
    <glyph glyph-name="f" unicode="f" horiz-adv-x="308" 
d="M215 577q-28 0 -28 -31v-46h120v-123h-120v-377h-140v568q0 132 128 132h132v-134q-15 11 -49 11h-43z" />
    <glyph glyph-name="g" unicode="g" 
d="M277 120v257h-66q-24 0 -24 -28v-201q0 -28 23 -28h67zM277 -53v53h-103q-127 0 -127 133v235q0 132 127 132h243v-568q0 -132 -127 -132h-239v131q17 -11 50 -11h149q15 0 21 6t6 21z" />
    <glyph glyph-name="h" unicode="h" 
d="M417 367v-367h-140v351q0 26 -21 26h-69v-377h-140v700h140v-200h102q128 0 128 -133z" />
    <glyph glyph-name="i" unicode="i" horiz-adv-x="234" 
d="M47 500h140v-500h-140v500zM47 688h140v-144h-140v144z" />
    <glyph glyph-name="j" unicode="j" horiz-adv-x="234" 
d="M47 688h140v-144h-140v144zM187 500v-500q0 -98 -32 -200h-146q38 100 38 200v500h140z" />
    <glyph glyph-name="k" unicode="k" horiz-adv-x="468" 
d="M220 331q21 0 28 21l48 148h147l-64 -177q-13 -34 -37 -44q23 -12 35 -46l81 -233h-161l-48 190q-7 23 -28 23h-34v-213h-140v700h140v-369h33z" />
    <glyph glyph-name="l" unicode="l" horiz-adv-x="234" 
d="M47 700h140v-700h-140v700z" />
    <glyph glyph-name="m" unicode="m" horiz-adv-x="678" 
d="M631 368v-368h-141v351q0 26 -21 26h-36q-22 0 -22 -26v-351h-140v351q0 26 -22 26h-62v-377h-140v500h168q69 0 98 -22t33 -69q5 43 31.5 67t71.5 24h54q64 0 96 -34.5t32 -97.5z" />
    <glyph glyph-name="n" unicode="n" 
d="M417 367v-367h-140v351q0 26 -21 26h-69v-377h-140v500h243q127 0 127 -133z" />
    <glyph glyph-name="o" unicode="o" 
d="M277 147v204q0 26 -21 26h-46q-23 0 -23 -26v-204q0 -27 22 -27h46q22 0 22 27zM47 132v236q0 132 127 132h116q127 0 127 -132v-236q0 -132 -127 -132h-116q-127 0 -127 132z" />
    <glyph glyph-name="p" unicode="p" 
d="M187 120h69q21 0 21 27v204q0 26 -21 26h-69v-257zM47 500h243q127 0 127 -133v-235q0 -132 -126 -132h-104v-200h-140v700z" />
    <glyph glyph-name="q" unicode="q" 
d="M277 120v257h-68q-22 0 -22 -26v-204q0 -27 22 -27h68zM417 500v-700h-140v200h-103q-127 0 -127 132v236q0 132 128 132h242z" />
    <glyph glyph-name="r" unicode="r" horiz-adv-x="319" 
d="M273 367h-36q-50 0 -50 -53v-314h-140v500h123v-67q12 67 83 67h63v-144q-15 11 -43 11z" />
    <glyph glyph-name="s" unicode="s" horiz-adv-x="412" 
d="M167 500h190v-134q-17 11 -50 11h-115q-19 0 -19 -20v-6q0 -15 17 -23l95 -38q50 -20 69 -47t19 -78v-32q0 -133 -127 -133h-207v132q17 -11 50 -11h132q18 0 18 21v9q0 17 -16 25l-88 36q-55 23 -75.5 52t-20.5 88v15q0 133 128 133z" />
    <glyph glyph-name="t" unicode="t" horiz-adv-x="325" 
d="M187 155q0 -31 28 -31h41q34 0 50 11v-135h-132q-127 0 -127 132v452l140 69v-153h119v-123h-119v-222z" />
    <glyph glyph-name="u" unicode="u" 
d="M47 132v368h140v-353q0 -27 22 -27h68v380h140v-500h-244q-126 0 -126 132z" />
    <glyph glyph-name="v" unicode="v" horiz-adv-x="430" 
d="M299 0h-168l-133 500h159l63 -348l61 348h153z" />
    <glyph glyph-name="w" unicode="w" horiz-adv-x="683" 
d="M420 500l53 -347l58 347h153l-131 -500h-165l-46 303l-47 -303h-165l-130 500h159l59 -347l53 347h149z" />
    <glyph glyph-name="x" unicode="x" horiz-adv-x="443" 
d="M303 253l137 -253h-163l-58 137l-59 -137h-156l136 247l-136 253h163l57 -139l60 139h156z" />
    <glyph glyph-name="y" unicode="y" horiz-adv-x="430" 
d="M239 -200h-160l68 200h-16l-133 500h159l61 -357l63 357h153z" />
    <glyph glyph-name="z" unicode="z" horiz-adv-x="420" 
d="M24 0v51l183 328h-143q-20 0 -32 -5v126h364v-43l-184 -336h144q20 0 32 5v-126h-364z" />
    <glyph glyph-name="braceleft" unicode="{" horiz-adv-x="307" 
d="M206 514v-181q0 -22 -14 -40.5t-34 -25.5q19 -7 33.5 -25.5t14.5 -39.5v-213q0 -40 13.5 -53.5t62.5 -13.5v-123q-118 0 -170.5 41t-52.5 138v187q0 26 -15.5 41t-37.5 15v89q22 0 37.5 15t15.5 41v140q0 110 50.5 152t172.5 42v-126q-49 0 -62.5 -12t-13.5 -48z" />
    <glyph glyph-name="bar" unicode="|" horiz-adv-x="266" 
d="M63 -200v900h141v-900h-141z" />
    <glyph glyph-name="braceright" unicode="}" horiz-adv-x="307" 
d="M100 514q0 36 -13 48t-62 12v126q121 0 172 -42t51 -152v-140q0 -26 15.5 -41t36.5 -15v-89q-21 0 -36.5 -15t-15.5 -41v-187q0 -97 -52.5 -138t-170.5 -41v123q49 0 62 13.5t13 53.5v213q0 21 14.5 39.5t33.5 25.5q-19 7 -33.5 26t-14.5 40v181z" />
    <glyph glyph-name="asciitilde" unicode="~" horiz-adv-x="485" 
d="M129 403h-96v33q0 75 35 121.5t87 46.5q39 0 72.5 -18.5t57 -37t39.5 -18.5q20 0 27 13t7 56h94v-56q0 -74 -33 -109t-89 -35q-36 0 -68.5 18.5t-57.5 36.5t-43 18q-19 0 -25.5 -13t-6.5 -56z" />
    <glyph glyph-name="nbspace" unicode="&#xa0;" horiz-adv-x="263" 
 />
    <glyph glyph-name="exclamdown" unicode="&#xa1;" horiz-adv-x="227" 
d="M185 312l4 -512h-147l3 512h140zM186 500v-144h-142v144h142z" />
    <glyph glyph-name="cent" unicode="&#xa2;" horiz-adv-x="386" 
d="M277 104v-104h-119v104h-17q-38 0 -68.5 33.5t-30.5 97.5v236q0 65 32 99t66 34h18v96h119v-96h65v-135q-16 11 -50 11h-83q-27 0 -27 -31v-193q0 -31 27 -31h83q34 0 50 11v-132h-65z" />
    <glyph glyph-name="sterling" unicode="&#xa3;" horiz-adv-x="455" 
d="M56 287h-36v115h36v164q0 71 32 102.5t95 31.5h180v-146q-17 11 -50 11h-82q-27 0 -27 -30v-133h157v-115h-157v-157h198q34 0 49 11v-141h-395v287z" />
    <glyph glyph-name="currency" unicode="&#xa4;" horiz-adv-x="576" 
d="M331 268v165q0 26 -22 26h-46q-22 0 -22 -26v-165q0 -26 22 -26h46q22 0 22 26zM574 0h-138l-83 120q-7 -4 -23 -4h-81q-18 0 -25 3l-81 -119h-138l108 157q-12 21 -12 50v282q0 33 12 55l-108 156h138l80 -117q9 4 26 4h81q14 0 26 -4l80 117h138l-113 -162
q10 -20 10 -49v-280q0 -27 -10 -47z" />
    <glyph glyph-name="yen" unicode="&#xa5;" horiz-adv-x="516" 
d="M188 151h-57v103h57v33l-207 413h181l101 -254l99 254h174l-200 -413v-33h57v-103h-57v-151h-148v151z" />
    <glyph glyph-name="brokenbar" unicode="&#xa6;" horiz-adv-x="266" 
d="M63 -200v364h139v-364h-139zM63 335v365h139v-365h-139z" />
    <glyph glyph-name="section" unicode="&#xa7;" horiz-adv-x="482" 
d="M173 700h236v-134q-16 11 -50 11h-167q-19 0 -19 -20v-9q0 -13 17 -27l194 -171q33 -30 46 -56t13 -76v-286q0 -66 -29.5 -99t-94.5 -33h-249v132q15 -11 49 -11h172q19 0 19 21v20q0 20 -16 33l-187 168q-39 35 -53.5 63t-14.5 85v246q0 143 134 143zM310 128v99
q0 33 -24 52l-83 72q-22 19 -30 40v-101q0 -27 21 -45l85 -73q21 -21 31 -44z" />
    <glyph glyph-name="dieresis" unicode="&#xa8;" horiz-adv-x="443" 
d="M76 684h106v-129h-106v129zM263 684h106v-129h-106v129z" />
    <glyph glyph-name="copyright" unicode="&#xa9;" horiz-adv-x="698" 
d="M531 123v454q0 17 -5.5 23.5t-19.5 6.5h-314q-14 0 -19.5 -6.5t-5.5 -23.5v-454q0 -30 25 -30h314q14 0 19.5 6.5t5.5 23.5zM61 132v436q0 132 126 132h323q128 0 128 -132v-436q0 -132 -128 -132h-323q-126 0 -126 132zM335 230h119q21 0 31 7v-96h-215q-28 0 -42 16.5
t-14 43.5v298q0 64 61 64h210v-99q-9 8 -31 8h-119q-20 0 -20 -22v-198q0 -22 20 -22z" />
    <glyph glyph-name="ordfeminine" unicode="&#xaa;" horiz-adv-x="463" 
d="M416 0h-371v115h371v-115zM173 517h102v37q0 26 -22 26h-136q-33 0 -50 -11v131h221q128 0 128 -132v-368h-243q-128 0 -128 133v53q0 131 128 131zM210 416q-24 0 -24 -27v-41q0 -28 23 -28h66v96h-65z" />
    <glyph glyph-name="guillemotleft" unicode="&#xab;" horiz-adv-x="670" 
d="M171 298l157 -129v-139l-288 207v114l288 205v-128zM474 298l157 -129v-139l-287 207v114l287 205v-128z" />
    <glyph glyph-name="logicalnot" unicode="&#xac;" horiz-adv-x="488" 
d="M422 0h-141v228h-219v115h360v-343z" />
    <glyph glyph-name="registered" unicode="&#xae;" horiz-adv-x="698" 
d="M531 123v454q0 17 -5.5 23.5t-19.5 6.5h-314q-14 0 -19.5 -6.5t-5.5 -23.5v-454q0 -30 25 -30h314q14 0 19.5 6.5t5.5 23.5zM61 132v436q0 132 126 132h323q128 0 128 -132v-436q0 -132 -128 -132h-323q-126 0 -126 132zM429 317l76 -176h-102l-64 176h-28v-176h-97v422
h213q26 0 41.5 -16.5t15.5 -43.5v-123q0 -33 -12 -48t-39 -15h-4zM311 475v-77h60q16 0 16 18v40q0 19 -16 19h-60z" />
    <glyph glyph-name="macron" unicode="&#xaf;" horiz-adv-x="399" 
d="M320 569h-240v95h240v-95z" />
    <glyph glyph-name="macron" unicode="&#x2c9;" horiz-adv-x="399" 
d="M320 569h-240v95h240v-95z" />
    <glyph glyph-name="degree" unicode="&#xb0;" horiz-adv-x="351" 
d="M213 472v100q0 23 -19 23h-36q-20 0 -20 -23v-100q0 -24 20 -24h36q19 0 19 24zM35 454v138q0 108 108 108h69q54 0 79.5 -30.5t25.5 -77.5v-137q0 -113 -112 -113h-70q-100 0 -100 112z" />
    <glyph glyph-name="plusminus" unicode="&#xb1;" horiz-adv-x="483" 
d="M300 298v-122h-115v122h-123v115h123v123h115v-123h122v-115h-122zM422 0h-360v116h360v-116z" />
    <glyph glyph-name="twosuperior" unicode="&#xb2;" horiz-adv-x="429" 
d="M47 253v113q0 63 16.5 88.5t76.5 45.5l85 30q26 8 26 24v17q0 15 -17 15h-127q-34 0 -48 -10v124h206q66 0 91.5 -26t25.5 -89v-28q0 -61 -16.5 -82.5t-75.5 -42.5l-105 -36q-15 -5 -15 -22v-9h155q33 0 49 11v-123h-327z" />
    <glyph glyph-name="threesuperior" unicode="&#xb3;" horiz-adv-x="429" 
d="M118 433q-9 0 -27 -2v102q9 -2 27 -2h116q16 1 16 22v19q0 18 -19 18h-158q-14 0 -27 -4v114h221q61 0 84.5 -24t23.5 -72v-16q0 -52 -23.5 -76t-82.5 -25q63 -3 84.5 -24.5t21.5 -77.5v-15q0 -59 -23.5 -87.5t-84.5 -28.5h-221v111q12 -4 26 -4h158q20 0 20 21v31
q-1 20 -19 20h-113z" />
    <glyph glyph-name="acute" unicode="&#xb4;" horiz-adv-x="403" 
d="M193 700h132l-138 -158h-107z" />
    <glyph glyph-name="mu" unicode="&#xb5;" 
d="M187 6v-206h-140v700h140v-353q0 -27 22 -27h68v380h140v-500h-193q-20 0 -37 6z" />
    <glyph glyph-name="mu" unicode="&#x3bc;" 
d="M187 6v-206h-140v700h140v-353q0 -27 22 -27h68v380h140v-500h-193q-20 0 -37 6z" />
    <glyph glyph-name="paragraph" unicode="&#xb6;" horiz-adv-x="528" 
d="M355 261h-212q-41 0 -64 25.5t-23 74.5v246q0 43 23.5 68t63.5 25h359v-700h-147v261z" />
    <glyph glyph-name="periodcentered" unicode="&#xb7;" horiz-adv-x="242" 
d="M41 212v145h144v-145h-144z" />
    <glyph glyph-name="periodcentered" unicode="&#x2219;" horiz-adv-x="242" 
d="M41 212v145h144v-145h-144z" />
    <glyph glyph-name="cedilla" unicode="&#xb8;" horiz-adv-x="387" 
d="M217 -30h17q75 0 75 -72v-21q0 -77 -75 -77h-155l24 69h75q26 0 26 20v4q0 12 -5.5 16t-18.5 4h-62l32 94h79z" />
    <glyph glyph-name="onesuperior" unicode="&#xb9;" horiz-adv-x="429" 
d="M69 366h88v181l-91 -36v117l223 82v-344h81v-112h-301v112z" />
    <glyph glyph-name="ordmasculine" unicode="&#xba;" 
d="M417 0h-370v115h370v-115zM277 347v204q0 26 -21 26h-46q-23 0 -23 -26v-204q0 -27 22 -27h46q22 0 22 27zM47 332v236q0 132 127 132h116q127 0 127 -132v-236q0 -132 -127 -132h-116q-127 0 -127 132z" />
    <glyph glyph-name="guillemotright" unicode="&#xbb;" horiz-adv-x="670" 
d="M500 289l-156 129v139l287 -207v-114l-287 -205v128zM197 289l-157 129v139l288 -207v-114l-288 -205v128z" />
    <glyph glyph-name="onequarter" unicode="&#xbc;" horiz-adv-x="991" 
d="M615 700h149l-412 -700h-148zM36 366h88v181l-91 -36v117l223 82v-344h81v-112h-301v112zM880 79v-79h-121v79h-216v88l200 278h137v-257h48q14 0 29 3v-115q-15 3 -29 3h-48zM759 188v119l-82 -119h82z" />
    <glyph glyph-name="onehalf" unicode="&#xbd;" horiz-adv-x="991" 
d="M614 700h149l-412 -700h-148zM36 366h88v181l-91 -36v117l223 82v-344h81v-112h-301v112zM621 0v113q0 63 16.5 88.5t76.5 45.5l85 30q26 8 26 24v17q0 15 -17 15h-127q-34 0 -48 -10v124h206q66 0 91.5 -26t25.5 -89v-28q0 -61 -16.5 -82.5t-75.5 -42.5l-105 -36
q-15 -5 -15 -22v-9h155q33 0 49 11v-123h-327z" />
    <glyph glyph-name="threequarters" unicode="&#xbe;" horiz-adv-x="991" 
d="M619 700h149l-412 -700h-148zM880 79v-79h-121v79h-216v88l200 278h137v-257h48l29 3v-115l-29 3h-48zM759 188v119l-82 -119h82zM115 433q-9 0 -27 -2v102q9 -2 27 -2h116q16 1 16 22v19q0 18 -19 18h-158q-14 0 -27 -4v114h221q61 0 84.5 -24t23.5 -72v-16
q0 -52 -23.5 -76t-82.5 -25q63 -3 84.5 -24.5t21.5 -77.5v-15q0 -59 -23.5 -87.5t-84.5 -28.5h-221v111q12 -4 26 -4h158q20 0 20 21v31q-1 20 -19 20h-113z" />
    <glyph glyph-name="questiondown" unicode="&#xbf;" horiz-adv-x="425" 
d="M304 312l5 -132q4 -67 -50 -125l-57 -59q-11 -10 -11 -26v-23q0 -20 19 -20h127q35 0 50 11v-138h-249q-95 0 -95 113v37q0 45 10.5 71.5t41.5 60.5l56 62q11 12 11 29l5 139h137zM307 500v-144h-142v144h142z" />
    <glyph glyph-name="Agrave" unicode="&#xc0;" horiz-adv-x="500" 
d="M190 234h111l-56 283zM316 130h-140l-25 -130h-160l169 700h182l167 -700h-167zM222 834l113 -110h-108l-137 110h132z" />
    <glyph glyph-name="Aacute" unicode="&#xc1;" horiz-adv-x="500" 
d="M190 234h111l-56 283zM316 130h-140l-25 -130h-160l169 700h182l167 -700h-167zM284 834h122l-137 -110h-99z" />
    <glyph glyph-name="Acircumflex" unicode="&#xc2;" horiz-adv-x="500" 
d="M190 234h111l-56 283zM316 130h-140l-25 -130h-160l169 700h182l167 -700h-167zM245 772l-49 -48h-102l98 110h109l98 -110h-105z" />
    <glyph glyph-name="Atilde" unicode="&#xc3;" horiz-adv-x="500" 
d="M190 234h111l-56 283zM316 130h-140l-25 -130h-160l169 700h182l167 -700h-167zM169 724h-69v21q0 43 22 67t65 24q34 0 73 -18t50 -18q12 0 16.5 7t4.5 27h69v-18q0 -52 -20 -73t-65 -21q-34 0 -72.5 18.5t-49.5 18.5q-13 0 -18.5 -7.5t-5.5 -27.5z" />
    <glyph glyph-name="Adieresis" unicode="&#xc4;" horiz-adv-x="500" 
d="M190 234h111l-56 283zM316 130h-140l-25 -130h-160l169 700h182l167 -700h-167zM104 829h106v-100h-106v100zM291 829h106v-100h-106v100z" />
    <glyph glyph-name="Aring" unicode="&#xc5;" horiz-adv-x="500" 
d="M190 234h111l-56 283zM316 130h-140l-25 -130h-160l169 700h182l167 -700h-167zM285 782q0 12 -19 12h-32q-20 0 -20 -12v-3q0 -12 20 -12h32q19 0 19 12v3zM373 765q0 -24 -21.5 -37t-58.5 -13h-86q-37 0 -58 13.5t-21 35.5v36q0 22 21 35.5t58 13.5h86q36 0 58 -14.5
t22 -36.5v-33z" />
    <glyph glyph-name="AE" unicode="&#xc6;" horiz-adv-x="739" 
d="M319 130h-145l-50 -130h-167l297 700h451v-132q-14 5 -30 5h-209v-145h151q14 0 29 3v-129q-15 3 -29 3h-151v-178h223q17 0 29 5v-132h-399v130zM319 234v285l-113 -285h113z" />
    <glyph glyph-name="Ccedilla" unicode="&#xc7;" horiz-adv-x="458" 
d="M316 -30h17q75 0 75 -72v-21q0 -77 -75 -77h-155l24 69h75q26 0 26 20v4q0 12 -5.5 16t-18.5 4h-62l29 87h-63q-127 0 -127 132v436q0 132 127 132h268v-146q-15 11 -49 11h-176q-22 0 -22 -26v-378q0 -26 21 -26h177q34 0 49 11v-146h-126z" />
    <glyph glyph-name="Egrave" unicode="&#xc8;" horiz-adv-x="476" 
d="M412 573h-208v-145h150q14 0 29 3v-129q-15 3 -29 3h-150v-178h222q16 0 29 5v-132h-399v700h386v-132q-14 5 -30 5zM236 834l113 -110h-108l-137 110h132z" />
    <glyph glyph-name="Eacute" unicode="&#xc9;" horiz-adv-x="476" 
d="M412 573h-208v-145h150q14 0 29 3v-129q-15 3 -29 3h-150v-178h222q16 0 29 5v-132h-399v700h386v-132q-14 5 -30 5zM300 834h122l-137 -110h-99z" />
    <glyph glyph-name="Ecircumflex" unicode="&#xca;" horiz-adv-x="476" 
d="M412 573h-208v-145h150q14 0 29 3v-129q-15 3 -29 3h-150v-178h222q16 0 29 5v-132h-399v700h386v-132q-14 5 -30 5zM256 772l-49 -48h-102l98 110h109l98 -110h-105z" />
    <glyph glyph-name="Edieresis" unicode="&#xcb;" horiz-adv-x="476" 
d="M412 573h-208v-145h150q14 0 29 3v-129q-15 3 -29 3h-150v-178h222q16 0 29 5v-132h-399v700h386v-132q-14 5 -30 5zM104 829h106v-100h-106v100zM291 829h106v-100h-106v100z" />
    <glyph glyph-name="Igrave" unicode="&#xcc;" horiz-adv-x="260" 
d="M56 700h148v-700h-148v700zM85 834l113 -110h-108l-137 110h132z" />
    <glyph glyph-name="Iacute" unicode="&#xcd;" horiz-adv-x="260" 
d="M56 700h148v-700h-148v700zM189 834h122l-137 -110h-99z" />
    <glyph glyph-name="Icircumflex" unicode="&#xce;" horiz-adv-x="260" 
d="M56 700h148v-700h-148v700zM129 772l-49 -48h-102l98 110h109l98 -110h-105z" />
    <glyph glyph-name="Idieresis" unicode="&#xcf;" horiz-adv-x="260" 
d="M56 700h148v-700h-148v700zM-16 829h106v-100h-106v100zM171 829h106v-100h-106v100z" />
    <glyph glyph-name="Eth" unicode="&#xd0;" horiz-adv-x="558" 
d="M56 0v318h-39v95h39v287h319q71 0 98.5 -38.5t27.5 -106.5v-411q0 -70 -27.5 -107t-98.5 -37h-319zM256 318h-54v-185h130q23 0 23 27v379q0 27 -22 27h-131v-153h54v-95z" />
    <glyph glyph-name="Ntilde" unicode="&#xd1;" horiz-adv-x="557" 
d="M351 0l-156 420v-420h-138v700h149l156 -421v421h139v-700h-150zM212 724h-69v21q0 43 22 67t65 24q34 0 73 -18t50 -18q12 0 16.5 7t4.5 27h69v-18q0 -52 -20 -73t-65 -21q-34 0 -72.5 18.5t-49.5 18.5q-13 0 -18.5 -7.5t-5.5 -27.5z" />
    <glyph glyph-name="Ograve" unicode="&#xd2;" horiz-adv-x="558" 
d="M355 161v378q0 26 -22 26h-107q-22 0 -22 -26v-378q0 -26 21 -26h107q23 0 23 26zM56 132v436q0 132 127 132h192q127 0 127 -132v-436q0 -132 -127 -132h-192q-127 0 -127 132zM253 834l113 -110h-108l-137 110h132z" />
    <glyph glyph-name="Oacute" unicode="&#xd3;" horiz-adv-x="558" 
d="M355 161v378q0 26 -22 26h-107q-22 0 -22 -26v-378q0 -26 21 -26h107q23 0 23 26zM56 132v436q0 132 127 132h192q127 0 127 -132v-436q0 -132 -127 -132h-192q-127 0 -127 132zM323 834h122l-137 -110h-99z" />
    <glyph glyph-name="Ocircumflex" unicode="&#xd4;" horiz-adv-x="558" 
d="M355 161v378q0 26 -22 26h-107q-22 0 -22 -26v-378q0 -26 21 -26h107q23 0 23 26zM56 132v436q0 132 127 132h192q127 0 127 -132v-436q0 -132 -127 -132h-192q-127 0 -127 132zM278 772l-49 -48h-102l98 110h109l98 -110h-105z" />
    <glyph glyph-name="Otilde" unicode="&#xd5;" horiz-adv-x="558" 
d="M355 161v378q0 26 -22 26h-107q-22 0 -22 -26v-378q0 -26 21 -26h107q23 0 23 26zM56 132v436q0 132 127 132h192q127 0 127 -132v-436q0 -132 -127 -132h-192q-127 0 -127 132zM198 724h-69v21q0 43 22 67t65 24q34 0 73 -18t50 -18q12 0 16.5 7t4.5 27h69v-18
q0 -52 -20 -73t-65 -21q-34 0 -72.5 18.5t-49.5 18.5q-13 0 -18.5 -7.5t-5.5 -27.5z" />
    <glyph glyph-name="Odieresis" unicode="&#xd6;" horiz-adv-x="558" 
d="M355 161v378q0 26 -22 26h-107q-22 0 -22 -26v-378q0 -26 21 -26h107q23 0 23 26zM56 132v436q0 132 127 132h192q127 0 127 -132v-436q0 -132 -127 -132h-192q-127 0 -127 132zM133 829h106v-100h-106v100zM320 829h106v-100h-106v100z" />
    <glyph glyph-name="multiply" unicode="&#xd7;" horiz-adv-x="483" 
d="M241 205l-87 -86l-80 80l87 86l-87 88l80 80l87 -88l87 88l81 -80l-87 -88l87 -86l-81 -80z" />
    <glyph glyph-name="Oslash" unicode="&#xd8;" horiz-adv-x="568" 
d="M359 394l-151 -204v-29q0 -26 21 -26h108q22 0 22 26v233zM96 39l-30 -39h-82l77 99v469q0 132 126 132h193q32 0 58 -11.5t35 -29.5l30 41h82l-79 -102v-466q0 -132 -126 -132h-193q-32 0 -57 11t-34 28zM208 302l151 204v33q0 26 -22 26h-107q-22 0 -22 -26v-237z" />
    <glyph glyph-name="Ugrave" unicode="&#xd9;" horiz-adv-x="558" 
d="M502 700v-568q0 -132 -127 -132h-192q-127 0 -127 132v568h148v-539q0 -26 21 -26h107q23 0 23 26v539h147zM256 834l113 -110h-108l-137 110h132z" />
    <glyph glyph-name="Uacute" unicode="&#xda;" horiz-adv-x="558" 
d="M502 700v-568q0 -132 -127 -132h-192q-127 0 -127 132v568h148v-539q0 -26 21 -26h107q23 0 23 26v539h147zM322 834h122l-137 -110h-99z" />
    <glyph glyph-name="Ucircumflex" unicode="&#xdb;" horiz-adv-x="558" 
d="M502 700v-568q0 -132 -127 -132h-192q-127 0 -127 132v568h148v-539q0 -26 21 -26h107q23 0 23 26v539h147zM278 772l-49 -48h-102l98 110h109l98 -110h-105z" />
    <glyph glyph-name="Udieresis" unicode="&#xdc;" horiz-adv-x="558" 
d="M502 700v-568q0 -132 -127 -132h-192q-127 0 -127 132v568h148v-539q0 -26 21 -26h107q23 0 23 26v539h147zM133 829h106v-100h-106v100zM320 829h106v-100h-106v100z" />
    <glyph glyph-name="Yacute" unicode="&#xdd;" horiz-adv-x="516" 
d="M336 287v-287h-148v287l-201 413h177l99 -254l97 254h169zM311 834h122l-137 -110h-99z" />
    <glyph glyph-name="Thorn" unicode="&#xde;" horiz-adv-x="528" 
d="M56 700h146v-123h166q133 0 133 -132v-183q0 -64 -30.5 -97.5t-99.5 -33.5h-169v-131h-146v700zM202 443v-179h131q22 0 22 27v125q0 27 -22 27h-131z" />
    <glyph glyph-name="germandbls" unicode="&#xdf;" horiz-adv-x="544" 
d="M351 577h-136q-28 0 -28 -31v-546h-140v568q0 132 128 132h208q127 0 127 -119v-48q0 -49 -17.5 -74t-58.5 -48l-51 -30q-17 -11 -17 -27q0 -15 17 -25l51 -30q39 -22 56 -50.5t17 -71.5v-45q0 -132 -127 -132h-151v132q17 -11 50 -11h75q19 0 19 21v25q0 16 -15 26
l-47 28q-44 26 -61.5 52.5t-17.5 82.5q0 48 16 74t63 58l43 29q16 12 16 27v13q0 20 -19 20z" />
    <glyph glyph-name="agrave" unicode="&#xe0;" horiz-adv-x="463" 
d="M173 317h102v37q0 26 -22 26h-136q-33 0 -50 -11v131h221q128 0 128 -132v-368h-243q-128 0 -128 133v53q0 131 128 131zM210 216q-24 0 -24 -27v-41q0 -28 23 -28h66v96h-65zM202 700l113 -158h-108l-137 158h132z" />
    <glyph glyph-name="aacute" unicode="&#xe1;" horiz-adv-x="463" 
d="M173 317h102v37q0 26 -22 26h-136q-33 0 -50 -11v131h221q128 0 128 -132v-368h-243q-128 0 -128 133v53q0 131 128 131zM210 216q-24 0 -24 -27v-41q0 -28 23 -28h66v96h-65zM241 700h132l-138 -158h-107z" />
    <glyph glyph-name="acircumflex" unicode="&#xe2;" horiz-adv-x="463" 
d="M173 317h102v37q0 26 -22 26h-136q-33 0 -50 -11v131h221q128 0 128 -132v-368h-243q-128 0 -128 133v53q0 131 128 131zM210 216q-24 0 -24 -27v-41q0 -28 23 -28h66v96h-65zM230 618l-50 -76h-101l98 158h109l98 -158h-105z" />
    <glyph glyph-name="atilde" unicode="&#xe3;" horiz-adv-x="463" 
d="M173 317h102v37q0 26 -22 26h-136q-33 0 -50 -11v131h221q128 0 128 -132v-368h-243q-128 0 -128 133v53q0 131 128 131zM210 216q-24 0 -24 -27v-41q0 -28 23 -28h66v96h-65zM149 546h-69v28q0 59 22 91.5t65 32.5q34 0 73 -25t50 -25q21 0 21 47h69v-26
q0 -69 -20 -97.5t-65 -28.5q-34 0 -72.5 25.5t-49.5 25.5q-13 0 -18.5 -10.5t-5.5 -37.5z" />
    <glyph glyph-name="adieresis" unicode="&#xe4;" horiz-adv-x="463" 
d="M173 317h102v37q0 26 -22 26h-136q-33 0 -50 -11v131h221q128 0 128 -132v-368h-243q-128 0 -128 133v53q0 131 128 131zM210 216q-24 0 -24 -27v-41q0 -28 23 -28h66v96h-65zM81 684h106v-129h-106v129zM268 684h106v-129h-106v129z" />
    <glyph glyph-name="aring" unicode="&#xe5;" horiz-adv-x="463" 
d="M173 317h102v37q0 26 -22 26h-136q-33 0 -50 -11v131h221q128 0 128 -132v-368h-243q-128 0 -128 133v53q0 131 128 131zM210 216q-24 0 -24 -27v-41q0 -28 23 -28h66v96h-65zM265 627q0 17 -19 17h-32q-20 0 -20 -17v-12q0 -17 20 -17h32q19 0 19 17v12zM353 601
q0 -33 -21.5 -50t-58.5 -17h-86q-79 0 -79 66v49q0 30 20.5 47.5t58.5 17.5h86q36 0 58 -18t22 -49v-46z" />
    <glyph glyph-name="ae" unicode="&#xe6;" horiz-adv-x="690" 
d="M273 0h-100q-128 0 -128 133v54q0 130 129 130h101v37q0 26 -22 26h-136q-33 0 -50 -11v131h206q25 0 47.5 -13t31.5 -33q25 46 82 46h81q129 0 129 -132v-152h-228v-73q0 -23 20 -23h156q35 0 50 11v-131h-208q-57 0 -82 46q-9 -20 -31 -33t-48 -13zM275 149v67h-67
q-13 0 -17.5 -6t-4.5 -21v-41q0 -28 23 -28h43q23 0 23 29zM416 317h97v38q0 27 -23 27h-54q-20 0 -20 -27v-38z" />
    <glyph glyph-name="ccedilla" unicode="&#xe7;" horiz-adv-x="362" 
d="M252 -30h17q75 0 75 -72v-21q0 -77 -75 -77h-155l24 69h75q26 0 26 20v4q0 12 -5.5 16t-18.5 4h-62l29 87h-8q-127 0 -127 132v236q0 132 127 132h173v-135q-16 11 -50 11h-82q-28 0 -28 -30v-193q0 -32 28 -32h82q33 0 50 11v-132h-86z" />
    <glyph glyph-name="egrave" unicode="&#xe8;" horiz-adv-x="461" 
d="M187 215v-71q0 -24 21 -24h156q34 0 49 11v-131h-239q-127 0 -127 132v236q0 132 128 132h113q128 0 128 -132v-153h-229zM187 317h98v38q0 27 -23 27h-54q-21 0 -21 -27v-38zM210 700l113 -158h-108l-137 158h132z" />
    <glyph glyph-name="eacute" unicode="&#xe9;" horiz-adv-x="461" 
d="M187 215v-71q0 -24 21 -24h156q34 0 49 11v-131h-239q-127 0 -127 132v236q0 132 128 132h113q128 0 128 -132v-153h-229zM187 317h98v38q0 27 -23 27h-54q-21 0 -21 -27v-38zM264 700h132l-138 -158h-107z" />
    <glyph glyph-name="ecircumflex" unicode="&#xea;" horiz-adv-x="461" 
d="M187 215v-71q0 -24 21 -24h156q34 0 49 11v-131h-239q-127 0 -127 132v236q0 132 128 132h113q128 0 128 -132v-153h-229zM187 317h98v38q0 27 -23 27h-54q-21 0 -21 -27v-38zM235 618l-50 -76h-101l98 158h109l98 -158h-105z" />
    <glyph glyph-name="edieresis" unicode="&#xeb;" horiz-adv-x="461" 
d="M187 215v-71q0 -24 21 -24h156q34 0 49 11v-131h-239q-127 0 -127 132v236q0 132 128 132h113q128 0 128 -132v-153h-229zM187 317h98v38q0 27 -23 27h-54q-21 0 -21 -27v-38zM86 684h106v-129h-106v129zM273 684h106v-129h-106v129z" />
    <glyph glyph-name="igrave" unicode="&#xec;" horiz-adv-x="234" 
d="M47 500h140v-500h-140v500zM90 700l113 -158h-108l-137 158h132z" />
    <glyph glyph-name="iacute" unicode="&#xed;" horiz-adv-x="234" 
d="M47 500h140v-500h-140v500zM142 700h132l-138 -158h-107z" />
    <glyph glyph-name="icircumflex" unicode="&#xee;" horiz-adv-x="234" 
d="M47 500h140v-500h-140v500zM116 618l-50 -76h-101l98 158h109l98 -158h-105z" />
    <glyph glyph-name="idieresis" unicode="&#xef;" horiz-adv-x="234" 
d="M47 500h140v-500h-140v500zM-29 684h106v-129h-106v129zM158 684h106v-129h-106v129z" />
    <glyph glyph-name="eth" unicode="&#xf0;" horiz-adv-x="527" 
d="M320 305h-91q-21 0 -21 -27v-117q0 -26 22 -26h68q22 0 22 26v144zM326 604l99 -104q23 -25 32.5 -55t9.5 -84v-229q0 -132 -126 -132h-154q-126 0 -126 132v163q0 133 126 133h133l-101 110l-64 -42l-53 57l64 42l-96 105h166l36 -39l61 40l53 -57z" />
    <glyph glyph-name="ntilde" unicode="&#xf1;" 
d="M417 367v-367h-140v351q0 26 -21 26h-69v-377h-140v500h243q127 0 127 -133zM147 546h-69v28q0 59 22 91.5t65 32.5q34 0 73 -25t50 -25q21 0 21 47h69v-26q0 -69 -20 -97.5t-65 -28.5q-34 0 -72.5 25.5t-49.5 25.5q-13 0 -18.5 -10.5t-5.5 -37.5z" />
    <glyph glyph-name="ograve" unicode="&#xf2;" 
d="M277 147v204q0 26 -21 26h-46q-23 0 -23 -26v-204q0 -27 22 -27h46q22 0 22 27zM47 132v236q0 132 127 132h116q127 0 127 -132v-236q0 -132 -127 -132h-116q-127 0 -127 132zM207 700l113 -158h-108l-137 158h132z" />
    <glyph glyph-name="oacute" unicode="&#xf3;" 
d="M277 147v204q0 26 -21 26h-46q-23 0 -23 -26v-204q0 -27 22 -27h46q22 0 22 27zM47 132v236q0 132 127 132h116q127 0 127 -132v-236q0 -132 -127 -132h-116q-127 0 -127 132zM259 700h132l-138 -158h-107z" />
    <glyph glyph-name="ocircumflex" unicode="&#xf4;" 
d="M277 147v204q0 26 -21 26h-46q-23 0 -23 -26v-204q0 -27 22 -27h46q22 0 22 27zM47 132v236q0 132 127 132h116q127 0 127 -132v-236q0 -132 -127 -132h-116q-127 0 -127 132zM231 618l-50 -76h-101l98 158h109l98 -158h-105z" />
    <glyph glyph-name="otilde" unicode="&#xf5;" 
d="M277 147v204q0 26 -21 26h-46q-23 0 -23 -26v-204q0 -27 22 -27h46q22 0 22 27zM47 132v236q0 132 127 132h116q127 0 127 -132v-236q0 -132 -127 -132h-116q-127 0 -127 132zM151 546h-69v28q0 59 22 91.5t65 32.5q34 0 73 -25t50 -25q21 0 21 47h69v-26
q0 -69 -20 -97.5t-65 -28.5q-34 0 -72.5 25.5t-49.5 25.5q-13 0 -18.5 -10.5t-5.5 -37.5z" />
    <glyph glyph-name="odieresis" unicode="&#xf6;" 
d="M277 147v204q0 26 -21 26h-46q-23 0 -23 -26v-204q0 -27 22 -27h46q22 0 22 27zM47 132v236q0 132 127 132h116q127 0 127 -132v-236q0 -132 -127 -132h-116q-127 0 -127 132zM86 684h106v-129h-106v129zM273 684h106v-129h-106v129z" />
    <glyph glyph-name="divide" unicode="&#xf7;" horiz-adv-x="483" 
d="M422 228h-360v115h360v-115zM183 51v111h109v-111h-109zM183 409v111h109v-111h-109z" />
    <glyph glyph-name="oslash" unicode="&#xf8;" 
d="M276 250l-89 -109q2 -21 22 -21h46q21 0 21 27v103zM417 415v-283q0 -132 -129 -132h-115q-55 0 -81 26l-21 -26h-90l65 79v289q0 132 128 132h116q55 0 86 -28l21 28h90zM276 352q-1 25 -21 25h-46q-13 0 -17.5 -6t-4.5 -20v-109z" />
    <glyph glyph-name="ugrave" unicode="&#xf9;" 
d="M47 132v368h140v-353q0 -27 22 -27h68v380h140v-500h-244q-126 0 -126 132zM208 700l113 -158h-108l-137 158h132z" />
    <glyph glyph-name="uacute" unicode="&#xfa;" 
d="M47 132v368h140v-353q0 -27 22 -27h68v380h140v-500h-244q-126 0 -126 132zM266 700h132l-138 -158h-107z" />
    <glyph glyph-name="ucircumflex" unicode="&#xfb;" 
d="M47 132v368h140v-353q0 -27 22 -27h68v380h140v-500h-244q-126 0 -126 132zM231 618l-50 -76h-101l98 158h109l98 -158h-105z" />
    <glyph glyph-name="udieresis" unicode="&#xfc;" 
d="M47 132v368h140v-353q0 -27 22 -27h68v380h140v-500h-244q-126 0 -126 132zM86 684h106v-129h-106v129zM273 684h106v-129h-106v129z" />
    <glyph glyph-name="yacute" unicode="&#xfd;" horiz-adv-x="430" 
d="M239 -200h-160l68 200h-16l-133 500h159l61 -357l63 357h153zM267 700h132l-138 -158h-107z" />
    <glyph glyph-name="thorn" unicode="&#xfe;" horiz-adv-x="445" 
d="M47 500h139v-75h98q73 0 103 -35.5t30 -102.5v-80q0 -132 -132 -132h-99v-75h-139v500zM186 195h70q22 0 22 26v56q0 27 -22 27h-70v-109z" />
    <glyph glyph-name="ydieresis" unicode="&#xff;" horiz-adv-x="430" 
d="M239 -200h-160l68 200h-16l-133 500h159l61 -357l63 357h153zM70 684h106v-129h-106v129zM257 684h106v-129h-106v129z" />
    <glyph glyph-name="Amacron" unicode="&#x100;" horiz-adv-x="500" 
d="M190 234h111l-56 283zM316 130h-140l-25 -130h-160l169 700h182l167 -700h-167zM370 737h-240v85h240v-85z" />
    <glyph glyph-name="amacron" unicode="&#x101;" horiz-adv-x="463" 
d="M173 317h102v37q0 26 -22 26h-136q-33 0 -50 -11v131h221q128 0 128 -132v-368h-243q-128 0 -128 133v53q0 131 128 131zM210 216q-24 0 -24 -27v-41q0 -28 23 -28h66v96h-65zM345 569h-240v95h240v-95z" />
    <glyph glyph-name="Abreve" unicode="&#x102;" horiz-adv-x="500" 
d="M190 234h111l-56 283zM316 130h-140l-25 -130h-160l169 700h182l167 -700h-167zM403 834v-28q0 -41 -24 -61.5t-66 -20.5h-110q-89 0 -89 80v30h97v-11q0 -25 23 -25h50q12 0 16.5 5.5t4.5 19.5v11h98z" />
    <glyph glyph-name="abreve" unicode="&#x103;" horiz-adv-x="463" 
d="M173 317h102v37q0 26 -22 26h-136q-33 0 -50 -11v131h221q128 0 128 -132v-368h-243q-128 0 -128 133v53q0 131 128 131zM210 216q-24 0 -24 -27v-41q0 -28 23 -28h66v96h-65zM381 700v-63q0 -42 -25 -67.5t-65 -25.5h-110q-42 0 -65.5 25.5t-23.5 66.5v64h97v-39
q0 -26 23 -26h50q12 0 16.5 6t4.5 20v39h98z" />
    <glyph glyph-name="Aogonek" unicode="&#x104;" horiz-adv-x="500" 
d="M316 130h-140l-25 -130h-160l169 700h182l167 -700h-4q-58 -25 -91 -48.5t-33 -36.5v-9q0 -22 25 -22h94v-84h-150q-40 0 -57.5 15.5t-17.5 51.5v20q0 58 140 113h-73zM190 234h111l-56 283z" />
    <glyph glyph-name="aogonek" unicode="&#x105;" horiz-adv-x="463" 
d="M173 317h102v37q0 26 -22 26h-136q-33 0 -50 -11v131h221q128 0 128 -132v-368h-6q-56 -24 -84 -47.5t-28 -37.5v-9q0 -22 25 -22h94v-84h-150q-40 0 -57.5 15.5t-17.5 51.5v20q0 63 128 113h-147q-128 0 -128 133v53q0 131 128 131zM210 216q-24 0 -24 -27v-41
q0 -28 23 -28h66v96h-65z" />
    <glyph glyph-name="Cacute" unicode="&#x106;" horiz-adv-x="458" 
d="M225 135h177q34 0 49 11v-146h-268q-127 0 -127 132v436q0 132 127 132h268v-146q-15 11 -49 11h-176q-22 0 -22 -26v-378q0 -26 21 -26zM313 834h122l-137 -110h-99z" />
    <glyph glyph-name="cacute" unicode="&#x107;" horiz-adv-x="362" 
d="M297 376h-82q-28 0 -28 -30v-193q0 -32 28 -32h82q33 0 50 11v-132h-173q-127 0 -127 132v236q0 132 127 132h173v-135q-16 11 -50 11zM244 700h132l-138 -158h-107z" />
    <glyph glyph-name="Ccircumflex" unicode="&#x108;" horiz-adv-x="458" 
d="M225 135h177q34 0 49 11v-146h-268q-127 0 -127 132v436q0 132 127 132h268v-146q-15 11 -49 11h-176q-22 0 -22 -26v-378q0 -26 21 -26zM272 772l-49 -48h-102l98 110h109l98 -110h-105z" />
    <glyph glyph-name="ccircumflex" unicode="&#x109;" horiz-adv-x="362" 
d="M297 376h-82q-28 0 -28 -30v-193q0 -32 28 -32h82q33 0 50 11v-132h-173q-127 0 -127 132v236q0 132 127 132h173v-135q-16 11 -50 11zM214 618l-50 -76h-101l98 158h109l98 -158h-105z" />
    <glyph glyph-name="Cdotaccent" unicode="&#x10a;" horiz-adv-x="458" 
d="M225 135h177q34 0 49 11v-146h-268q-127 0 -127 132v436q0 132 127 132h268v-146q-15 11 -49 11h-176q-22 0 -22 -26v-378q0 -26 21 -26zM230 828h123v-101h-123v101z" />
    <glyph glyph-name="cdotaccent" unicode="&#x10b;" horiz-adv-x="362" 
d="M297 376h-82q-28 0 -28 -30v-193q0 -32 28 -32h82q33 0 50 11v-132h-173q-127 0 -127 132v236q0 132 127 132h173v-135q-16 11 -50 11zM159 688h141v-144h-141v144z" />
    <glyph glyph-name="Ccaron" unicode="&#x10c;" horiz-adv-x="458" 
d="M225 135h177q34 0 49 11v-146h-268q-127 0 -127 132v436q0 132 127 132h268v-146q-15 11 -49 11h-176q-22 0 -22 -26v-378q0 -26 21 -26zM291 786l49 48h102l-98 -110h-109l-98 110h105z" />
    <glyph glyph-name="ccaron" unicode="&#x10d;" horiz-adv-x="362" 
d="M297 376h-82q-28 0 -28 -30v-193q0 -32 28 -32h82q33 0 50 11v-132h-173q-127 0 -127 132v236q0 132 127 132h173v-135q-16 11 -50 11zM223 624l49 76h102l-98 -158h-109l-98 158h105z" />
    <glyph glyph-name="Dcaron" unicode="&#x10e;" horiz-adv-x="558" 
d="M204 565v-430h128q23 0 23 26v378q0 26 -22 26h-129zM56 0v700h319q127 0 127 -132v-436q0 -132 -127 -132h-319zM269 786l49 48h102l-98 -110h-109l-98 110h105z" />
    <glyph glyph-name="dcaron" unicode="&#x10f;" horiz-adv-x="485" 
d="M277 377h-68q-22 0 -22 -26v-204q0 -27 22 -27h68v257zM417 0h-243q-127 0 -127 134v234q0 132 127 132h103v200h140v-700zM455 524l10 176h103l-32 -176h-81z" />
    <glyph glyph-name="Dcroat" unicode="&#x110;" horiz-adv-x="558" 
d="M56 0v318h-39v95h39v287h319q71 0 98.5 -38.5t27.5 -106.5v-411q0 -70 -27.5 -107t-98.5 -37h-319zM256 318h-54v-185h130q23 0 23 27v379q0 27 -22 27h-131v-153h54v-95z" />
    <glyph glyph-name="dcroat" unicode="&#x111;" 
d="M417 0h-243q-127 0 -127 134v234q0 132 127 132h103v69h-65v95h65v36h140v-36h35v-95h-35v-569zM277 377h-68q-22 0 -22 -26v-204q0 -27 22 -27h68v257z" />
    <glyph glyph-name="Emacron" unicode="&#x112;" horiz-adv-x="476" 
d="M412 573h-208v-145h150q14 0 29 3v-129q-15 3 -29 3h-150v-178h222q16 0 29 5v-132h-399v700h386v-132q-14 5 -30 5zM387 737h-240v85h240v-85z" />
    <glyph glyph-name="emacron" unicode="&#x113;" horiz-adv-x="461" 
d="M187 215v-71q0 -24 21 -24h156q34 0 49 11v-131h-239q-127 0 -127 132v236q0 132 128 132h113q128 0 128 -132v-153h-229zM187 317h98v38q0 27 -23 27h-54q-21 0 -21 -27v-38zM358 569h-240v95h240v-95z" />
    <glyph glyph-name="Ebreve" unicode="&#x114;" horiz-adv-x="476" 
d="M412 573h-208v-145h150q14 0 29 3v-129q-15 3 -29 3h-150v-178h222q16 0 29 5v-132h-399v700h386v-132q-14 5 -30 5zM400 834v-28q0 -41 -24 -61.5t-66 -20.5h-110q-89 0 -89 80v30h97v-11q0 -25 23 -25h50q12 0 16.5 5.5t4.5 19.5v11h98z" />
    <glyph glyph-name="ebreve" unicode="&#x115;" horiz-adv-x="461" 
d="M187 215v-71q0 -24 21 -24h156q34 0 49 11v-131h-239q-127 0 -127 132v236q0 132 128 132h113q128 0 128 -132v-153h-229zM187 317h98v38q0 27 -23 27h-54q-21 0 -21 -27v-38zM376 700v-63q0 -42 -25 -67.5t-65 -25.5h-110q-42 0 -65.5 25.5t-23.5 66.5v64h97v-39
q0 -26 23 -26h50q12 0 16.5 6t4.5 20v39h98z" />
    <glyph glyph-name="Edotaccent" unicode="&#x116;" horiz-adv-x="476" 
d="M412 573h-208v-145h150q14 0 29 3v-129q-15 3 -29 3h-150v-178h222q16 0 29 5v-132h-399v700h386v-132q-14 5 -30 5zM203 828h123v-101h-123v101z" />
    <glyph glyph-name="edotaccent" unicode="&#x117;" horiz-adv-x="461" 
d="M187 215v-71q0 -24 21 -24h156q34 0 49 11v-131h-239q-127 0 -127 132v236q0 132 128 132h113q128 0 128 -132v-153h-229zM187 317h98v38q0 27 -23 27h-54q-21 0 -21 -27v-38zM168 688h141v-144h-141v144z" />
    <glyph glyph-name="Eogonek" unicode="&#x118;" horiz-adv-x="476" 
d="M412 573h-208v-145h150q14 0 29 3v-129q-15 3 -29 3h-150v-178h222q16 0 29 5v-132h-7q-58 -25 -91 -48.5t-33 -36.5v-9q0 -22 25 -22h94v-84h-150q-40 0 -57.5 15.5t-17.5 51.5v20q0 58 140 113h-302v700h386v-132q-14 5 -30 5z" />
    <glyph glyph-name="eogonek" unicode="&#x119;" horiz-adv-x="461" 
d="M187 215v-71q0 -24 21 -24h156q34 0 49 11v-131h-3q-58 -25 -91 -48.5t-33 -36.5v-9q0 -22 25 -22h94v-84h-150q-40 0 -57.5 15.5t-17.5 51.5v20q0 58 140 113h-146q-127 0 -127 132v236q0 132 128 132h113q128 0 128 -132v-153h-229zM187 317h98v38q0 27 -23 27h-54
q-21 0 -21 -27v-38z" />
    <glyph glyph-name="Ecaron" unicode="&#x11a;" horiz-adv-x="476" 
d="M412 573h-208v-145h150q14 0 29 3v-129q-15 3 -29 3h-150v-178h222q16 0 29 5v-132h-399v700h386v-132q-14 5 -30 5zM258 786l49 48h102l-98 -110h-109l-98 110h105z" />
    <glyph glyph-name="ecaron" unicode="&#x11b;" horiz-adv-x="461" 
d="M187 215v-71q0 -24 21 -24h156q34 0 49 11v-131h-239q-127 0 -127 132v236q0 132 128 132h113q128 0 128 -132v-153h-229zM187 317h98v38q0 27 -23 27h-54q-21 0 -21 -27v-38zM238 624l49 76h102l-98 -158h-109l-98 158h105z" />
    <glyph glyph-name="Gcircumflex" unicode="&#x11c;" horiz-adv-x="554" 
d="M502 428v-296q0 -132 -127 -132h-192q-127 0 -127 132v436q0 132 127 132h297v-146q-16 11 -50 11h-204q-22 0 -22 -26v-378q0 -26 21 -26h107q23 0 23 26v144h-52q-14 0 -29 -3v129q15 -3 29 -3h199zM285 772l-49 -48h-102l98 110h109l98 -110h-105z" />
    <glyph glyph-name="gcircumflex" unicode="&#x11d;" 
d="M277 120v257h-66q-24 0 -24 -28v-201q0 -28 23 -28h67zM277 -53v53h-103q-127 0 -127 133v235q0 132 127 132h243v-568q0 -132 -127 -132h-239v131q17 -11 50 -11h149q15 0 21 6t6 21zM239 618l-50 -76h-101l98 158h109l98 -158h-105z" />
    <glyph glyph-name="Gbreve" unicode="&#x11e;" horiz-adv-x="554" 
d="M502 428v-296q0 -132 -127 -132h-192q-127 0 -127 132v436q0 132 127 132h297v-146q-16 11 -50 11h-204q-22 0 -22 -26v-378q0 -26 21 -26h107q23 0 23 26v144h-52q-14 0 -29 -3v129q15 -3 29 -3h199zM424 834v-28q0 -41 -24 -61.5t-66 -20.5h-110q-89 0 -89 80v30h97
v-11q0 -25 23 -25h50q12 0 16.5 5.5t4.5 19.5v11h98z" />
    <glyph glyph-name="gbreve" unicode="&#x11f;" 
d="M277 120v257h-66q-24 0 -24 -28v-201q0 -28 23 -28h67zM277 -53v53h-103q-127 0 -127 133v235q0 132 127 132h243v-568q0 -132 -127 -132h-239v131q17 -11 50 -11h149q15 0 21 6t6 21zM377 700v-63q0 -42 -25 -67.5t-65 -25.5h-110q-42 0 -65.5 25.5t-23.5 66.5v64h97
v-39q0 -26 23 -26h50q12 0 16.5 6t4.5 20v39h98z" />
    <glyph glyph-name="Gdotaccent" unicode="&#x120;" horiz-adv-x="554" 
d="M502 428v-296q0 -132 -127 -132h-192q-127 0 -127 132v436q0 132 127 132h297v-146q-16 11 -50 11h-204q-22 0 -22 -26v-378q0 -26 21 -26h107q23 0 23 26v144h-52q-14 0 -29 -3v129q15 -3 29 -3h199zM225 828h123v-101h-123v101z" />
    <glyph glyph-name="gdotaccent" unicode="&#x121;" 
d="M277 120v257h-66q-24 0 -24 -28v-201q0 -28 23 -28h67zM277 -53v53h-103q-127 0 -127 133v235q0 132 127 132h243v-568q0 -132 -127 -132h-239v131q17 -11 50 -11h149q15 0 21 6t6 21zM172 688h141v-144h-141v144z" />
    <glyph glyph-name="Gcommaaccent" unicode="&#x122;" horiz-adv-x="554" 
d="M502 428v-296q0 -132 -127 -132h-192q-127 0 -127 132v436q0 132 127 132h297v-146q-16 11 -50 11h-204q-22 0 -22 -26v-378q0 -26 21 -26h107q23 0 23 26v144h-52q-14 0 -29 -3v129q15 -3 29 -3h199zM238 -53h119v-84l-42 -109h-105l28 110v83z" />
    <glyph glyph-name="gcommaaccent" unicode="&#x123;" 
d="M277 120v257h-66q-24 0 -24 -28v-201q0 -28 23 -28h67zM277 -53v53h-103q-127 0 -127 133v235q0 132 127 132h243v-568q0 -132 -127 -132h-239v131q17 -11 50 -11h149q15 0 21 6t6 21zM303 542h-119v84l42 109h105l-28 -110v-83z" />
    <glyph glyph-name="Hcircumflex" unicode="&#x124;" horiz-adv-x="558" 
d="M355 305h-151v-305h-148v700h148v-272h151v272h147v-700h-147v305zM278 772l-49 -48h-102l98 110h109l98 -110h-105z" />
    <glyph glyph-name="hcircumflex" unicode="&#x125;" 
d="M417 367v-367h-140v351q0 26 -21 26h-69v-377h-140v700h140v-200h102q128 0 128 -133zM173 772l-49 -48h-102l98 110h109l98 -110h-105z" />
    <glyph glyph-name="Hbar" unicode="&#x126;" horiz-adv-x="558" 
d="M544 569h-42v-569h-147v305h-151v-305h-148v569h-43v95h43v36h148v-36h151v36h147v-36h42v-95zM204 428h151v141h-151v-141z" />
    <glyph glyph-name="hbar" unicode="&#x127;" 
d="M252 569h-65v-69h102q128 0 128 -133v-367h-140v351q0 26 -21 26h-69v-377h-140v569h-35v95h35v36h140v-36h65v-95z" />
    <glyph glyph-name="Itilde" unicode="&#x128;" horiz-adv-x="260" 
d="M56 700h148v-700h-148v700zM49 724h-69v21q0 43 22 67t65 24q34 0 73 -18t50 -18q12 0 16.5 7t4.5 27h69v-18q0 -52 -20 -73t-65 -21q-34 0 -72.5 18.5t-49.5 18.5q-13 0 -18.5 -7.5t-5.5 -27.5z" />
    <glyph glyph-name="itilde" unicode="&#x129;" horiz-adv-x="234" 
d="M47 500h140v-500h-140v500zM36 546h-69v28q0 59 22 91.5t65 32.5q34 0 73 -25t50 -25q21 0 21 47h69v-26q0 -69 -20 -97.5t-65 -28.5q-34 0 -72.5 25.5t-49.5 25.5q-14 0 -19 -10.5t-5 -37.5z" />
    <glyph glyph-name="Imacron" unicode="&#x12a;" horiz-adv-x="260" 
d="M56 700h148v-700h-148v700zM250 737h-240v85h240v-85z" />
    <glyph glyph-name="imacron" unicode="&#x12b;" horiz-adv-x="234" 
d="M47 500h140v-500h-140v500zM237 569h-240v95h240v-95z" />
    <glyph glyph-name="Ibreve" unicode="&#x12c;" horiz-adv-x="260" 
d="M56 700h148v-700h-148v700zM275 834v-28q0 -41 -24 -61.5t-66 -20.5h-110q-89 0 -89 80v30h97v-11q0 -25 23 -25h50q12 0 16.5 5.5t4.5 19.5v11h98z" />
    <glyph glyph-name="ibreve" unicode="&#x12d;" horiz-adv-x="234" 
d="M47 500h140v-500h-140v500zM262 700v-63q0 -42 -25 -67.5t-65 -25.5h-110q-42 0 -65.5 25.5t-23.5 66.5v64h97v-39q0 -26 23 -26h50q12 0 16.5 6t4.5 20v39h98z" />
    <glyph glyph-name="Iogonek" unicode="&#x12e;" horiz-adv-x="260" 
d="M56 700h148v-700h-4q-55 -24 -79.5 -47t-24.5 -38v-9q0 -22 25 -22h94v-84h-150q-40 0 -57.5 15.5t-17.5 51.5v20q0 30 24.5 57.5t95.5 55.5h-54v700z" />
    <glyph glyph-name="iogonek" unicode="&#x12f;" horiz-adv-x="234" 
d="M47 500h140v-500h-3q-54 -23 -75.5 -46t-21.5 -39v-9q0 -22 25 -22h94v-84h-150q-40 0 -57.5 15.5t-17.5 51.5v20q0 20 5.5 35.5t32 37t75.5 40.5h-47v500zM47 688h140v-144h-140v144z" />
    <glyph glyph-name="Idotaccent" unicode="&#x130;" horiz-adv-x="260" 
d="M56 700h148v-700h-148v700zM69 828h123v-101h-123v101z" />
    <glyph glyph-name="dotlessi" unicode="&#x131;" horiz-adv-x="234" 
d="M47 500h140v-500h-140v500z" />
    <glyph glyph-name="IJ" unicode="&#x132;" horiz-adv-x="551" 
d="M56 700h148v-700h-148v700zM229 0v140q13 -5 29 -5h69q22 0 22 26v539h148v-568q0 -132 -127 -132h-141z" />
    <glyph glyph-name="ij" unicode="&#x133;" horiz-adv-x="468" 
d="M47 500h140v-500h-140v500zM47 688h140v-144h-140v144zM285 688h140v-144h-140v144zM425 500v-500q0 -98 -32 -200h-146q38 100 38 200v500h140z" />
    <glyph glyph-name="Jcircumflex" unicode="&#x134;" horiz-adv-x="336" 
d="M12 0v140q13 -5 29 -5h69q22 0 22 26v539h148v-568q0 -132 -127 -132h-141zM199 772l-49 -48h-102l98 110h109l98 -110h-105z" />
    <glyph glyph-name="jcircumflex" unicode="&#x135;" horiz-adv-x="234" 
d="M187 500v-500q0 -98 -32 -200h-146q38 100 38 200v500h140zM115 618l-50 -76h-101l98 158h109l98 -158h-105z" />
    <glyph glyph-name="Kcommaaccent" unicode="&#x136;" horiz-adv-x="558" 
d="M257 305h-53v-305h-148v700h148v-272h52q31 0 45 42l75 230h164l-101 -274q-15 -44 -58 -58q43 -12 61 -64l111 -304h-170l-83 263q-8 23 -17 32.5t-26 9.5zM234 -53h119v-84l-42 -109h-105l28 110v83z" />
    <glyph glyph-name="kcommaaccent" unicode="&#x137;" horiz-adv-x="468" 
d="M220 331q21 0 28 21l48 148h147l-64 -177q-13 -34 -37 -44q23 -12 35 -46l81 -233h-161l-48 190q-7 23 -28 23h-34v-213h-140v700h140v-369h33zM182 -53h119v-84l-42 -109h-105l28 110v83z" />
    <glyph glyph-name="Lacute" unicode="&#x139;" horiz-adv-x="445" 
d="M204 700v-573h210q16 0 29 5v-132h-387v700h148zM209 834h122l-137 -110h-99z" />
    <glyph glyph-name="lacute" unicode="&#x13a;" horiz-adv-x="234" 
d="M47 700h140v-700h-140v700zM167 834h122l-137 -110h-99z" />
    <glyph glyph-name="Lcommaaccent" unicode="&#x13b;" horiz-adv-x="445" 
d="M204 700v-573h210q16 0 29 5v-132h-387v700h148zM199 -53h119v-84l-42 -109h-105l28 110v83z" />
    <glyph glyph-name="lcommaaccent" unicode="&#x13c;" horiz-adv-x="234" 
d="M47 700h140v-700h-140v700zM64 -53h119v-84l-42 -109h-105l28 110v83z" />
    <glyph glyph-name="Lcaron" unicode="&#x13d;" horiz-adv-x="445" 
d="M204 700v-573h210q16 0 29 5v-132h-387v700h148zM268 524l10 176h103l-32 -176h-81z" />
    <glyph glyph-name="lcaron" unicode="&#x13e;" horiz-adv-x="256" 
d="M47 700h140v-700h-140v700zM226 524l10 176h103l-32 -176h-81z" />
    <glyph glyph-name="Ldot" unicode="&#x13f;" horiz-adv-x="445" 
d="M204 700v-573h210q16 0 29 5v-132h-387v700h148zM264 349v127h126v-127h-126z" />
    <glyph glyph-name="ldot" unicode="&#x140;" horiz-adv-x="303" 
d="M47 700h140v-700h-140v700zM219 329v127h126v-127h-126z" />
    <glyph glyph-name="Lslash" unicode="&#x141;" horiz-adv-x="454" 
d="M195 347v-237h225q16 0 29 5v-115h-382v242l-48 -42v102l48 41v357h128v-252l131 112v-101z" />
    <glyph glyph-name="lslash" unicode="&#x142;" horiz-adv-x="241" 
d="M60 255l-43 -54v103l43 54v342h122v-206l42 53v-103l-42 -54v-390h-122v255z" />
    <glyph glyph-name="Nacute" unicode="&#x143;" horiz-adv-x="557" 
d="M351 0l-156 420v-420h-138v700h149l156 -421v421h139v-700h-150zM321 834h122l-137 -110h-99z" />
    <glyph glyph-name="nacute" unicode="&#x144;" 
d="M417 367v-367h-140v351q0 26 -21 26h-69v-377h-140v500h243q127 0 127 -133zM260 700h132l-138 -158h-107z" />
    <glyph glyph-name="Ncommaaccent" unicode="&#x145;" horiz-adv-x="557" 
d="M351 0l-156 420v-420h-138v700h149l156 -421v421h139v-700h-150zM232 -53h119v-84l-42 -109h-105l28 110v83z" />
    <glyph glyph-name="ncommaaccent" unicode="&#x146;" 
d="M417 367v-367h-140v351q0 26 -21 26h-69v-377h-140v500h243q127 0 127 -133zM177 -53h119v-84l-42 -109h-105l28 110v83z" />
    <glyph glyph-name="Ncaron" unicode="&#x147;" horiz-adv-x="557" 
d="M351 0l-156 420v-420h-138v700h149l156 -421v421h139v-700h-150zM284 786l49 48h102l-98 -110h-109l-98 110h105z" />
    <glyph glyph-name="ncaron" unicode="&#x148;" 
d="M417 367v-367h-140v351q0 26 -21 26h-69v-377h-140v500h243q127 0 127 -133zM229 624l49 76h102l-98 -158h-109l-98 158h105z" />
    <glyph glyph-name="napostrophe" unicode="&#x149;" 
d="M417 367v-367h-140v351q0 26 -21 26h-69v-377h-140v500h243q127 0 127 -133zM47 524l10 176h103l-32 -176h-81z" />
    <glyph glyph-name="Eng" unicode="&#x14a;" horiz-adv-x="557" 
d="M351 0l-156 420v-420h-138v700h149l156 -421v421h139v-707l-48 -199h-117z" />
    <glyph glyph-name="eng" unicode="&#x14b;" 
d="M417 367v-367l-50 -213h-117l27 213v351q0 26 -21 26h-69v-377h-140v500h243q127 0 127 -133z" />
    <glyph glyph-name="Omacron" unicode="&#x14c;" horiz-adv-x="558" 
d="M355 161v378q0 26 -22 26h-107q-22 0 -22 -26v-378q0 -26 21 -26h107q23 0 23 26zM56 132v436q0 132 127 132h192q127 0 127 -132v-436q0 -132 -127 -132h-192q-127 0 -127 132zM399 737h-240v85h240v-85z" />
    <glyph glyph-name="omacron" unicode="&#x14d;" 
d="M277 147v204q0 26 -21 26h-46q-23 0 -23 -26v-204q0 -27 22 -27h46q22 0 22 27zM47 132v236q0 132 127 132h116q127 0 127 -132v-236q0 -132 -127 -132h-116q-127 0 -127 132zM352 569h-240v95h240v-95z" />
    <glyph glyph-name="Obreve" unicode="&#x14e;" horiz-adv-x="558" 
d="M355 161v378q0 26 -22 26h-107q-22 0 -22 -26v-378q0 -26 21 -26h107q23 0 23 26zM56 132v436q0 132 127 132h192q127 0 127 -132v-436q0 -132 -127 -132h-192q-127 0 -127 132zM424 834v-28q0 -41 -24 -61.5t-66 -20.5h-110q-89 0 -89 80v30h97v-11q0 -25 23 -25h50
q12 0 16.5 5.5t4.5 19.5v11h98z" />
    <glyph glyph-name="obreve" unicode="&#x14f;" 
d="M277 147v204q0 26 -21 26h-46q-23 0 -23 -26v-204q0 -27 22 -27h46q22 0 22 27zM47 132v236q0 132 127 132h116q127 0 127 -132v-236q0 -132 -127 -132h-116q-127 0 -127 132zM377 700v-63q0 -42 -25 -67.5t-65 -25.5h-110q-42 0 -65.5 25.5t-23.5 66.5v64h97v-39
q0 -26 23 -26h50q12 0 16.5 6t4.5 20v39h98z" />
    <glyph glyph-name="Ohungarumlaut" unicode="&#x150;" horiz-adv-x="558" 
d="M355 161v378q0 26 -22 26h-107q-22 0 -22 -26v-378q0 -26 21 -26h107q23 0 23 26zM56 132v436q0 132 127 132h192q127 0 127 -132v-436q0 -132 -127 -132h-192q-127 0 -127 132zM232 834h105l-112 -110h-86zM387 834h105l-111 -110h-86z" />
    <glyph glyph-name="ohungarumlaut" unicode="&#x151;" 
d="M277 147v204q0 26 -21 26h-46q-23 0 -23 -26v-204q0 -27 22 -27h46q22 0 22 27zM47 132v236q0 132 127 132h116q127 0 127 -132v-236q0 -132 -127 -132h-116q-127 0 -127 132zM182 700h105l-112 -158h-86zM337 700h105l-111 -158h-86z" />
    <glyph glyph-name="OE" unicode="&#x152;" horiz-adv-x="775" 
d="M355 565h-129q-22 0 -22 -26v-378q0 -26 21 -26h130v430zM183 0q-127 0 -127 132v436q0 132 127 132h558v-132q-14 5 -30 5h-209v-145h150q14 0 29 3v-129q-15 3 -29 3h-150v-178h222q16 0 29 5v-132h-570z" />
    <glyph glyph-name="oe" unicode="&#x153;" horiz-adv-x="691" 
d="M353 453q32 47 84 47h81q128 0 128 -133v-152h-229v-71q0 -24 21 -24h156q34 0 49 11v-131h-207q-50 0 -83 47q-28 -47 -78 -47h-102q-64 0 -95 35.5t-31 97.5v235q0 132 128 132h91q60 0 87 -47zM417 317h98v38q0 27 -23 27h-54q-21 0 -21 -27v-38zM277 147v204
q0 26 -21 26h-46q-23 0 -23 -26v-204q0 -27 23 -27h46q21 0 21 27z" />
    <glyph glyph-name="Racute" unicode="&#x154;" horiz-adv-x="562" 
d="M409 312l125 -312h-160l-104 298h-66v-298h-148v700h319q127 0 127 -132v-128q0 -73 -29.5 -100.5t-60.5 -27.5h-3zM204 565v-137h129q22 0 22 26v85q0 26 -22 26h-129zM304 834h122l-137 -110h-99z" />
    <glyph glyph-name="racute" unicode="&#x155;" horiz-adv-x="319" 
d="M273 367h-36q-50 0 -50 -53v-314h-140v500h123v-67q12 67 83 67h63v-144q-15 11 -43 11zM229 700h132l-138 -158h-107z" />
    <glyph glyph-name="Rcommaaccent" unicode="&#x156;" horiz-adv-x="562" 
d="M409 312l125 -312h-160l-104 298h-66v-298h-148v700h319q127 0 127 -132v-128q0 -73 -29.5 -100.5t-60.5 -27.5h-3zM204 565v-137h129q22 0 22 26v85q0 26 -22 26h-129zM227 -53h119v-84l-42 -109h-105l28 110v83z" />
    <glyph glyph-name="rcommaaccent" unicode="&#x157;" horiz-adv-x="319" 
d="M273 367h-36q-50 0 -50 -53v-314h-140v500h123v-67q12 67 83 67h63v-144q-15 11 -43 11zM63 -53h119v-84l-42 -109h-105l28 110v83z" />
    <glyph glyph-name="Rcaron" unicode="&#x158;" horiz-adv-x="562" 
d="M409 312l125 -312h-160l-104 298h-66v-298h-148v700h319q127 0 127 -132v-128q0 -73 -29.5 -100.5t-60.5 -27.5h-3zM204 565v-137h129q22 0 22 26v85q0 26 -22 26h-129zM275 786l49 48h102l-98 -110h-109l-98 110h105z" />
    <glyph glyph-name="rcaron" unicode="&#x159;" horiz-adv-x="319" 
d="M273 367h-36q-50 0 -50 -53v-314h-140v500h123v-67q12 67 83 67h63v-144q-15 11 -43 11zM191 624l49 76h102l-98 -158h-109l-98 158h105z" />
    <glyph glyph-name="Sacute" unicode="&#x15a;" horiz-adv-x="479" 
d="M281 223l-172 139q-43 35 -57.5 66.5t-14.5 81.5v58q0 132 127 132h263v-146q-16 11 -49 11h-174q-19 0 -19 -26v-31q0 -17 11 -27l172 -139q44 -35 58 -66.5t14 -82.5v-61q0 -132 -127 -132h-276v146q17 -11 50 -11h183q22 0 22 26v35q0 17 -11 27zM285 834h122
l-137 -110h-99z" />
    <glyph glyph-name="sacute" unicode="&#x15b;" horiz-adv-x="412" 
d="M167 500h190v-134q-17 11 -50 11h-115q-19 0 -19 -20v-6q0 -15 17 -23l95 -38q50 -20 69 -47t19 -78v-32q0 -133 -127 -133h-207v132q17 -11 50 -11h132q18 0 18 21v9q0 17 -16 25l-88 36q-55 23 -75.5 52t-20.5 88v15q0 133 128 133zM248 700h132l-138 -158h-107z" />
    <glyph glyph-name="Scircumflex" unicode="&#x15c;" horiz-adv-x="479" 
d="M281 223l-172 139q-43 35 -57.5 66.5t-14.5 81.5v58q0 132 127 132h263v-146q-16 11 -49 11h-174q-19 0 -19 -26v-31q0 -17 11 -27l172 -139q44 -35 58 -66.5t14 -82.5v-61q0 -132 -127 -132h-276v146q17 -11 50 -11h183q22 0 22 26v35q0 17 -11 27zM246 772l-49 -48
h-102l98 110h109l98 -110h-105z" />
    <glyph glyph-name="scircumflex" unicode="&#x15d;" horiz-adv-x="412" 
d="M167 500h190v-134q-17 11 -50 11h-115q-19 0 -19 -20v-6q0 -15 17 -23l95 -38q50 -20 69 -47t19 -78v-32q0 -133 -127 -133h-207v132q17 -11 50 -11h132q18 0 18 21v9q0 17 -16 25l-88 36q-55 23 -75.5 52t-20.5 88v15q0 133 128 133zM213 618l-50 -76h-101l98 158h109
l98 -158h-105z" />
    <glyph glyph-name="Scedilla" unicode="&#x15e;" horiz-adv-x="479" 
d="M261 -30h17q75 0 75 -72v-21q0 -77 -75 -77h-155l24 69h75q26 0 26 20v4q0 12 -5.5 16t-18.5 4h-62l29 87h-154v146q17 -11 50 -11h183q22 0 22 26v35q0 17 -11 27l-172 139q-43 35 -57.5 66.5t-14.5 81.5v58q0 132 127 132h263v-146q-16 11 -49 11h-174q-19 0 -19 -26
v-31q0 -17 11 -27l172 -139q44 -35 58 -66.5t14 -82.5v-61q0 -132 -127 -132h-43z" />
    <glyph glyph-name="Scedilla" unicode="&#xf6c1;" horiz-adv-x="479" 
d="M261 -30h17q75 0 75 -72v-21q0 -77 -75 -77h-155l24 69h75q26 0 26 20v4q0 12 -5.5 16t-18.5 4h-62l29 87h-154v146q17 -11 50 -11h183q22 0 22 26v35q0 17 -11 27l-172 139q-43 35 -57.5 66.5t-14.5 81.5v58q0 132 127 132h263v-146q-16 11 -49 11h-174q-19 0 -19 -26
v-31q0 -17 11 -27l172 -139q44 -35 58 -66.5t14 -82.5v-61q0 -132 -127 -132h-43z" />
    <glyph glyph-name="scedilla" unicode="&#x15f;" horiz-adv-x="412" 
d="M229 -30h17q75 0 75 -72v-21q0 -77 -75 -77h-155l24 69h75q26 0 26 20v4q0 12 -5.5 16t-18.5 4h-62l29 87h-120v132q17 -11 50 -11h132q18 0 18 21v9q0 17 -16 25l-88 36q-55 23 -75.5 52t-20.5 88v15q0 133 128 133h190v-134q-17 11 -50 11h-115q-19 0 -19 -20v-6
q0 -15 17 -23l95 -38q50 -20 69 -47t19 -78v-32q0 -133 -127 -133h-8z" />
    <glyph glyph-name="scedilla" unicode="&#xf6c2;" horiz-adv-x="412" 
d="M229 -30h17q75 0 75 -72v-21q0 -77 -75 -77h-155l24 69h75q26 0 26 20v4q0 12 -5.5 16t-18.5 4h-62l29 87h-120v132q17 -11 50 -11h132q18 0 18 21v9q0 17 -16 25l-88 36q-55 23 -75.5 52t-20.5 88v15q0 133 128 133h190v-134q-17 11 -50 11h-115q-19 0 -19 -20v-6
q0 -15 17 -23l95 -38q50 -20 69 -47t19 -78v-32q0 -133 -127 -133h-8z" />
    <glyph glyph-name="Scaron" unicode="&#x160;" horiz-adv-x="479" 
d="M281 223l-172 139q-43 35 -57.5 66.5t-14.5 81.5v58q0 132 127 132h263v-146q-16 11 -49 11h-174q-19 0 -19 -26v-31q0 -17 11 -27l172 -139q44 -35 58 -66.5t14 -82.5v-61q0 -132 -127 -132h-276v146q17 -11 50 -11h183q22 0 22 26v35q0 17 -11 27zM249 786l49 48h102
l-98 -110h-109l-98 110h105z" />
    <glyph glyph-name="scaron" unicode="&#x161;" horiz-adv-x="412" 
d="M167 500h190v-134q-17 11 -50 11h-115q-19 0 -19 -20v-6q0 -15 17 -23l95 -38q50 -20 69 -47t19 -78v-32q0 -133 -127 -133h-207v132q17 -11 50 -11h132q18 0 18 21v9q0 17 -16 25l-88 36q-55 23 -75.5 52t-20.5 88v15q0 133 128 133zM212 624l49 76h102l-98 -158h-109
l-98 158h105z" />
    <glyph glyph-name="Tcommaaccent" unicode="&#x162;" 
d="M305 565v-565h-147v565h-106q-16 0 -30 -5v140h420v-140q-14 5 -30 5h-107zM177 -53h119v-84l-42 -109h-105l28 110v83z" />
    <glyph glyph-name="Tcommaaccent" unicode="&#x21a;" 
d="M305 565v-565h-147v565h-106q-16 0 -30 -5v140h420v-140q-14 5 -30 5h-107zM177 -53h119v-84l-42 -109h-105l28 110v83z" />
    <glyph glyph-name="tcommaaccent" unicode="&#x163;" horiz-adv-x="325" 
d="M187 155q0 -31 28 -31h41q34 0 50 11v-135h-132q-127 0 -127 132v452l140 69v-153h119v-123h-119v-222zM131 -53h119v-84l-42 -109h-105l28 110v83z" />
    <glyph glyph-name="tcommaaccent" unicode="&#x21b;" horiz-adv-x="325" 
d="M187 155q0 -31 28 -31h41q34 0 50 11v-135h-132q-127 0 -127 132v452l140 69v-153h119v-123h-119v-222zM131 -53h119v-84l-42 -109h-105l28 110v83z" />
    <glyph glyph-name="Tcaron" unicode="&#x164;" 
d="M305 565v-565h-147v565h-106q-16 0 -30 -5v140h420v-140q-14 5 -30 5h-107zM234 786l49 48h102l-98 -110h-109l-98 110h105z" />
    <glyph glyph-name="tcaron" unicode="&#x165;" horiz-adv-x="325" 
d="M187 155q0 -31 28 -31h41q34 0 50 11v-135h-132q-127 0 -127 132v452l140 69v-153h119v-123h-119v-222zM246 524l10 176h103l-32 -176h-81z" />
    <glyph glyph-name="Tbar" unicode="&#x166;" 
d="M407 228h-102v-228h-147v228h-101v115h101v222h-106q-16 0 -30 -5v140h420v-140q-14 5 -30 5h-107v-222h102v-115z" />
    <glyph glyph-name="tbar" unicode="&#x167;" horiz-adv-x="325" 
d="M187 155q0 -31 28 -31h41q34 0 50 11v-135h-132q-127 0 -127 132v85h-41v98h41v269l140 69v-153h119v-123h-119v-62h119v-98h-119v-62z" />
    <glyph glyph-name="Utilde" unicode="&#x168;" horiz-adv-x="558" 
d="M502 700v-568q0 -132 -127 -132h-192q-127 0 -127 132v568h148v-539q0 -26 21 -26h107q23 0 23 26v539h147zM198 724h-69v21q0 43 22 67t65 24q34 0 73 -18t50 -18q12 0 16.5 7t4.5 27h69v-18q0 -52 -20 -73t-65 -21q-34 0 -72.5 18.5t-49.5 18.5q-13 0 -18.5 -7.5
t-5.5 -27.5z" />
    <glyph glyph-name="utilde" unicode="&#x169;" 
d="M47 132v368h140v-353q0 -27 22 -27h68v380h140v-500h-244q-126 0 -126 132zM151 546h-69v28q0 59 22 91.5t65 32.5q34 0 73 -25t50 -25q21 0 21 47h69v-26q0 -69 -20 -97.5t-65 -28.5q-34 0 -72.5 25.5t-49.5 25.5q-13 0 -18.5 -10.5t-5.5 -37.5z" />
    <glyph glyph-name="Umacron" unicode="&#x16a;" horiz-adv-x="558" 
d="M502 700v-568q0 -132 -127 -132h-192q-127 0 -127 132v568h148v-539q0 -26 21 -26h107q23 0 23 26v539h147zM399 737h-240v85h240v-85z" />
    <glyph glyph-name="umacron" unicode="&#x16b;" 
d="M47 132v368h140v-353q0 -27 22 -27h68v380h140v-500h-244q-126 0 -126 132zM352 569h-240v95h240v-95z" />
    <glyph glyph-name="Ubreve" unicode="&#x16c;" horiz-adv-x="558" 
d="M502 700v-568q0 -132 -127 -132h-192q-127 0 -127 132v568h148v-539q0 -26 21 -26h107q23 0 23 26v539h147zM424 834v-28q0 -41 -24 -61.5t-66 -20.5h-110q-89 0 -89 80v30h97v-11q0 -25 23 -25h50q12 0 16.5 5.5t4.5 19.5v11h98z" />
    <glyph glyph-name="ubreve" unicode="&#x16d;" 
d="M47 132v368h140v-353q0 -27 22 -27h68v380h140v-500h-244q-126 0 -126 132zM377 700v-63q0 -42 -25 -67.5t-65 -25.5h-110q-42 0 -65.5 25.5t-23.5 66.5v64h97v-39q0 -26 23 -26h50q12 0 16.5 6t4.5 20v39h98z" />
    <glyph glyph-name="Uring" unicode="&#x16e;" horiz-adv-x="558" 
d="M502 700v-568q0 -132 -127 -132h-192q-127 0 -127 132v568h148v-539q0 -26 21 -26h107q23 0 23 26v539h147zM314 782q0 12 -19 12h-32q-20 0 -20 -12v-3q0 -12 20 -12h32q19 0 19 12v3zM402 765q0 -24 -21.5 -37t-58.5 -13h-86q-37 0 -58 13.5t-21 35.5v36q0 22 21 35.5
t58 13.5h86q36 0 58 -14.5t22 -36.5v-33z" />
    <glyph glyph-name="uring" unicode="&#x16f;" 
d="M47 132v368h140v-353q0 -27 22 -27h68v380h140v-500h-244q-126 0 -126 132zM267 627q0 17 -19 17h-32q-20 0 -20 -17v-12q0 -17 20 -17h32q19 0 19 17v12zM355 601q0 -33 -21.5 -50t-58.5 -17h-86q-79 0 -79 66v49q0 30 20.5 47.5t58.5 17.5h86q36 0 58 -18t22 -49v-46z
" />
    <glyph glyph-name="Uhungarumlaut" unicode="&#x170;" horiz-adv-x="558" 
d="M502 700v-568q0 -132 -127 -132h-192q-127 0 -127 132v568h148v-539q0 -26 21 -26h107q23 0 23 26v539h147zM242 834h105l-112 -110h-86zM397 834h105l-111 -110h-86z" />
    <glyph glyph-name="uhungarumlaut" unicode="&#x171;" 
d="M47 132v368h140v-353q0 -27 22 -27h68v380h140v-500h-244q-126 0 -126 132zM186 700h105l-112 -158h-86zM341 700h105l-111 -158h-86z" />
    <glyph glyph-name="Uogonek" unicode="&#x172;" horiz-adv-x="558" 
d="M502 700v-568q0 -129 -122 -132q-56 -24 -85 -47.5t-29 -37.5v-9q0 -22 25 -22h94v-84h-150q-40 0 -57.5 15.5t-17.5 51.5v20q0 62 130 113h-107q-127 0 -127 132v568h148v-539q0 -26 21 -26h107q23 0 23 26v539h147z" />
    <glyph glyph-name="uogonek" unicode="&#x173;" 
d="M47 132v368h140v-353q0 -27 22 -27h68v380h140v-500h-10q-56 -24 -85.5 -47.5t-29.5 -37.5v-9q0 -22 25 -22h94v-84h-150q-40 0 -57.5 15.5t-17.5 51.5v20q0 61 131 113h-144q-126 0 -126 132z" />
    <glyph glyph-name="Wcircumflex" unicode="&#x174;" horiz-adv-x="756" 
d="M378 426l-68 -426h-171l-142 700h155l81 -488l79 488h139l79 -488l82 488h147l-144 -700h-170zM377 772l-49 -48h-102l98 110h109l98 -110h-105z" />
    <glyph glyph-name="wcircumflex" unicode="&#x175;" horiz-adv-x="683" 
d="M420 500l53 -347l58 347h153l-131 -500h-165l-46 303l-47 -303h-165l-130 500h159l59 -347l53 347h149zM341 618l-50 -76h-101l98 158h109l98 -158h-105z" />
    <glyph glyph-name="Ycircumflex" unicode="&#x176;" horiz-adv-x="516" 
d="M336 287v-287h-148v287l-201 413h177l99 -254l97 254h169zM257 772l-49 -48h-102l98 110h109l98 -110h-105z" />
    <glyph glyph-name="ycircumflex" unicode="&#x177;" horiz-adv-x="430" 
d="M239 -200h-160l68 200h-16l-133 500h159l61 -357l63 357h153zM215 618l-50 -76h-101l98 158h109l98 -158h-105z" />
    <glyph glyph-name="Ydieresis" unicode="&#x178;" horiz-adv-x="516" 
d="M336 287v-287h-148v287l-201 413h177l99 -254l97 254h169zM112 829h106v-100h-106v100zM299 829h106v-100h-106v100z" />
    <glyph glyph-name="Zacute" unicode="&#x179;" horiz-adv-x="482" 
d="M34 0v50l225 515h-185q-19 0 -32 -5v140h415v-44l-230 -529h197q20 0 32 5v-132h-422zM283 834h122l-137 -110h-99z" />
    <glyph glyph-name="zacute" unicode="&#x17a;" horiz-adv-x="420" 
d="M24 0v51l183 328h-143q-20 0 -32 -5v126h364v-43l-184 -336h144q20 0 32 5v-126h-364zM248 700h132l-138 -158h-107z" />
    <glyph glyph-name="Zdotaccent" unicode="&#x17b;" horiz-adv-x="482" 
d="M34 0v50l225 515h-185q-19 0 -32 -5v140h415v-44l-230 -529h197q20 0 32 5v-132h-422zM191 828h123v-101h-123v101z" />
    <glyph glyph-name="zdotaccent" unicode="&#x17c;" horiz-adv-x="420" 
d="M24 0v51l183 328h-143q-20 0 -32 -5v126h364v-43l-184 -336h144q20 0 32 5v-126h-364zM140 688h141v-144h-141v144z" />
    <glyph glyph-name="Zcaron" unicode="&#x17d;" horiz-adv-x="482" 
d="M34 0v50l225 515h-185q-19 0 -32 -5v140h415v-44l-230 -529h197q20 0 32 5v-132h-422zM259 786l49 48h102l-98 -110h-109l-98 110h105z" />
    <glyph glyph-name="zcaron" unicode="&#x17e;" horiz-adv-x="420" 
d="M24 0v51l183 328h-143q-20 0 -32 -5v126h364v-43l-184 -336h144q20 0 32 5v-126h-364zM223 624l49 76h102l-98 -158h-109l-98 158h105z" />
    <glyph glyph-name="florin" unicode="&#x192;" horiz-adv-x="325" 
d="M205 377v-445q0 -132 -128 -132h-133v134q16 -11 50 -11h43q27 0 27 31v614q0 132 129 132h132v-134q-16 11 -50 11h-43q-27 0 -27 -31v-46h120v-123h-120z" />
    <glyph glyph-name="Scommaaccent" unicode="&#x218;" horiz-adv-x="479" 
d="M281 223l-172 139q-43 35 -57.5 66.5t-14.5 81.5v58q0 132 127 132h263v-146q-16 11 -49 11h-174q-19 0 -19 -26v-31q0 -17 11 -27l172 -139q44 -35 58 -66.5t14 -82.5v-61q0 -132 -127 -132h-276v146q17 -11 50 -11h183q22 0 22 26v35q0 17 -11 27zM182 -53h119v-84
l-42 -109h-105l28 110v83z" />
    <glyph glyph-name="scommaaccent" unicode="&#x219;" horiz-adv-x="412" 
d="M167 500h190v-134q-17 11 -50 11h-115q-19 0 -19 -20v-6q0 -15 17 -23l95 -38q50 -20 69 -47t19 -78v-32q0 -133 -127 -133h-207v132q17 -11 50 -11h132q18 0 18 21v9q0 17 -16 25l-88 36q-55 23 -75.5 52t-20.5 88v15q0 133 128 133zM153 -53h119v-84l-42 -109h-105
l28 110v83z" />
    <glyph glyph-name="circumflex" unicode="&#x2c6;" 
d="M231 618l-50 -76h-101l98 158h109l98 -158h-105z" />
    <glyph glyph-name="caron" unicode="&#x2c7;" 
d="M234 624l49 76h102l-98 -158h-109l-98 158h105z" />
    <glyph glyph-name="breve" unicode="&#x2d8;" horiz-adv-x="448" 
d="M369 700v-63q0 -42 -25 -67.5t-65 -25.5h-110q-42 0 -65.5 25.5t-23.5 66.5v64h97v-39q0 -26 23 -26h50q12 0 16.5 6t4.5 20v39h98z" />
    <glyph glyph-name="dotaccent" unicode="&#x2d9;" horiz-adv-x="233" 
d="M46 688h141v-144h-141v144z" />
    <glyph glyph-name="ring" unicode="&#x2da;" horiz-adv-x="404" 
d="M237 627q0 17 -19 17h-32q-20 0 -20 -17v-12q0 -17 20 -17h32q19 0 19 17v12zM325 601q0 -33 -21.5 -50t-58.5 -17h-86q-79 0 -79 66v49q0 30 20.5 47.5t58.5 17.5h86q36 0 58 -18t22 -49v-46z" />
    <glyph glyph-name="ogonek" unicode="&#x2db;" horiz-adv-x="390" 
d="M310 0q-58 -25 -91 -48.5t-33 -36.5v-9q0 -22 25 -22h94v-84h-150q-40 0 -57.5 15.5t-17.5 51.5v20q0 58 140 113h90z" />
    <glyph glyph-name="tilde" unicode="&#x2dc;" horiz-adv-x="460" 
d="M149 546h-69v28q0 59 22 91.5t65 32.5q34 0 73 -25t50 -25q21 0 21 47h69v-26q0 -69 -20 -97.5t-65 -28.5q-34 0 -72.5 25.5t-49.5 25.5q-13 0 -18.5 -10.5t-5.5 -37.5z" />
    <glyph glyph-name="hungarumlaut" unicode="&#x2dd;" horiz-adv-x="512" 
d="M173 700h105l-112 -158h-86zM328 700h105l-111 -158h-86z" />
    <glyph glyph-name="Delta" unicode="&#x394;" horiz-adv-x="502" 
d="M499 0h-496l215 700h71zM325 151l-73 244l-74 -244h147z" />
    <glyph glyph-name="Delta" unicode="&#x2206;" horiz-adv-x="502" 
d="M499 0h-496l215 700h71zM325 151l-73 244l-74 -244h147z" />
    <glyph glyph-name="Omega" unicode="&#x3a9;" horiz-adv-x="532" 
d="M382 115h104v-115h-198v315h36q22 0 22 26v210q0 26 -22 26h-115q-13 0 -17.5 -6t-4.5 -20v-210q0 -26 22 -26h38v-315h-201v115h104v88h-12q-39 0 -65.5 30t-26.5 94v240q0 133 128 133h185q127 0 127 -132v-241q0 -64 -28 -94t-65 -30h-11v-88z" />
    <glyph glyph-name="Omega" unicode="&#x2126;" horiz-adv-x="532" 
d="M382 115h104v-115h-198v315h36q22 0 22 26v210q0 26 -22 26h-115q-13 0 -17.5 -6t-4.5 -20v-210q0 -26 22 -26h38v-315h-201v115h104v88h-12q-39 0 -65.5 30t-26.5 94v240q0 133 128 133h185q127 0 127 -132v-241q0 -64 -28 -94t-65 -30h-11v-88z" />
    <glyph glyph-name="pi" unicode="&#x3c0;" horiz-adv-x="529" 
d="M445 346v-346h-134v335q-15 2 -41 16t-38 16v-367h-120v404q-17 -4 -23.5 -19t-6.5 -52h-62v36q0 77 40 115.5t100 38.5q41 0 90.5 -19.5t89 -38.5t55.5 -19q22 0 29.5 13t7.5 59h76v-34q0 -47 -17 -84.5t-46 -53.5z" />
    <glyph glyph-name="endash" unicode="&#x2013;" horiz-adv-x="483" 
d="M422 228h-360v115h360v-115z" />
    <glyph glyph-name="emdash" unicode="&#x2014;" horiz-adv-x="729" 
d="M662 228h-594v115h594v-115z" />
    <glyph glyph-name="quoteleft" unicode="&#x2018;" horiz-adv-x="222" 
d="M168 482h-126v99l45 142h110l-29 -144v-97z" />
    <glyph glyph-name="quoteright" unicode="&#x2019;" horiz-adv-x="222" 
d="M54 700h126v-98l-45 -143h-110l29 144v97z" />
    <glyph glyph-name="quotesinglbase" unicode="&#x201a;" horiz-adv-x="222" 
d="M54 102h126v-98l-45 -143h-110l29 145v96z" />
    <glyph glyph-name="quotedblleft" unicode="&#x201c;" horiz-adv-x="430" 
d="M377 482h-125v99l44 142h110l-29 -144v-97zM168 482h-126v99l45 142h110l-29 -144v-97z" />
    <glyph glyph-name="quotedblright" unicode="&#x201d;" horiz-adv-x="430" 
d="M54 700h126v-98l-45 -143h-110l29 144v97zM264 700h125v-98l-44 -143h-110l29 144v97z" />
    <glyph glyph-name="quotedblbase" unicode="&#x201e;" horiz-adv-x="430" 
d="M54 102h126v-98l-45 -143h-110l29 145v96zM264 102h125v-98l-44 -143h-110l29 145v96z" />
    <glyph glyph-name="dagger" unicode="&#x2020;" horiz-adv-x="543" 
d="M341 378v-378h-138v378h-183v122h183v200h138v-200h182v-122h-182z" />
    <glyph glyph-name="daggerdbl" unicode="&#x2021;" horiz-adv-x="730" 
d="M194 700h143v-178q0 -145 -131 -145h-206v124h171q23 0 23 26v173zM337 0h-143v172q0 26 -23 26h-171v124h197q77 0 108.5 -38t31.5 -107v-177zM392 700h143v-173q0 -26 23 -26h172v-124h-198q-140 0 -140 145v178zM535 0h-143v177q0 145 131 145h207v-124h-172
q-23 0 -23 -26v-172z" />
    <glyph glyph-name="bullet" unicode="&#x2022;" horiz-adv-x="426" 
d="M371 161q0 -130 -124 -130h-69q-123 0 -123 130v183q0 130 124 130h68q124 0 124 -130v-183z" />
    <glyph glyph-name="ellipsis" unicode="&#x2026;" horiz-adv-x="781" 
d="M42 0v144h142v-144h-142zM321 0v144h142v-144h-142zM599 0v144h142v-144h-142z" />
    <glyph glyph-name="perthousand" unicode="&#x2030;" horiz-adv-x="997" 
d="M450 700h138l-328 -700h-138zM185 469v105q0 24 -18 24h-12q-19 0 -19 -24v-105q0 -23 19 -23h12q18 0 18 23zM35 454v138q0 108 108 108h39q54 0 79 -30.5t25 -77.5v-137q0 -113 -111 -113h-41q-99 0 -99 112zM573 127v105q0 24 -18 24h-12q-19 0 -19 -24v-105
q0 -23 19 -23h12q18 0 18 23zM423 112v138q0 108 108 108h39q54 0 79 -30.5t25 -77.5v-137q0 -113 -111 -113h-41q-99 0 -99 112zM863 127v105q0 24 -18 24h-12q-19 0 -19 -24v-105q0 -23 19 -23h12q18 0 18 23zM713 112v138q0 108 108 108h39q54 0 79 -30.5t25 -77.5v-137
q0 -113 -111 -113h-41q-99 0 -99 112z" />
    <glyph glyph-name="guilsinglleft" unicode="&#x2039;" horiz-adv-x="367" 
d="M183 298l145 -120v-148l-288 207v114l288 205v-137z" />
    <glyph glyph-name="guilsinglright" unicode="&#x203a;" horiz-adv-x="367" 
d="M328 236l-288 -205v137l144 121l-144 120v148l288 -207v-114z" />
    <glyph glyph-name="fraction" unicode="&#x2044;" horiz-adv-x="490" 
d="M330 700h148l-316 -700h-148z" />
    <glyph glyph-name="fraction" unicode="&#x2215;" horiz-adv-x="490" 
d="M330 700h148l-316 -700h-148z" />
    <glyph glyph-name="Euro" unicode="&#x20ac;" horiz-adv-x="458" 
d="M204 396v-77h133v-80h-133v-76q0 -16 5.5 -22t19.5 -6h173q34 0 49 11v-146h-267q-128 0 -128 135v104h-24v80h24v77h-24v81h24v91q0 132 128 132h267v-146q-15 11 -49 11h-173q-15 0 -20 -6.5t-5 -21.5v-60h133v-81h-133z" />
    <glyph glyph-name="trademark" unicode="&#x2122;" horiz-adv-x="563" 
d="M121 532q0 -15 14 -15h16q18 0 25 6v-73h-86q-45 0 -45 49v243l76 34v-76h55v-67h-55v-101zM518 651v-201h-76v170q0 13 -11 13h-16q-11 0 -11 -13v-170h-76v170q0 13 -11 13h-29v-183h-76v250h108q41 0 46 -46q3 46 51 46h55q46 0 46 -49z" />
    <glyph glyph-name="partialdiff" unicode="&#x2202;" horiz-adv-x="527" 
d="M320 305h-91q-21 0 -21 -27v-117q0 -26 22 -26h68q22 0 22 26v144zM236 700l189 -200q23 -25 32.5 -55t9.5 -84v-229q0 -132 -126 -132h-154q-126 0 -126 132v163q0 133 126 133h133l-250 272h166z" />
    <glyph glyph-name="product" unicode="&#x220f;" horiz-adv-x="558" 
d="M355 578h-151v-578h-148v700h446v-700h-147v578z" />
    <glyph glyph-name="summation" unicode="&#x2211;" horiz-adv-x="482" 
d="M326 353l-99 -226h197q20 0 32 5v-132h-422v50l131 303l-131 303v44h416v-140q-12 5 -32 5h-186z" />
    <glyph glyph-name="radical" unicode="&#x221a;" horiz-adv-x="719" 
d="M324 173l219 527h148l-316 -700h-184v384h-125v116h258v-327z" />
    <glyph glyph-name="infinity" unicode="&#x221e;" horiz-adv-x="723" 
d="M369 434q1 61 31 87t87 26h66q120 0 120 -115v-140q0 -115 -120 -115h-66q-57 0 -87 26t-31 87q-2 -61 -32.5 -87t-88.5 -26h-66q-120 0 -120 115v140q0 115 120 115h66q58 0 88.5 -26t32.5 -87zM176 397v-70q0 -20 25 -20h85q26 0 26 21v68q0 20 -26 20h-85
q-25 0 -25 -19zM559 397q0 19 -25 19h-85q-26 0 -26 -20v-68q0 -21 26 -21h85q25 0 25 20v70z" />
    <glyph glyph-name="integral" unicode="&#x222b;" horiz-adv-x="319" 
d="M226 -68q0 -132 -128 -132h-133v134q16 -11 50 -11h43q27 0 27 31v614q0 132 129 132h132v-134q-16 11 -50 11h-43q-27 0 -27 -31v-614z" />
    <glyph glyph-name="approxequal" unicode="&#x2248;" horiz-adv-x="462" 
d="M131 343h-81v29q0 65 30 105t76 40q34 0 63 -16.5t50 -32.5t35 -16q18 0 24 11t6 50h81v-48q0 -64 -29 -95t-77 -31q-32 0 -60.5 16.5t-50 32.5t-37.5 16q-17 0 -23.5 -11.5t-6.5 -49.5zM131 120h-81v28q0 66 30 106t76 40q34 0 63 -16.5t50 -33t35 -16.5q18 0 24 11.5
t6 50.5h81v-49q0 -64 -29 -94.5t-77 -30.5q-32 0 -60.5 16t-50 32.5t-37.5 16.5q-17 0 -23.5 -11.5t-6.5 -49.5z" />
    <glyph glyph-name="notequal" unicode="&#x2260;" horiz-adv-x="483" 
d="M319 357l-62 -116h165v-115h-224l-48 -89h-89l48 89h-47v115h107l61 116h-168v115h229l45 86h88l-46 -86h44v-115h-103z" />
    <glyph glyph-name="lessequal" unicode="&#x2264;" horiz-adv-x="483" 
d="M422 0h-360v116h360v-116zM228 377l194 -115v-118l-360 181v97l360 180v-109z" />
    <glyph glyph-name="greaterequal" unicode="&#x2265;" horiz-adv-x="483" 
d="M62 0v116h360v-116h-360zM256 370l-194 114v118l360 -181v-96l-360 -180v109z" />
    <glyph glyph-name="lozenge" unicode="&#x25ca;" horiz-adv-x="502" 
d="M483 253l-188 -453h-93l-181 447l187 453h94zM330 253l-75 183l-80 -188l75 -184z" />
    <glyph glyph-name="commaaccent" unicode="&#xf6c3;" horiz-adv-x="231" 
d="M63 -53h119v-84l-42 -109h-105l28 110v83z" />
    <glyph glyph-name="Acute" unicode="&#xf6c9;" horiz-adv-x="477" 
d="M288 834h122l-137 -110h-99z" />
    <glyph glyph-name="Caron" unicode="&#xf6ca;" 
d="M234 786l49 48h102l-98 -110h-109l-98 110h105z" />
    <glyph glyph-name="Dieresis" unicode="&#xf6cb;" horiz-adv-x="443" 
d="M76 829h106v-100h-106v100zM263 829h106v-100h-106v100z" />
    <glyph glyph-name="Grave" unicode="&#xf6ce;" horiz-adv-x="403" 
d="M212 834l113 -110h-108l-137 110h132z" />
    <glyph glyph-name="Hungarumlaut" unicode="&#xf6cf;" horiz-adv-x="512" 
d="M173 834h105l-112 -110h-86zM328 834h105l-111 -110h-86z" />
    <glyph glyph-name="Macron" unicode="&#xf6d0;" horiz-adv-x="399" 
d="M320 737h-240v85h240v-85z" />
    <glyph glyph-name="Lslashsmall" unicode="&#xf6f9;" horiz-adv-x="347" 
d="M20 149v93l27 25v233h140v-125l68 60v-92l-68 -61v-162h108q33 0 50 11v-131h-298v175z" />
    <glyph glyph-name="OEsmall" unicode="&#xf6fa;" horiz-adv-x="660" 
d="M562 377h-118q-27 0 -27 -31v-36h194v-109h-194v-50q0 -31 27 -31h118q35 0 49 10v-130h-191q-47 0 -73 24q-32 -24 -74 -24h-94q-74 0 -103 34.5t-29 103.5v221q0 69 30.5 105t102.5 36h93q46 0 74 -28q28 28 74 28h190v-134q-15 11 -49 11zM278 145v206q0 26 -22 26
h-47q-23 0 -23 -26v-206q0 -25 22 -25h47q23 0 23 25z" />
    <glyph glyph-name="Scaronsmall" unicode="&#xf6fd;" horiz-adv-x="412" 
d="M167 500h190v-134q-17 11 -50 11h-115q-19 0 -19 -20v-6q0 -15 17 -23l95 -38q50 -20 69 -47t19 -78v-32q0 -133 -127 -133h-207v132q17 -11 50 -11h132q18 0 18 21v9q0 17 -16 25l-88 36q-55 23 -75.5 52t-20.5 88v15q0 133 128 133zM213 624l49 76h102l-98 -158h-109
l-98 158h105z" />
    <glyph glyph-name="Zcaronsmall" unicode="&#xf6ff;" horiz-adv-x="420" 
d="M24 0v50l184 330h-144q-20 0 -32 -5v125h364v-43l-185 -337h145q20 0 32 5v-125h-364zM220 624l49 76h102l-98 -158h-109l-98 158h105z" />
    <glyph glyph-name="exclamsmall" unicode="&#xf721;" horiz-adv-x="227" 
d="M44 188l-3 312h146l-3 -312h-140zM44 0v142h140v-142h-140z" />
    <glyph glyph-name="ampersandsmall" unicode="&#xf726;" horiz-adv-x="654" 
d="M364 201h-147q-21 0 -21 -25v-31q0 -26 22 -26h65q17 0 29 5v-124h-123q-74 0 -103 30t-29 96v20q0 50 32.5 79t93.5 29q-63 2 -94.5 25.5t-31.5 81.5v22q0 117 126 117h321v-128q-14 5 -30 5h-257q-21 0 -21 -25v-17q0 -25 21 -25h382v-109h-95v-55q0 -27 23 -27h22
q33 0 50 11v-130h-109q-70 0 -98 37.5t-28 104.5v59z" />
    <glyph glyph-name="questionsmall" unicode="&#xf73f;" horiz-adv-x="425" 
d="M127 146l-3 57q0 21 9.5 35.5t37.5 32.5l62 42q14 10 14 35v13q0 21 -20 21h-135q-34 0 -49 -10v128h235q108 0 108 -117v-18q0 -64 -42 -97l-68 -53q-4 -3 -6.5 -8t-4 -10t-2.5 -13.5t-1 -12.5t-0.5 -13.5t-0.5 -11.5h-134zM124 0v100h141v-100h-141z" />
    <glyph glyph-name="Asmall" unicode="&#xf761;" horiz-adv-x="463" 
d="M172 313h104v41q0 26 -23 26h-137q-36 0 -49 -11v131h220q71 0 99.5 -37t28.5 -102v-361h-235q-74 0 -104.5 35t-30.5 104v44q0 130 127 130zM209 213q-25 0 -25 -35v-32q0 -28 24 -28h68v95h-67z" />
    <glyph glyph-name="Bsmall" unicode="&#xf762;" horiz-adv-x="456" 
d="M417 151v-21q0 -65 -29 -97.5t-98 -32.5h-243v500h243q68 0 97.5 -32t29.5 -94v-18q0 -49 -28.5 -74.5t-95.5 -27.5q124 -5 124 -103zM255 201h-69v-82h70q22 0 22 26v27q0 29 -23 29zM186 378v-68h69q23 0 23 26v15q0 27 -22 27h-70z" />
    <glyph glyph-name="Csmall" unicode="&#xf763;" horiz-adv-x="375" 
d="M297 377h-83q-28 0 -28 -31v-195q0 -31 28 -31h83q35 0 50 10v-130h-167q-74 0 -103.5 34.5t-29.5 103.5v223q0 68 30.5 103.5t102.5 35.5h167v-134q-16 11 -50 11z" />
    <glyph glyph-name="Dsmall" unicode="&#xf764;" 
d="M186 378v-259h70q22 0 22 26v206q0 27 -22 27h-70zM47 500h243q127 0 127 -132v-237q0 -131 -127 -131h-243v500z" />
    <glyph glyph-name="Esmall" unicode="&#xf765;" horiz-adv-x="421" 
d="M331 377h-117q-28 0 -28 -31v-36h195v-109h-195v-50q0 -31 28 -31h117q35 0 50 10v-130h-201q-74 0 -103.5 34.5t-29.5 103.5v223q0 68 30.5 103.5t102.5 35.5h201v-134q-17 11 -50 11z" />
    <glyph glyph-name="Fsmall" unicode="&#xf766;" horiz-adv-x="359" 
d="M214 378q-28 0 -28 -32v-49h155v-122h-155v-175h-139v359q0 141 128 141h166v-133q-16 11 -50 11h-77z" />
    <glyph glyph-name="Gsmall" unicode="&#xf767;" 
d="M278 296v82h-69q-14 0 -18.5 -8.5t-4.5 -27.5v-11q0 -20 4.5 -27.5t18.5 -7.5h69zM278 145v31h-97q-74 0 -104 35t-30 106v43q0 67 28.5 103.5t98.5 36.5h243v-361q0 -139 -127 -139h-239v130q15 -11 50 -11h149q15 0 21.5 5.5t6.5 20.5z" />
    <glyph glyph-name="Hsmall" unicode="&#xf768;" 
d="M278 500h139v-500h-139v213h-92v-213h-139v500h139v-170h92v170z" />
    <glyph glyph-name="Ismall" unicode="&#xf769;" horiz-adv-x="234" 
d="M47 500h140v-500h-140v500z" />
    <glyph glyph-name="Jsmall" unicode="&#xf76a;" horiz-adv-x="349" 
d="M162 146v354h139v-360q0 -72 -30.5 -106t-104.5 -34h-164v130q14 -10 49 -10h84q15 0 21 5.5t6 20.5z" />
    <glyph glyph-name="Ksmall" unicode="&#xf76b;" horiz-adv-x="468" 
d="M219 330q21 0 28 21l49 149h145l-64 -178q-13 -34 -36 -44q22 -13 34 -46l81 -232h-159l-49 190q-7 23 -28 23h-34v-213h-139v500h139v-170h33z" />
    <glyph glyph-name="Lsmall" unicode="&#xf76c;" horiz-adv-x="347" 
d="M344 130v-130h-297v500h139v-380h109q35 0 49 10z" />
    <glyph glyph-name="Msmall" unicode="&#xf76d;" horiz-adv-x="678" 
d="M630 369v-369h-139v351q0 27 -22 27h-37q-22 0 -22 -27v-351h-139v351q0 27 -22 27h-63v-378h-139v500h158q74 0 104.5 -21t35.5 -70q5 43 31.5 67t71.5 24h46q66 0 101 -34t35 -97z" />
    <glyph glyph-name="Nsmall" unicode="&#xf76e;" 
d="M417 367v-367h-139v351q0 27 -22 27h-70v-378h-139v500h243q127 0 127 -133z" />
    <glyph glyph-name="Osmall" unicode="&#xf76f;" 
d="M278 146v206q0 26 -22 26h-47q-22 0 -22 -26v-206q0 -27 21 -27h47q23 0 23 27zM47 132v236q0 132 127 132h116q127 0 127 -132v-236q0 -132 -127 -132h-117q-126 0 -126 132z" />
    <glyph glyph-name="Psmall" unicode="&#xf770;" horiz-adv-x="441" 
d="M186 269h70q22 0 22 27v55q0 27 -22 27h-70v-109zM47 500h243q127 0 127 -141v-77q0 -132 -133 -132h-98v-150h-139v500z" />
    <glyph glyph-name="Qsmall" unicode="&#xf771;" horiz-adv-x="441" 
d="M184 269h70v109h-70q-21 0 -21 -27v-55q0 -27 21 -27zM150 500h243v-500h-139v150h-96q-135 0 -135 132v77q0 141 127 141z" />
    <glyph glyph-name="Rsmall" unicode="&#xf772;" horiz-adv-x="362" 
d="M317 368h-81q-49 0 -49 -53v-315h-140v500h122v-66q14 66 82 66h109v-143q-15 11 -43 11z" />
    <glyph glyph-name="Ssmall" unicode="&#xf773;" horiz-adv-x="412" 
d="M167 500h190v-134q-17 11 -50 11h-115q-19 0 -19 -20v-6q0 -15 17 -23l95 -38q50 -20 69 -47t19 -78v-32q0 -133 -127 -133h-207v132q17 -11 50 -11h132q18 0 18 21v9q0 17 -16 25l-88 36q-55 23 -75.5 52t-20.5 88v15q0 133 128 133z" />
    <glyph glyph-name="Tsmall" unicode="&#xf774;" horiz-adv-x="410" 
d="M240 154q0 -31 27 -31h70q32 0 50 12v-135h-160q-126 0 -126 132v246h-97v122h383v-122h-147v-224z" />
    <glyph glyph-name="Usmall" unicode="&#xf775;" 
d="M47 131v369h139v-355q0 -26 22 -26h70v381h139v-500h-245q-125 0 -125 131z" />
    <glyph glyph-name="Vsmall" unicode="&#xf776;" horiz-adv-x="430" 
d="M298 0h-167q-57 211 -133 500h157q11 -63 33 -181t31 -169q11 62 32 179.5t30 170.5h152q-22 -83 -67 -250t-68 -250z" />
    <glyph glyph-name="Wsmall" unicode="&#xf777;" horiz-adv-x="683" 
d="M271 500h147l54 -349l59 349h151l-131 -500h-163l-47 305l-48 -305h-163l-130 500h158l59 -349z" />
    <glyph glyph-name="Xsmall" unicode="&#xf778;" horiz-adv-x="443" 
d="M303 253l136 -253h-161l-59 138l-60 -138h-155l137 247l-137 253h161l59 -140l60 140h155z" />
    <glyph glyph-name="Ysmall" unicode="&#xf779;" 
d="M278 296v204h139v-368q0 -132 -127 -132h-238v130q15 -11 49 -11h149q15 0 21.5 6t6.5 21v31h-105q-126 0 -126 132v191h140v-177q0 -15 4.5 -21t17.5 -6h69z" />
    <glyph glyph-name="Zsmall" unicode="&#xf77a;" horiz-adv-x="420" 
d="M24 0v50l184 330h-144q-20 0 -32 -5v125h364v-43l-185 -337h145q20 0 32 5v-125h-364z" />
    <glyph glyph-name="exclamdownsmall" unicode="&#xf7a1;" horiz-adv-x="228" 
d="M183 312l3 -312h-145l3 312h139zM184 500v-143h-141v143h141z" />
    <glyph glyph-name="questiondownsmall" unicode="&#xf7bf;" horiz-adv-x="425" 
d="M297 353l2 -56q1 -21 -8.5 -33.5t-38.5 -33.5q-3 -2 -18 -12.5t-21.5 -15.5t-16.5 -14t-14.5 -17.5t-4.5 -16.5v-16q0 -21 19 -21h135q35 0 50 10v-127h-241q-103 0 -103 116q0 48 5.5 67t26.5 36l78 65q7 6 10 17t3.5 28t1.5 24h135zM300 500v-101h-141v101h141z" />
    <glyph glyph-name="Agravesmall" unicode="&#xf7e0;" horiz-adv-x="463" 
d="M172 313h104v41q0 26 -23 26h-137q-36 0 -49 -11v131h220q71 0 99.5 -37t28.5 -102v-361h-235q-74 0 -104.5 35t-30.5 104v44q0 130 127 130zM209 213q-25 0 -25 -35v-32q0 -28 24 -28h68v95h-67zM214 700l113 -158h-108l-137 158h132z" />
    <glyph glyph-name="Aacutesmall" unicode="&#xf7e1;" horiz-adv-x="463" 
d="M172 313h104v41q0 26 -23 26h-137q-36 0 -49 -11v131h220q71 0 99.5 -37t28.5 -102v-361h-235q-74 0 -104.5 35t-30.5 104v44q0 130 127 130zM209 213q-25 0 -25 -35v-32q0 -28 24 -28h68v95h-67zM250 700h132l-138 -158h-107z" />
    <glyph glyph-name="Acircumflexsmall" unicode="&#xf7e2;" horiz-adv-x="463" 
d="M172 313h104v41q0 26 -23 26h-137q-36 0 -49 -11v131h220q71 0 99.5 -37t28.5 -102v-361h-235q-74 0 -104.5 35t-30.5 104v44q0 130 127 130zM209 213q-25 0 -25 -35v-32q0 -28 24 -28h68v95h-67zM239 618l-50 -76h-101l98 158h109l98 -158h-105z" />
    <glyph glyph-name="Atildesmall" unicode="&#xf7e3;" horiz-adv-x="463" 
d="M172 313h104v41q0 26 -23 26h-137q-36 0 -49 -11v131h220q71 0 99.5 -37t28.5 -102v-361h-235q-74 0 -104.5 35t-30.5 104v44q0 130 127 130zM209 213q-25 0 -25 -35v-32q0 -28 24 -28h68v95h-67zM148 546h-69v28q0 59 22 91.5t65 32.5q34 0 73 -25t50 -25q21 0 21 47h69
v-26q0 -69 -20 -97.5t-65 -28.5q-34 0 -72.5 25.5t-49.5 25.5q-14 0 -19 -10.5t-5 -37.5z" />
    <glyph glyph-name="Adieresissmall" unicode="&#xf7e4;" horiz-adv-x="463" 
d="M172 313h104v41q0 26 -23 26h-137q-36 0 -49 -11v131h220q71 0 99.5 -37t28.5 -102v-361h-235q-74 0 -104.5 35t-30.5 104v44q0 130 127 130zM209 213q-25 0 -25 -35v-32q0 -28 24 -28h68v95h-67zM88 684h106v-129h-106v129zM275 684h106v-129h-106v129z" />
    <glyph glyph-name="Aringsmall" unicode="&#xf7e5;" horiz-adv-x="463" 
d="M172 313h104v41q0 26 -23 26h-137q-36 0 -49 -11v131h220q71 0 99.5 -37t28.5 -102v-361h-235q-74 0 -104.5 35t-30.5 104v44q0 130 127 130zM209 213q-25 0 -25 -35v-32q0 -28 24 -28h68v95h-67zM269 627q0 17 -19 17h-32q-20 0 -20 -17v-12q0 -17 20 -17h32q19 0 19 17
v12zM357 601q0 -33 -21.5 -50t-58.5 -17h-86q-79 0 -79 66v49q0 30 20.5 47.5t58.5 17.5h86q36 0 58 -18t22 -49v-46z" />
    <glyph glyph-name="AEsmall" unicode="&#xf7e6;" horiz-adv-x="658" 
d="M428 500h182v-134q-16 11 -50 11h-118q-27 0 -27 -31v-36h195v-109h-195v-50q0 -31 27 -31h118q35 0 50 10v-130h-183q-55 0 -81 26q-28 -26 -83 -26h-85q-75 0 -104 36.5t-29 106.5v34q0 70 32.5 103t108.5 33h90v41q0 26 -23 26h-137q-36 0 -49 -11v131h195
q54 0 85 -28q26 28 81 28zM276 146v67h-67q-25 0 -25 -28v-39q0 -28 24 -28h44q24 0 24 28z" />
    <glyph glyph-name="Ccedillasmall" unicode="&#xf7e7;" horiz-adv-x="375" 
d="M297 377h-83q-28 0 -28 -31v-195q0 -31 28 -31h83q35 0 50 10v-130h-167q-74 0 -103.5 34.5t-29.5 103.5v223q0 68 30.5 103.5t102.5 35.5h167v-134q-16 11 -50 11zM254 -30h17q75 0 75 -72v-21q0 -77 -75 -77h-155l24 69h75q26 0 26 20v4q0 12 -5.5 16t-18.5 4h-62
l32 94h79z" />
    <glyph glyph-name="Egravesmall" unicode="&#xf7e8;" horiz-adv-x="421" 
d="M331 377h-117q-28 0 -28 -31v-36h195v-109h-195v-50q0 -31 28 -31h117q35 0 50 10v-130h-201q-74 0 -103.5 34.5t-29.5 103.5v223q0 68 30.5 103.5t102.5 35.5h201v-134q-17 11 -50 11zM212 700l113 -158h-108l-137 158h132z" />
    <glyph glyph-name="Eacutesmall" unicode="&#xf7e9;" horiz-adv-x="421" 
d="M331 377h-117q-28 0 -28 -31v-36h195v-109h-195v-50q0 -31 28 -31h117q35 0 50 10v-130h-201q-74 0 -103.5 34.5t-29.5 103.5v223q0 68 30.5 103.5t102.5 35.5h201v-134q-17 11 -50 11zM255 700h132l-138 -158h-107z" />
    <glyph glyph-name="Ecircumflexsmall" unicode="&#xf7ea;" horiz-adv-x="421" 
d="M331 377h-117q-28 0 -28 -31v-36h195v-109h-195v-50q0 -31 28 -31h117q35 0 50 10v-130h-201q-74 0 -103.5 34.5t-29.5 103.5v223q0 68 30.5 103.5t102.5 35.5h201v-134q-17 11 -50 11zM233 618l-50 -76h-101l98 158h109l98 -158h-105z" />
    <glyph glyph-name="Edieresissmall" unicode="&#xf7eb;" horiz-adv-x="421" 
d="M331 377h-117q-28 0 -28 -31v-36h195v-109h-195v-50q0 -31 28 -31h117q35 0 50 10v-130h-201q-74 0 -103.5 34.5t-29.5 103.5v223q0 68 30.5 103.5t102.5 35.5h201v-134q-17 11 -50 11zM88 684h106v-129h-106v129zM275 684h106v-129h-106v129z" />
    <glyph glyph-name="Igravesmall" unicode="&#xf7ec;" horiz-adv-x="234" 
d="M47 500h140v-500h-140v500zM103 700l113 -158h-108l-137 158h132z" />
    <glyph glyph-name="Iacutesmall" unicode="&#xf7ed;" horiz-adv-x="234" 
d="M47 500h140v-500h-140v500zM140 700h132l-138 -158h-107z" />
    <glyph glyph-name="Icircumflexsmall" unicode="&#xf7ee;" horiz-adv-x="234" 
d="M47 500h140v-500h-140v500zM116 618l-50 -76h-101l98 158h109l98 -158h-105z" />
    <glyph glyph-name="Idieresissmall" unicode="&#xf7ef;" horiz-adv-x="234" 
d="M47 500h140v-500h-140v500zM-29 684h106v-129h-106v129zM158 684h106v-129h-106v129z" />
    <glyph glyph-name="Ethsmall" unicode="&#xf7f0;" horiz-adv-x="527" 
d="M320 305h-91q-21 0 -21 -27v-117q0 -26 22 -26h68q22 0 22 26v144zM326 604l99 -104q23 -25 32.5 -55t9.5 -84v-229q0 -132 -126 -132h-154q-126 0 -126 132v163q0 133 126 133h133l-101 110l-64 -42l-53 57l64 42l-96 105h166l36 -39l61 40l53 -57z" />
    <glyph glyph-name="Ntildesmall" unicode="&#xf7f1;" 
d="M417 367v-367h-139v351q0 27 -22 27h-70v-378h-139v500h243q127 0 127 -133zM144 546h-69v28q0 59 22 91.5t65 32.5q34 0 73 -25t50 -25q21 0 21 47h69v-26q0 -69 -20 -97.5t-65 -28.5q-34 0 -72.5 25.5t-49.5 25.5q-14 0 -19 -10.5t-5 -37.5z" />
    <glyph glyph-name="Ogravesmall" unicode="&#xf7f2;" 
d="M278 146v206q0 26 -22 26h-47q-22 0 -22 -26v-206q0 -27 21 -27h47q23 0 23 27zM47 132v236q0 132 127 132h116q127 0 127 -132v-236q0 -132 -127 -132h-117q-126 0 -126 132zM217 700l113 -158h-108l-137 158h132z" />
    <glyph glyph-name="Oacutesmall" unicode="&#xf7f3;" 
d="M278 146v206q0 26 -22 26h-47q-22 0 -22 -26v-206q0 -27 21 -27h47q23 0 23 27zM47 132v236q0 132 127 132h116q127 0 127 -132v-236q0 -132 -127 -132h-117q-126 0 -126 132zM250 700h132l-138 -158h-107z" />
    <glyph glyph-name="Ocircumflexsmall" unicode="&#xf7f4;" 
d="M278 146v206q0 26 -22 26h-47q-22 0 -22 -26v-206q0 -27 21 -27h47q23 0 23 27zM47 132v236q0 132 127 132h116q127 0 127 -132v-236q0 -132 -127 -132h-117q-126 0 -126 132zM232 618l-50 -76h-101l98 158h109l98 -158h-105z" />
    <glyph glyph-name="Otildesmall" unicode="&#xf7f5;" 
d="M278 145v206q0 27 -22 27h-47q-23 0 -23 -27v-206q0 -26 22 -26h47q23 0 23 26zM47 131v227q0 68 28.5 105t98.5 37h116q127 0 127 -142v-217q0 -141 -127 -141h-117q-126 0 -126 131zM153 545h-68v27q0 120 86 120q32 0 68 -22.5t48 -22.5q11 0 16 9.5t5 34.5h68v-26
q0 -67 -20 -94.5t-64 -27.5q-31 0 -66.5 22t-48.5 22t-18.5 -9t-5.5 -33z" />
    <glyph glyph-name="Odieresissmall" unicode="&#xf7f6;" 
d="M278 146v206q0 26 -22 26h-47q-22 0 -22 -26v-206q0 -27 21 -27h47q23 0 23 27zM47 132v236q0 132 127 132h116q127 0 127 -132v-236q0 -132 -127 -132h-117q-126 0 -126 132zM86 684h106v-129h-106v129zM273 684h106v-129h-106v129z" />
    <glyph glyph-name="Oslashsmall" unicode="&#xf7f8;" 
d="M276 250l-89 -109q2 -21 22 -21h46q21 0 21 27v103zM417 415v-283q0 -132 -129 -132h-115q-55 0 -81 26l-21 -26h-90l65 79v289q0 132 128 132h116q55 0 86 -28l21 28h90zM276 352q-1 25 -21 25h-46q-13 0 -17.5 -6t-4.5 -20v-109z" />
    <glyph glyph-name="Ugravesmall" unicode="&#xf7f9;" 
d="M47 131v369h139v-355q0 -26 22 -26h70v381h139v-500h-245q-125 0 -125 131zM210 700l113 -158h-108l-137 158h132z" />
    <glyph glyph-name="Uacutesmall" unicode="&#xf7fa;" 
d="M47 131v369h139v-355q0 -26 22 -26h70v381h139v-500h-245q-125 0 -125 131zM244 700h132l-138 -158h-107z" />
    <glyph glyph-name="Ucircumflexsmall" unicode="&#xf7fb;" 
d="M47 131v369h139v-355q0 -26 22 -26h70v381h139v-500h-245q-125 0 -125 131zM231 618l-50 -76h-101l98 158h109l98 -158h-105z" />
    <glyph glyph-name="Udieresissmall" unicode="&#xf7fc;" 
d="M47 131v369h139v-355q0 -26 22 -26h70v381h139v-500h-245q-125 0 -125 131zM85 684h106v-129h-106v129zM272 684h106v-129h-106v129z" />
    <glyph glyph-name="Yacutesmall" unicode="&#xf7fd;" 
d="M278 296v204h139v-368q0 -132 -127 -132h-238v130q15 -11 49 -11h149q15 0 21.5 6t6.5 21v31h-105q-126 0 -126 132v191h140v-177q0 -15 4.5 -21t17.5 -6h69zM253 700h132l-138 -158h-107z" />
    <glyph glyph-name="Thornsmall" unicode="&#xf7fe;" horiz-adv-x="445" 
d="M47 500h139v-75h98q73 0 103 -35.5t30 -102.5v-80q0 -132 -132 -132h-99v-75h-139v500zM186 195h70q22 0 22 26v56q0 27 -22 27h-70v-109z" />
    <glyph glyph-name="Ydieresissmall" unicode="&#xf7ff;" 
d="M278 296v204h139v-368q0 -132 -127 -132h-238v130q15 -11 49 -11h149q15 0 21.5 6t6.5 21v31h-105q-126 0 -126 132v191h140v-177q0 -15 4.5 -21t17.5 -6h69zM85 684h106v-129h-106v129zM272 684h106v-129h-106v129z" />
    <glyph glyph-name="fi" unicode="&#xfb01;" horiz-adv-x="485" 
d="M298 377h-111v-377h-140v567q0 133 128 133h263v-134q-16 11 -50 11h-173q-28 0 -28 -31v-46h251v-500h-140v377z" />
    <glyph glyph-name="fl" unicode="&#xfb02;" horiz-adv-x="485" 
d="M298 377h-111v-377h-140v568q0 132 129 132h83v-128q-10 5 -26 5h-18q-28 0 -28 -31v-46h111v200h140v-700h-140v377z" />
    <glyph glyph-name="Breve" horiz-adv-x="448" 
d="M369 834v-28q0 -41 -24 -61.5t-66 -20.5h-110q-89 0 -89 80v30h97v-11q0 -25 23 -25h50q12 0 16.5 5.5t4.5 19.5v11h98z" />
    <glyph glyph-name="caron.alt" horiz-adv-x="207" 
d="M81 524l10 176h103l-32 -176h-81z" />
    <glyph glyph-name="Circumflex" 
d="M231 772l-49 -48h-102l98 110h109l98 -110h-105z" />
    <glyph glyph-name="Dotaccent" horiz-adv-x="233" 
d="M55 828h123v-101h-123v101z" />
    <glyph glyph-name="Ring" horiz-adv-x="404" 
d="M237 782q0 12 -19 12h-32q-20 0 -20 -12v-3q0 -12 20 -12h32q19 0 19 12v3zM325 765q0 -24 -21.5 -37t-58.5 -13h-86q-37 0 -58 13.5t-21 35.5v36q0 22 21 35.5t58 13.5h86q36 0 58 -14.5t22 -36.5v-33z" />
    <glyph glyph-name="Tilde" horiz-adv-x="460" 
d="M149 724h-69v21q0 43 22 67t65 24q34 0 73 -18t50 -18q12 0 16.5 7t4.5 27h69v-18q0 -52 -20 -73t-65 -21q-34 0 -72.5 18.5t-49.5 18.5q-13 0 -18.5 -7.5t-5.5 -27.5z" />
    <glyph glyph-name="publish" horiz-adv-x="698" 
d="M531 123v454q0 17 -5.5 23.5t-19.5 6.5h-314q-14 0 -19.5 -6.5t-5.5 -23.5v-454q0 -30 25 -30h314q14 0 19.5 6.5t5.5 23.5zM61 132v436q0 132 126 132h323q128 0 128 -132v-436q0 -132 -128 -132h-323q-126 0 -126 132zM433 286h-122v-145h-97v422h216q26 0 41.5 -16.5
t15.5 -43.5v-154q0 -63 -54 -63zM311 475v-107h64q15 0 15 17v71q0 19 -15 19h-64z" />
    <glyph glyph-name="cross" horiz-adv-x="774" 
d="M417 -111v318h317v-141h-176v-177h-141zM40 207h318v-318h-141v177h-177v141zM358 584v-318h-318v140h177v178h141zM417 584h141v-177h176v-141h-317v318z" />
    <glyph glyph-name="dmacron" 
d="M417 0h-243q-127 0 -127 134v234q0 132 127 132h103v69h-66v95h66v36h140v-36h34v-95h-34v-569zM277 377h-68q-22 0 -22 -26v-204q0 -27 22 -27h68v257z" />
    <glyph glyph-name="Dmacron" horiz-adv-x="558" 
d="M204 565v-430h128q23 0 23 26v378q0 26 -22 26h-129zM56 0v700h319q127 0 127 -132v-436q0 -132 -127 -132h-319zM384 737h-240v85h240v-85z" />
    <glyph glyph-name="atsmall" horiz-adv-x="797" 
d="M727 48q0 -62 -32 -97t-96 -35h-404q-125 0 -125 133v374q0 130 129 130h231q125 0 125 -137v-321h-226q-42 0 -64.5 25t-22.5 66v104q0 41 22.5 66.5t64.5 25.5h102v27q0 26 -22 26h-196q-23 0 -23 -26v-340q0 -27 23 -27h375q22 0 22 27v310h117v-331zM383 288
q-13 0 -18 -6.5t-5 -21.5v-24q0 -28 23 -28h48v80h-48z" />
    <glyph glyph-name="Abrevesmall" horiz-adv-x="463" 
d="M172 313h104v41q0 26 -23 26h-137q-36 0 -49 -11v131h220q71 0 99.5 -37t28.5 -102v-361h-235q-74 0 -104.5 35t-30.5 104v44q0 130 127 130zM209 213q-25 0 -25 -35v-32q0 -28 24 -28h68v95h-67zM377 700v-63q0 -42 -25 -67.5t-65 -25.5h-110q-42 0 -65.5 25.5
t-23.5 66.5v64h97v-39q0 -26 23 -26h50q12 0 16.5 6t4.5 20v39h98z" />
    <glyph glyph-name="Amacronsmall" horiz-adv-x="463" 
d="M172 313h104v41q0 26 -23 26h-137q-36 0 -49 -11v131h220q71 0 99.5 -37t28.5 -102v-361h-235q-74 0 -104.5 35t-30.5 104v44q0 130 127 130zM209 213q-25 0 -25 -35v-32q0 -28 24 -28h68v95h-67zM352 569h-240v95h240v-95z" />
    <glyph glyph-name="Aogoneksmall" horiz-adv-x="463" 
d="M172 313h104v41q0 26 -23 26h-137q-36 0 -49 -11v131h220q71 0 99.5 -37t28.5 -102v-361h-235q-74 0 -104.5 35t-30.5 104v44q0 130 127 130zM209 213q-25 0 -25 -35v-32q0 -28 24 -28h68v95h-67zM409 0q-58 -25 -91 -48.5t-33 -36.5v-9q0 -22 25 -22h94v-84h-150
q-40 0 -57.5 15.5t-17.5 51.5v20q0 58 140 113h90z" />
    <glyph glyph-name="backslashsmall" 
d="M156 500l308 -500h-156l-308 500h156z" />
    <glyph glyph-name="barsmall" horiz-adv-x="266" 
d="M63 -200v900h141v-900h-141z" />
    <glyph glyph-name="bracketleftsmall" horiz-adv-x="381" 
d="M219 25h63q16 0 29 5v-130h-238v700h238v-131q-14 5 -30 5h-62v-449z" />
    <glyph glyph-name="bracketrightsmall" horiz-adv-x="381" 
d="M98 25h63v449h-62q-16 0 -30 -5v131h238v-700h-238v130q12 -5 29 -5z" />
    <glyph glyph-name="Ccircumflexsmall" horiz-adv-x="375" 
d="M297 377h-83q-28 0 -28 -31v-195q0 -31 28 -31h83q35 0 50 10v-130h-167q-74 0 -103.5 34.5t-29.5 103.5v223q0 68 30.5 103.5t102.5 35.5h167v-134q-16 11 -50 11zM220 618l-50 -76h-101l98 158h109l98 -158h-105z" />
    <glyph glyph-name="Cdotaccentsmall" horiz-adv-x="375" 
d="M297 377h-83q-28 0 -28 -31v-195q0 -31 28 -31h83q35 0 50 10v-130h-167q-74 0 -103.5 34.5t-29.5 103.5v223q0 68 30.5 103.5t102.5 35.5h167v-134q-16 11 -50 11zM154 688h141v-144h-141v144z" />
    <glyph glyph-name="centsmall" horiz-adv-x="386" 
d="M275 103v-103h-117v103h-18q-43 0 -71 37t-28 105v117q0 67 31.5 102.5t66.5 35.5h19v96h117v-96h66v-134q-16 11 -49 11h-84q-28 0 -28 -31v-91q0 -32 28 -32h84q32 0 49 11v-131h-66z" />
    <glyph glyph-name="Ccaronsmall" horiz-adv-x="375" 
d="M297 377h-83q-28 0 -28 -31v-195q0 -31 28 -31h83q35 0 50 10v-130h-167q-74 0 -103.5 34.5t-29.5 103.5v223q0 68 30.5 103.5t102.5 35.5h167v-134q-16 11 -50 11zM226 624l49 76h102l-98 -158h-109l-98 158h105z" />
    <glyph glyph-name="Cacutesmall" horiz-adv-x="375" 
d="M297 377h-83q-28 0 -28 -31v-195q0 -31 28 -31h83q35 0 50 10v-130h-167q-74 0 -103.5 34.5t-29.5 103.5v223q0 68 30.5 103.5t102.5 35.5h167v-134q-16 11 -50 11zM238 700h132l-138 -158h-107z" />
    <glyph glyph-name="daggersmall" horiz-adv-x="543" 
d="M341 378v-378h-138v378h-183v122h183v200h138v-200h182v-122h-182z" />
    <glyph glyph-name="degreesmall" horiz-adv-x="351" 
d="M214 272v100q0 25 -20 25h-36q-20 0 -20 -25v-100q0 -24 20 -24h36q20 0 20 24zM316 255q0 -113 -111 -113h-70q-47 0 -73.5 27.5t-26.5 84.5v138q0 108 108 108h69q54 0 79 -30.5t25 -77.5v-137z" />
    <glyph glyph-name="dollarsmall" horiz-adv-x="426" 
d="M275 33v-86h-117v86h-112v132q13 -11 49 -11h130q15 0 15 18v11q0 12 -12 17l-119 51q-33 14 -48 41.5t-15 81.5v31q0 60 23.5 85.5t71.5 25.5h17v80h117v-80h104v-133q-15 11 -49 11h-121q-9 0 -16.5 -5t-7.5 -13v-8q0 -14 23 -23l101 -38q70 -26 70 -112v-66
q0 -46 -22 -71t-62 -25h-20z" />
    <glyph glyph-name="Dcaronsmall" 
d="M186 378v-259h70q22 0 22 26v206q0 27 -22 27h-70zM47 500h243q127 0 127 -132v-237q0 -131 -127 -131h-243v500zM225 624l49 76h102l-98 -158h-109l-98 158h105z" />
    <glyph glyph-name="Dcroatsmall" 
d="M47 500h243q127 0 127 -142v-217q0 -141 -127 -141h-243v216h-34v78h34v206zM238 216h-52v-97h70q22 0 22 26v206q0 27 -22 27h-70v-84h52v-78z" />
    <glyph glyph-name="Dmacronsmall" 
d="M186 378v-259h70q22 0 22 26v206q0 27 -22 27h-70zM47 500h243q127 0 127 -132v-237q0 -131 -127 -131h-243v500zM335 569h-240v95h240v-95z" />
    <glyph glyph-name="Emacronsmall" horiz-adv-x="421" 
d="M331 377h-117q-28 0 -28 -31v-36h195v-109h-195v-50q0 -31 28 -31h117q35 0 50 10v-130h-201q-74 0 -103.5 34.5t-29.5 103.5v223q0 68 30.5 103.5t102.5 35.5h201v-134q-17 11 -50 11zM353 569h-240v95h240v-95z" />
    <glyph glyph-name="Eurosmall" horiz-adv-x="449" 
d="M197 276v-48h123v-53h-123v-26q0 -28 26 -28h146q33 0 50 11v-132h-233q-127 0 -127 133v42h-25v53h25v48h-25v54h25v36q0 65 34 99.5t98 34.5h228v-133q-16 11 -50 11h-147q-25 0 -25 -28v-20h123v-54h-123z" />
    <glyph glyph-name="Eogoneksmall" horiz-adv-x="421" 
d="M331 377h-117q-28 0 -28 -31v-36h195v-109h-195v-50q0 -31 28 -31h117q35 0 50 10v-130h-201q-74 0 -103.5 34.5t-29.5 103.5v223q0 68 30.5 103.5t102.5 35.5h201v-134q-17 11 -50 11zM363 0q-58 -25 -91 -48.5t-33 -36.5v-9q0 -22 25 -22h94v-84h-150q-40 0 -57.5 15.5
t-17.5 51.5v20q0 58 140 113h90z" />
    <glyph glyph-name="Ecaronsmall" horiz-adv-x="421" 
d="M331 377h-117q-28 0 -28 -31v-36h195v-109h-195v-50q0 -31 28 -31h117q35 0 50 10v-130h-201q-74 0 -103.5 34.5t-29.5 103.5v223q0 68 30.5 103.5t102.5 35.5h201v-134q-17 11 -50 11zM239 624l49 76h102l-98 -158h-109l-98 158h105z" />
    <glyph glyph-name="Edotaccentsmall" horiz-adv-x="421" 
d="M331 377h-117q-28 0 -28 -31v-36h195v-109h-195v-50q0 -31 28 -31h117q35 0 50 10v-130h-201q-74 0 -103.5 34.5t-29.5 103.5v223q0 68 30.5 103.5t102.5 35.5h201v-134q-17 11 -50 11zM171 688h141v-144h-141v144z" />
    <glyph glyph-name="Ebrevesmall" horiz-adv-x="421" 
d="M331 377h-117q-28 0 -28 -31v-36h195v-109h-195v-50q0 -31 28 -31h117q35 0 50 10v-130h-201q-74 0 -103.5 34.5t-29.5 103.5v223q0 68 30.5 103.5t102.5 35.5h201v-134q-17 11 -50 11zM376 700v-63q0 -42 -25 -67.5t-65 -25.5h-110q-42 0 -65.5 25.5t-23.5 66.5v64h97
v-39q0 -26 23 -26h50q12 0 16.5 6t4.5 20v39h98z" />
    <glyph glyph-name="gacute" 
d="M277 120v257h-66q-24 0 -24 -28v-201q0 -28 23 -28h67zM277 -53v53h-103q-127 0 -127 133v235q0 132 127 132h243v-568q0 -132 -127 -132h-239v131q17 -11 50 -11h149q15 0 21 6t6 21zM271 700h132l-138 -158h-107z" />
    <glyph glyph-name="Gacutesmall" 
d="M278 296v82h-69q-14 0 -18.5 -8.5t-4.5 -27.5v-11q0 -20 4.5 -27.5t18.5 -7.5h69zM278 145v31h-97q-74 0 -104 35t-30 106v43q0 67 28.5 103.5t98.5 36.5h243v-361q0 -139 -127 -139h-239v130q15 -11 50 -11h149q15 0 21.5 5.5t6.5 20.5zM264 700h132l-138 -158h-107z
" />
    <glyph glyph-name="Gbrevesmall" 
d="M278 296v82h-69q-14 0 -18.5 -8.5t-4.5 -27.5v-11q0 -20 4.5 -27.5t18.5 -7.5h69zM278 145v31h-97q-74 0 -104 35t-30 106v43q0 67 28.5 103.5t98.5 36.5h243v-361q0 -139 -127 -139h-239v130q15 -11 50 -11h149q15 0 21.5 5.5t6.5 20.5zM381 700v-63q0 -42 -25 -67.5
t-65 -25.5h-110q-42 0 -65.5 25.5t-23.5 66.5v64h97v-39q0 -26 23 -26h50q12 0 16.5 6t4.5 20v39h98z" />
    <glyph glyph-name="Gcircumflexsmall" 
d="M278 296v82h-69q-14 0 -18.5 -8.5t-4.5 -27.5v-11q0 -20 4.5 -27.5t18.5 -7.5h69zM278 145v31h-97q-74 0 -104 35t-30 106v43q0 67 28.5 103.5t98.5 36.5h243v-361q0 -139 -127 -139h-239v130q15 -11 50 -11h149q15 0 21.5 5.5t6.5 20.5zM244 618l-50 -76h-101l98 158
h109l98 -158h-105z" />
    <glyph glyph-name="Gcommaaccentsmall" 
d="M278 296v82h-69q-14 0 -18.5 -8.5t-4.5 -27.5v-11q0 -20 4.5 -27.5t18.5 -7.5h69zM278 145v31h-97q-74 0 -104 35t-30 106v43q0 67 28.5 103.5t98.5 36.5h243v-361q0 -139 -127 -139h-239v130q15 -11 50 -11h149q15 0 21.5 5.5t6.5 20.5zM184 -53h119v-84l-42 -109h-105
l28 110v83z" />
    <glyph glyph-name="Gdotaccentsmall" 
d="M278 296v82h-69q-14 0 -18.5 -8.5t-4.5 -27.5v-11q0 -20 4.5 -27.5t18.5 -7.5h69zM278 145v31h-97q-74 0 -104 35t-30 106v43q0 67 28.5 103.5t98.5 36.5h243v-361q0 -139 -127 -139h-239v130q15 -11 50 -11h149q15 0 21.5 5.5t6.5 20.5zM167 688h141v-144h-141v144z" />
    <glyph glyph-name="Germandblssmall" horiz-adv-x="825" 
d="M167 500h190v-134q-17 11 -50 11h-115q-19 0 -19 -20v-6q0 -15 17 -23l95 -38q50 -20 69 -47t19 -78v-32q0 -133 -127 -133h-207v132q17 -11 50 -11h132q18 0 18 21v9q0 17 -16 25l-88 36q-55 23 -75.5 52t-20.5 88v15q0 133 128 133zM579 500h190v-134q-17 11 -50 11
h-115q-19 0 -19 -20v-6q0 -15 17 -23l95 -38q50 -20 69 -47t19 -78v-32q0 -133 -127 -133h-207v132q17 -11 50 -11h132q18 0 18 21v9q0 17 -16 25l-88 36q-55 23 -75.5 52t-20.5 88v15q0 133 128 133z" />
    <glyph glyph-name="Hbarsmall" 
d="M457 376h-40v-376h-139v213h-92v-213h-139v376h-41v70h41v54h139v-54h92v54h139v-54h40v-70zM186 330h92v46h-92v-46z" />
    <glyph glyph-name="Hcircumflexsmall" 
d="M278 500h139v-500h-139v213h-92v-213h-139v500h139v-170h92v170zM232 618l-50 -76h-101l98 158h109l98 -158h-105z" />
    <glyph glyph-name="IJsmall" horiz-adv-x="582" 
d="M47 500h140v-500h-140v500zM395 146v354h139v-360q0 -72 -30.5 -106t-104.5 -34h-164v130q14 -10 49 -10h84q15 0 21 5.5t6 20.5z" />
    <glyph glyph-name="Imacronsmall" horiz-adv-x="234" 
d="M47 500h140v-500h-140v500zM237 569h-240v95h240v-95z" />
    <glyph glyph-name="Iogoneksmall" horiz-adv-x="234" 
d="M47 500h140v-500h-140v500zM186 0q-58 -25 -91 -48.5t-33 -36.5v-9q0 -22 25 -22h94v-84h-150q-40 0 -57.5 15.5t-17.5 51.5v20q0 58 140 113h90z" />
    <glyph glyph-name="Itildesmall" horiz-adv-x="234" 
d="M47 500h140v-500h-140v500zM36 546h-69v28q0 59 22 91.5t65 32.5q34 0 73 -25t50 -25q21 0 21 47h69v-26q0 -69 -20 -97.5t-65 -28.5q-34 0 -72.5 25.5t-49.5 25.5q-14 0 -19 -10.5t-5 -37.5z" />
    <glyph glyph-name="Jcircumflexsmall" horiz-adv-x="349" 
d="M162 146v354h139v-360q0 -72 -30.5 -106t-104.5 -34h-164v130q14 -10 49 -10h84q15 0 21 5.5t6 20.5zM230 618l-50 -76h-101l98 158h109l98 -158h-105z" />
    <glyph glyph-name="Kcommaaccentsmall" horiz-adv-x="468" 
d="M219 330q21 0 28 21l49 149h145l-64 -178q-13 -34 -36 -44q22 -13 34 -46l81 -232h-159l-49 190q-7 23 -28 23h-34v-213h-139v500h139v-170h33zM173 -53h119v-84l-42 -109h-105l28 110v83z" />
    <glyph glyph-name="Lacutesmall" horiz-adv-x="347" 
d="M344 130v-130h-297v500h139v-380h109q35 0 49 10zM168 700h132l-138 -158h-107z" />
    <glyph glyph-name="Lcaronsmall" horiz-adv-x="347" 
d="M344 130v-130h-297v500h139v-380h109q35 0 49 10zM228 372l10 176h103l-32 -176h-81z" />
    <glyph glyph-name="Lcommaaccentsmall" horiz-adv-x="347" 
d="M344 130v-130h-297v500h139v-380h109q35 0 49 10zM134 -53h119v-84l-42 -109h-105l28 110v83z" />
    <glyph glyph-name="Ldotsmall" horiz-adv-x="347" 
d="M344 130v-130h-297v500h139v-380h109q35 0 49 10zM228 374h100v-118h-100v118z" />
    <glyph glyph-name="Nacutesmall" 
d="M417 367v-367h-139v351q0 27 -22 27h-70v-378h-139v500h243q127 0 127 -133zM243 700h132l-138 -158h-107z" />
    <glyph glyph-name="Ncaronsmall" 
d="M417 367v-367h-139v351q0 27 -22 27h-70v-378h-139v500h243q127 0 127 -133zM231 624l49 76h102l-98 -158h-109l-98 158h105z" />
    <glyph glyph-name="Ncommaaccentsmall" 
d="M417 367v-367h-139v351q0 27 -22 27h-70v-378h-139v500h243q127 0 127 -133zM170 -53h119v-84l-42 -109h-105l28 110v83z" />
    <glyph glyph-name="numbersignsmall" horiz-adv-x="562" 
d="M306 109h-116l-23 -109h-117l25 109h-38v89h57l25 106h-43v88h63l24 108h116l-24 -108h115l24 108h116l-24 -108h39v-88h-60l-23 -106h43v-89h-64l-24 -109h-115zM211 198h115l25 106h-117z" />
    <glyph glyph-name="Obrevesmall" 
d="M278 145v206q0 27 -22 27h-47q-23 0 -23 -27v-206q0 -26 22 -26h47q23 0 23 26zM47 131v227q0 68 28.5 105t98.5 37h116q127 0 127 -142v-217q0 -141 -127 -141h-117q-126 0 -126 131zM376 700v-63q0 -43 -24.5 -68t-65.5 -25h-109q-42 0 -65.5 25t-23.5 66v65h97v-40
q0 -26 22 -26h51q22 0 22 26v40h96z" />
    <glyph glyph-name="Ohungarumlautsmall" 
d="M278 146v206q0 26 -22 26h-47q-22 0 -22 -26v-206q0 -27 21 -27h47q23 0 23 27zM47 132v236q0 132 127 132h116q127 0 127 -132v-236q0 -132 -127 -132h-117q-126 0 -126 132zM181 700h105l-112 -158h-86zM336 700h105l-111 -158h-86z" />
    <glyph glyph-name="Omacronsmall" 
d="M278 145v206q0 27 -22 27h-47q-23 0 -23 -27v-206q0 -26 22 -26h47q23 0 23 26zM47 131v227q0 68 28.5 105t98.5 37h116q127 0 127 -142v-217q0 -141 -127 -141h-117q-126 0 -126 131zM376 628q-3 -36 -27.5 -57.5t-60.5 -21.5h-111q-87 0 -87 79v60h105v-34
q0 -15 12 -15h53q7 0 9 3t2 12v34h105v-60z" />
    <glyph glyph-name="parenleftsmall" horiz-adv-x="301" 
d="M273 471q-48 0 -59 -9t-11 -39v-346q0 -31 12 -41.5t58 -10.5v-126q-115 0 -165 41t-50 138v328q0 111 48 152.5t167 41.5v-129z" />
    <glyph glyph-name="parenrightsmall" horiz-adv-x="301" 
d="M28 471v129q119 0 167.5 -42t48.5 -152v-328q0 -97 -50.5 -138t-165.5 -41v126q46 0 58 10.5t12 41.5v346q0 30 -11 39t-59 9z" />
    <glyph glyph-name="Racutesmall" horiz-adv-x="362" 
d="M317 368h-81q-49 0 -49 -53v-315h-140v500h122v-66q14 66 82 66h109v-143q-15 11 -43 11zM223 700h132l-138 -158h-107z" />
    <glyph glyph-name="Rcaronsmall" horiz-adv-x="362" 
d="M317 368h-81q-49 0 -49 -53v-315h-140v500h122v-66q14 66 82 66h109v-143q-15 11 -43 11zM213 624l49 76h102l-98 -158h-109l-98 158h105z" />
    <glyph glyph-name="Rcommaaccentsmall" horiz-adv-x="362" 
d="M317 368h-81q-49 0 -49 -53v-315h-140v500h122v-66q14 66 82 66h109v-143q-15 11 -43 11zM63 -53h119v-84l-42 -109h-105l28 110v83z" />
    <glyph glyph-name="slashsmall" horiz-adv-x="490" 
d="M322 500h164l-317 -500h-164z" />
    <glyph glyph-name="sectionsmall" horiz-adv-x="482" 
d="M172 611h236v-107q-15 9 -50 9h-167q-9 0 -14.5 -6.5t-5.5 -14.5v-4q0 -12 18 -25l193 -140q33 -24 46.5 -46t13.5 -62v-209q0 -56 -29 -84t-95 -28h-249v105q14 -8 49 -8h172q19 0 19 18v14q0 16 -16 31l-186 137q-39 28 -53.5 51.5t-14.5 69.5v176q0 123 133 123z
M309 158v63q0 24 -28.5 47.5t-64 48t-45.5 44.5v-65q0 -20 29.5 -42t64.5 -47t44 -49z" />
    <glyph glyph-name="sterlingsmall" horiz-adv-x="431" 
d="M59 200h-36v107h36v48q0 77 28.5 111t92.5 34h189v-136q-14 10 -49 10h-92q-28 0 -28 -30v-37h124v-107h-124v-80h154q35 0 49 10v-130h-344v200z" />
    <glyph glyph-name="Sacutesmall" horiz-adv-x="412" 
d="M167 500h190v-134q-17 11 -50 11h-115q-19 0 -19 -20v-6q0 -15 17 -23l95 -38q50 -20 69 -47t19 -78v-32q0 -133 -127 -133h-207v132q17 -11 50 -11h132q18 0 18 21v9q0 17 -16 25l-88 36q-55 23 -75.5 52t-20.5 88v15q0 133 128 133zM221 700h132l-138 -158h-107z" />
    <glyph glyph-name="Scedillasmall" horiz-adv-x="412" 
d="M167 500h190v-134q-17 11 -50 11h-115q-19 0 -19 -20v-6q0 -15 17 -23l95 -38q50 -20 69 -47t19 -78v-32q0 -133 -127 -133h-207v132q17 -11 50 -11h132q18 0 18 21v9q0 17 -16 25l-88 36q-55 23 -75.5 52t-20.5 88v15q0 133 128 133zM231 -30h17q75 0 75 -72v-21
q0 -77 -75 -77h-155l24 69h75q26 0 26 20v4q0 12 -5.5 16t-18.5 4h-62l32 94h79z" />
    <glyph glyph-name="Scircumflexsmall" horiz-adv-x="412" 
d="M167 500h190v-134q-17 11 -50 11h-115q-19 0 -19 -20v-6q0 -15 17 -23l95 -38q50 -20 69 -47t19 -78v-32q0 -133 -127 -133h-207v132q17 -11 50 -11h132q18 0 18 21v9q0 17 -16 25l-88 36q-55 23 -75.5 52t-20.5 88v15q0 133 128 133zM214 618l-50 -76h-101l98 158h109
l98 -158h-105z" />
    <glyph glyph-name="Scommaaccentsmall" horiz-adv-x="412" 
d="M167 500h190v-134q-17 11 -50 11h-115q-19 0 -19 -20v-6q0 -15 17 -23l95 -38q50 -20 69 -47t19 -78v-32q0 -133 -127 -133h-207v132q17 -11 50 -11h132q18 0 18 21v9q0 17 -16 25l-88 36q-55 23 -75.5 52t-20.5 88v15q0 133 128 133zM147 -53h119v-84l-42 -109h-105
l28 110v83z" />
    <glyph glyph-name="summationsmall" horiz-adv-x="478" 
d="M310 252l-88 -145h193q17 0 32 3v-110h-410v36l132 216l-131 217v31h403v-116q-10 3 -32 3h-182z" />
    <glyph glyph-name="Tbarsmall" horiz-adv-x="410" 
d="M240 154q0 -31 27 -31h70q35 0 50 10v-133h-160q-126 0 -126 132v89h-72v83h72v74h-97v122h383v-122h-147v-74h91v-83h-91v-67z" />
    <glyph glyph-name="Tcommaaccentsmall" horiz-adv-x="410" 
d="M240 154q0 -31 27 -31h70q32 0 50 12v-135h-160q-126 0 -126 132v246h-97v122h383v-122h-147v-224zM162 -53h119v-84l-42 -109h-105l28 110v83z" />
    <glyph glyph-name="Tcaronsmall" horiz-adv-x="410" 
d="M240 154q0 -31 27 -31h70q32 0 50 12v-135h-160q-126 0 -126 132v246h-97v122h383v-122h-147v-224zM195 624l49 76h102l-98 -158h-109l-98 158h105z" />
    <glyph glyph-name="Utildesmall" 
d="M154 545h-68v27q0 120 86 120q31 0 67.5 -22.5t48.5 -22.5t16.5 9.5t4.5 34.5h68v-26q0 -67 -20 -94.5t-64 -27.5q-31 0 -66 22t-49 22q-13 0 -18.5 -9t-5.5 -33zM47 131v369h139v-355q0 -26 22 -26h70v381h139v-500h-245q-125 0 -125 131z" />
    <glyph glyph-name="Uringsmall" 
d="M47 131v369h139v-355q0 -26 22 -26h70v381h139v-500h-245q-125 0 -125 131zM266 627q0 17 -19 17h-32q-20 0 -20 -17v-12q0 -17 20 -17h32q19 0 19 17v12zM354 601q0 -33 -21.5 -50t-58.5 -17h-86q-79 0 -79 66v49q0 30 20.5 47.5t58.5 17.5h86q36 0 58 -18t22 -49v-46z
" />
    <glyph glyph-name="Uogoneksmall" 
d="M47 131v369h139v-355q0 -26 22 -26h70v381h139v-500h-245q-125 0 -125 131zM392 0q-58 -25 -91 -48.5t-33 -36.5v-9q0 -22 25 -22h94v-84h-150q-40 0 -57.5 15.5t-17.5 51.5v20q0 58 140 113h90z" />
    <glyph glyph-name="Umacronsmall" 
d="M47 131v369h139v-355q0 -26 22 -26h70v381h139v-500h-245q-125 0 -125 131zM352 569h-240v95h240v-95z" />
    <glyph glyph-name="Ubrevesmall" 
d="M47 131v369h139v-355q0 -26 22 -26h70v381h139v-500h-245q-125 0 -125 131zM376 700v-63q0 -43 -24.5 -68t-65.5 -25h-109q-42 0 -65.5 25t-23.5 66v65h96v-40q0 -26 23 -26h51q21 0 21 26v40h97z" />
    <glyph glyph-name="Uhungarumlautsmall" 
d="M47 131v369h139v-355q0 -26 22 -26h70v381h139v-500h-245q-125 0 -125 131zM191 700h105l-112 -158h-86zM346 700h105l-111 -158h-86z" />
    <glyph glyph-name="Wcircumflexsmall" horiz-adv-x="683" 
d="M271 500h147l54 -349l59 349h151l-131 -500h-163l-47 305l-48 -305h-163l-130 500h158l59 -349zM344 618l-50 -76h-101l98 158h109l98 -158h-105z" />
    <glyph glyph-name="yensmall" horiz-adv-x="476" 
d="M172 71h-76v104h76v29l-167 296h151l87 -178l85 178h143l-159 -296v-29h75v-104h-75v-71h-140v71z" />
    <glyph glyph-name="Ycircumflexsmall" 
d="M278 296v204h139v-368q0 -132 -127 -132h-238v130q15 -11 49 -11h149q15 0 21.5 6t6.5 21v31h-105q-126 0 -126 132v191h140v-177q0 -15 4.5 -21t17.5 -6h69zM231 618l-50 -76h-101l98 158h109l98 -158h-105z" />
    <glyph glyph-name="Zacutesmall" horiz-adv-x="420" 
d="M24 0v50l184 330h-144q-20 0 -32 -5v125h364v-43l-185 -337h145q20 0 32 5v-125h-364zM224 700h132l-138 -158h-107z" />
    <glyph glyph-name="Zdotaccentsmall" horiz-adv-x="420" 
d="M24 0v50l184 330h-144q-20 0 -32 -5v125h364v-43l-185 -337h145q20 0 32 5v-125h-364zM143 688h141v-144h-141v144z" />
    <glyph glyph-name="Qsmall.001" 
d="M47 131v229q0 67 28.5 103.5t98.5 36.5h116q127 0 127 -140v-221q0 -60 -31.5 -99.5t-77.5 -39.5h-11l92 -153h-126l-82 153h-6q-64 0 -96 34.5t-32 96.5zM278 145v206q0 27 -22 27h-47q-23 0 -23 -27v-206q0 -26 22 -26h47q23 0 23 26z" />
    <glyph glyph-name="zerosmall" horiz-adv-x="472" 
d="M285 146v205q0 27 -22 27h-52q-23 0 -23 -27v-205q0 -26 22 -26h52q23 0 23 26zM48 132v236q0 132 127 132h122q127 0 127 -132v-236q0 -132 -127 -132h-123q-126 0 -126 132z" />
    <glyph glyph-name="onesmall" horiz-adv-x="472" 
d="M84 120h98v206l-101 -34v132l242 79v-383h93v-120h-332v120z" />
    <glyph glyph-name="twosmall" horiz-adv-x="472" 
d="M55 0v131q0 60 17 93.5t67 50.5l130 45q14 5 14 22v14q0 21 -22 21h-144q-33 0 -50 -11v134h217q139 0 139 -141v-22q0 -100 -82 -129l-139 -50q-14 -5 -14 -22v-16h177q34 0 49 11v-131h-359z" />
    <glyph glyph-name="threesmall" horiz-adv-x="472" 
d="M135 201q-16 0 -31 -3v115q15 -3 31 -3h130q18 3 18 25v21q0 21 -22 21h-177q-16 0 -30 -5v128h248q68 0 94.5 -27.5t26.5 -80.5v-17q0 -59 -26.5 -86t-92.5 -28q70 -3 94.5 -27t24.5 -87v-17q0 -66 -26.5 -98t-94.5 -32h-248v125q13 -5 29 -5h177q23 0 23 24v34
q-3 23 -22 23h-126z" />
    <glyph glyph-name="foursmall" horiz-adv-x="472" 
d="M371 96v-96h-130v96h-232v98l216 308h146v-287h57q14 0 29 3v-125q-15 3 -29 3h-57zM241 215v140l-99 -140h99z" />
    <glyph glyph-name="fivesmall" horiz-adv-x="472" 
d="M263 120q22 0 22 27v28q0 27 -22 27h-207v298h351v-128q-14 5 -30 5h-182v-58h101q128 0 128 -124v-64q0 -131 -124 -131h-244v131q15 -11 49 -11h158z" />
    <glyph glyph-name="sixsmall" horiz-adv-x="472" 
d="M187 318h103q70 0 101.5 -33.5t31.5 -99.5v-47q0 -66 -28.5 -102t-97.5 -36h-122q-71 0 -99 36t-28 103v221q0 140 127 140h231v-131q-16 11 -49 11h-142q-15 0 -21.5 -6t-6.5 -21v-35zM187 201v-46q0 -20 4.5 -28t19.5 -8h50q23 0 23 35v13q0 19 -4 26.5t-19 7.5h-74z
" />
    <glyph glyph-name="sevensmall" horiz-adv-x="472" 
d="M434 392l-178 -392h-155l183 375h-183q-29 0 -43 -5v130h376v-108z" />
    <glyph glyph-name="eightsmall" horiz-adv-x="472" 
d="M170 0q-69 0 -95.5 30.5t-26.5 94.5v15q0 64 25 88.5t95 27.5q-68 2 -94 28t-26 87v10q0 63 26 91t96 28h132q69 0 95 -28.5t26 -92.5v-8q0 -61 -26 -87t-94 -28q70 -3 95 -27.5t25 -88.5v-15q0 -64 -26.5 -94.5t-94.5 -30.5h-132zM209 379q-22 0 -22 -25v-17
q0 -28 23 -28h52q22 0 22 28v17q0 25 -22 25h-53zM211 119h50q23 0 23 27v27q0 29 -22 29h-52q-23 0 -23 -29v-27q0 -27 24 -27z" />
    <glyph glyph-name="ninesmall" horiz-adv-x="472" 
d="M283 190h-102q-71 0 -102.5 33.5t-31.5 99.5v39q0 138 127 138h122q127 0 127 -140v-221q0 -139 -127 -139h-231v130q15 -11 49 -11h142q15 0 21 6t6 21v44zM283 307v45q0 28 -23 28h-50q-23 0 -23 -21v-24q0 -16 4.5 -22t17.5 -6h74z" />
    <glyph glyph-name="braceleftsmall" horiz-adv-x="305" 
d="M208 414v-81q0 -22 -14 -40.5t-34 -25.5q20 -8 34 -26t14 -40v-113q0 -40 14 -53.5t59 -13.5v-121q-119 0 -169 41.5t-50 142.5v81q0 25 -15.5 40.5t-36.5 15.5v88q21 0 36.5 15t15.5 41v35q0 113 49 156.5t170 43.5v-125q-49 0 -61 -12t-12 -49z" />
    <glyph glyph-name="bracerightsmall" horiz-adv-x="305" 
d="M96 333v81q0 37 -12.5 49t-60.5 12v125q122 0 170.5 -43t48.5 -157v-35q0 -26 16 -41t37 -15v-88q-22 0 -37.5 -15t-15.5 -41v-81q0 -101 -50 -142.5t-169 -41.5v121q49 0 61 13t12 54v113q0 21 14.5 39.5t33.5 26.5q-19 7 -33.5 25.5t-14.5 40.5z" />
    <glyph glyph-name="percentsmall" horiz-adv-x="664" 
d="M421 500h131l-310 -500h-130zM181 359v28q0 19 -14 22h-26q-16 0 -16 -22v-28q0 -24 23 -24h15q18 0 18 24zM35 345v58q0 97 97 97h44q49 0 72 -27t23 -70v-57q0 -102 -101 -102h-45q-90 0 -90 101zM539 115v28q0 13 -5 17.5t-18 4.5h-15q-19 0 -19 -22v-28q0 -24 19 -24
h19q19 0 19 24zM392 101v57q0 98 98 98h43q50 0 73 -27t23 -71v-57q0 -101 -101 -101h-45q-91 0 -91 101z" />
    <glyph glyph-name="lright" horiz-adv-x="1251" 
d="M220 -76q63 58 153.5 94t178.5 36q167 0 234 -126l-3 -10q-116 61 -274 61q-169 0 -293 -65zM311 32q59 48 142.5 78t163.5 30q152 0 206 -106l-3 -8q-93 51 -242 51q-152 0 -273 -54zM390 117q56 49 132.5 79t150.5 30q137 0 189 -101l-3 -8q-94 46 -222 46
q-141 0 -251 -56zM482 209q48 40 116 65t134 25q127 0 174 -89l-3 -7q-79 43 -202 43q-125 0 -225 -45zM562 284q43 37 103.5 60t119.5 23q109 0 160 -76l-1 -6q-81 34 -185 34q-115 0 -201 -43zM642 357q38 32 92.5 52t106.5 20q101 0 143 -68l-1 -6q-70 32 -167 32
q-101 0 -177 -35zM721 424q33 27 80.5 43.5t94.5 16.5q91 0 132 -61l-2 -4q-66 30 -153 30q-89 0 -155 -31zM795 480q67 52 159 52q80 0 114 -51l-1 -3q-58 24 -131 24q-82 0 -144 -27zM860 529q27 23 67.5 37.5t78.5 14.5q71 0 100 -50l-2 -3q-49 22 -115 22
q-73 0 -132 -27zM938 582q56 43 134 43q62 0 84 -42l-2 -3q-37 19 -101 19q-68 0 -118 -22zM1017 628q44 36 112 36q56 0 69 -34l-1 -2q-28 17 -83 17q-58 0 -99 -20zM1088 670q49 19 90 19q35 0 73 -19q-33 5 -76 5q-54 0 -88 -7zM106 -200h-106q103 141 225 273.5
t266 258.5t307.5 223.5t321.5 144.5h12q-171 -74 -381 -241t-375 -340t-270 -319z" />
    <glyph glyph-name="lleft" horiz-adv-x="1256" 
d="M1036 -76l4 -10q-124 65 -293 65q-158 0 -274 -61l-3 10q67 126 234 126q88 0 178.5 -36t153.5 -94zM945 32l6 -9q-121 54 -273 54q-149 0 -242 -51l-3 8q54 106 206 106q80 0 163.5 -30t142.5 -78zM866 117l4 -10q-110 56 -251 56q-128 0 -222 -46l-3 8q52 101 189 101
q74 0 150.5 -30t132.5 -79zM774 209l6 -8q-100 45 -225 45q-123 0 -202 -43l-3 7q47 89 174 89q66 0 134 -25t116 -65zM694 284l4 -8q-86 43 -201 43q-104 0 -185 -34l-1 6q51 76 160 76q59 0 119.5 -23t103.5 -60zM614 357l3 -5q-76 35 -177 35q-97 0 -167 -32l-1 6
q42 68 143 68q52 0 106.5 -20t92.5 -52zM535 424l3 -6q-66 31 -155 31q-87 0 -153 -30l-2 4q41 61 132 61q47 0 94.5 -16.5t80.5 -43.5zM461 480l3 -5q-61 27 -144 27q-73 0 -131 -24l-1 3q34 51 114 51q92 0 159 -52zM396 529l3 -6q-58 27 -132 27q-66 0 -115 -22l-2 3
q29 50 100 50q38 0 78.5 -14.5t67.5 -37.5zM318 582l3 -5q-50 22 -118 22q-64 0 -101 -19l-2 3q22 42 84 42q78 0 134 -43zM239 628l2 -3q-41 20 -99 20q-55 0 -83 -17l-1 2q13 34 69 34q68 0 112 -36zM163 676l1 -2q-34 7 -88 7q-9 0 -76 -10q44 22 73 22q46 0 90 -17z
M1256 -200h-106q-105 146 -270 319t-375 340t-381 241h12q158 -47 321.5 -144.5t307.5 -223.5t266 -258.5t225 -273.5z" />
    </font>
</defs>
</svg>
