<?xml version="1.0" standalone="no"?>
<!DOCTYPE svg PUBLIC "-//W3C//DTD SVG 1.1//EN" "http://www.w3.org/Graphics/SVG/1.1/DTD/svg11.dtd" >
<svg>
<metadata>
Created by FontForge 20120731 at Thu Sep  3 19:58:18 2015
 By ,,,
Copyright (c) 2005 by Frantisek Storm, www.stormtype.com. All rights reserved.
</metadata>
<defs>
<font id="Teuton23Pro" horiz-adv-x="468" >
  <font-face 
    font-family="Teuton23Pro"
    font-weight="400"
    font-stretch="normal"
    units-per-em="1000"
    panose-1="2 0 5 6 0 0 0 2 0 4"
    ascent="800"
    descent="-200"
    x-height="500"
    cap-height="700"
    bbox="-49 -218 1213 842"
    underline-thickness="0"
    underline-position="0"
    unicode-range="U+0020-FB02"
  />
<missing-glyph horiz-adv-x="500" 
 />
    <glyph glyph-name=".notdef" horiz-adv-x="500" 
 />
    <glyph glyph-name=".null" horiz-adv-x="0" 
 />
    <glyph glyph-name="nonmarkingreturn" horiz-adv-x="333" 
 />
    <glyph glyph-name="space" unicode=" " horiz-adv-x="263" 
 />
    <glyph glyph-name="exclam" unicode="!" horiz-adv-x="200" 
d="M66 151l-1 549h71l-1 -549h-69zM63 0v78h75v-78h-75z" />
    <glyph glyph-name="quotedbl" unicode="&#x22;" horiz-adv-x="299" 
d="M72 532l-6 168h60l-6 -168h-48zM180 532l-6 168h60l-7 -168h-47z" />
    <glyph glyph-name="numbersign" unicode="#" horiz-adv-x="501" 
d="M296 181h-146l-31 -181h-67l31 181h-60v57h71l35 205h-62v57h72l36 200h67l-35 -200h145l36 200h67l-35 -200h57v-57h-68l-35 -205h61v-57h-72l-31 -181h-67zM161 238h146l35 205h-145z" />
    <glyph glyph-name="dollar" unicode="$" horiz-adv-x="410" 
d="M240 102v-102h-60v102h-122v68q13 -7 39 -7h158q12 0 20.5 9.5t8.5 22.5v57q0 24 -15 35l-163 112q-48 25 -48 89v33q0 39 20 60t56 21h46v98h60v-98h113v-69q-15 8 -39 8h-158q-11 0 -20 -9.5t-9 -22.5v-22q0 -22 15 -33l167 -114q44 -23 44 -84v-78q0 -36 -19.5 -56
t-53.5 -20h-40z" />
    <glyph glyph-name="percent" unicode="%" horiz-adv-x="600" 
d="M445 700h69l-360 -700h-68zM216 461v140q0 48 -44 48h-25q-44 0 -44 -48v-140q0 -48 44 -48h25q44 0 44 48zM50 455v153q0 40 23 66t69 26h36q45 0 68 -26t23 -66v-152q0 -45 -24 -70t-70 -25h-36q-42 0 -65.5 24.5t-23.5 69.5zM497 100v140q0 48 -44 48h-25
q-44 0 -44 -48v-140q0 -48 44 -48h25q44 0 44 48zM331 94v153q0 40 23 66t69 26h36q45 0 68 -26t23 -66v-152q0 -45 -24 -70t-70 -25h-36q-42 0 -65.5 24.5t-23.5 69.5z" />
    <glyph glyph-name="ampersand" unicode="&#x26;" horiz-adv-x="643" 
d="M423 383h-236q-17 0 -28 -12.5t-11 -31.5v-230q0 -45 39 -45h143q16 0 29 5v-69h-185q-100 0 -100 102v220q0 94 97 94q-50 1 -73.5 24t-23.5 74v84q0 102 100 102h266v-71q-14 5 -30 5h-223q-39 0 -39 -44v-102q0 -19 11 -31.5t28 -12.5h236l71 57v-57h105v-61h-105
v-286q0 -33 29 -33h37q24 0 39 8v-72h-89q-87 0 -87 89v294z" />
    <glyph glyph-name="quotesingle" unicode="'" horiz-adv-x="202" 
d="M72 539l-6 161h60l-6 -161h-48z" />
    <glyph glyph-name="parenleft" unicode="(" horiz-adv-x="324" 
d="M278 -138v-62q-111 0 -156 38.5t-45 132.5v552q0 99 44 138t157 39v-63q-79 0 -103.5 -23.5t-24.5 -83.5v-560q0 -61 25 -84.5t103 -23.5z" />
    <glyph glyph-name="parenright" unicode=")" horiz-adv-x="324" 
d="M46 -138q78 0 103.5 23.5t25.5 84.5v560q0 61 -25 84t-104 23v63q113 0 157.5 -39t44.5 -138v-552q0 -94 -45.5 -132.5t-156.5 -38.5v62z" />
    <glyph glyph-name="asterisk" unicode="*" horiz-adv-x="428" 
d="M233 569l122 50l19 -55l-129 -32l85 -100l-47 -35l-69 112l-68 -112l-48 35l84 100l-128 31l19 55l122 -49l-10 131h57z" />
    <glyph glyph-name="plus" unicode="+" horiz-adv-x="462" 
d="M260 263v-148h-58v148h-147v57h147v148h58v-148h147v-57h-147z" />
    <glyph glyph-name="comma" unicode="," horiz-adv-x="205" 
d="M71 78h69v-81l-47 -142h-62l40 146v77z" />
    <glyph glyph-name="hyphen" unicode="-" horiz-adv-x="302" 
d="M249 261h-196v61h196v-61z" />
    <glyph glyph-name="hyphen" unicode="&#xad;" horiz-adv-x="302" 
d="M249 261h-196v61h196v-61z" />
    <glyph glyph-name="period" unicode="." horiz-adv-x="193" 
d="M59 0v78h75v-78h-75z" />
    <glyph glyph-name="slash" unicode="/" horiz-adv-x="435" 
d="M356 700h79l-352 -900h-80z" />
    <glyph glyph-name="zero" unicode="0" horiz-adv-x="517" 
d="M366 114v472q0 49 -45 49h-125q-45 0 -45 -49v-472q0 -49 45 -49h125q45 0 45 49zM78 102v496q0 47 25 74.5t75 27.5h161q50 0 74.5 -27.5t24.5 -74.5v-496q0 -47 -24.5 -74.5t-74.5 -27.5h-161q-50 0 -75 27.5t-25 74.5z" />
    <glyph glyph-name="one" unicode="1" horiz-adv-x="517" 
d="M117 65h123v538l-144 -98v77l214 138v-655h124v-65h-317v65z" />
    <glyph glyph-name="two" unicode="2" horiz-adv-x="517" 
d="M85 0v194q0 59 49 101l215 190q22 19 22 51v49q0 50 -45 50h-191q-24 0 -39 -8v73h248q50 0 75 -27t25 -75v-62q0 -33 -11.5 -57t-41.5 -50l-211 -185q-22 -19 -22 -51v-128h241q24 0 39 8v-73h-353z" />
    <glyph glyph-name="three" unicode="3" horiz-adv-x="517" 
d="M152 338q-15 0 -30 -3v67q15 -3 30 -3h166q48 0 48 56v131q0 49 -45 49h-219q-16 0 -30 -5v70h267q50 0 74.5 -27.5t24.5 -74.5v-124q0 -52 -22.5 -78.5t-71.5 -27.5q94 -4 94 -108v-158q0 -47 -24.5 -74.5t-74.5 -27.5h-267v70q13 -5 29 -5h219q46 0 46 50v166
q0 57 -48 57h-166z" />
    <glyph glyph-name="four" unicode="4" horiz-adv-x="517" 
d="M382 189v-189h-70v189h-265v51l257 460h78v-450h76q14 0 29 3v-67q-15 3 -29 3h-76zM312 250v353l-198 -353h198z" />
    <glyph glyph-name="five" unicode="5" horiz-adv-x="517" 
d="M340 0h-262v73q13 -8 38 -8h205q45 0 45 49v175q0 49 -45 49h-243v362h348v-70q-14 5 -30 5h-245v-236h188q50 0 74.5 -27.5t24.5 -74.5v-196q0 -47 -24 -74t-74 -27z" />
    <glyph glyph-name="six" unicode="6" horiz-adv-x="517" 
d="M151 399h188q50 0 74.5 -27.5t24.5 -74.5v-195q0 -47 -24.5 -74.5t-74.5 -27.5h-161q-50 0 -75 27.5t-25 74.5v496q0 47 25 74.5t75 27.5h254v-70q-14 5 -30 5h-206q-45 0 -45 -49v-187zM151 338v-224q0 -49 45 -49h126q44 0 44 49v175q0 49 -45 49h-170z" />
    <glyph glyph-name="seven" unicode="7" horiz-adv-x="517" 
d="M454 645l-235 -645h-78l241 638h-276q-29 0 -43 -5v67h391v-55z" />
    <glyph glyph-name="eight" unicode="8" horiz-adv-x="517" 
d="M178 0q-50 0 -75 27.5t-25 74.5v158q0 104 95 108q-95 3 -95 106v124q0 47 25 74.5t75 27.5h161q50 0 74.5 -27.5t24.5 -74.5v-124q0 -52 -22.5 -78.5t-71.5 -27.5q94 -4 94 -108v-158q0 -47 -24.5 -74.5t-74.5 -27.5h-161zM195 638q-45 0 -45 -49v-134q0 -56 47 -56h122
q48 0 48 56v134q0 49 -45 49h-127zM195 62h126q46 0 46 49v170q0 57 -48 57h-122q-47 0 -47 -57v-170q0 -49 45 -49z" />
    <glyph glyph-name="nine" unicode="9" horiz-adv-x="517" 
d="M363 328h-188q-50 0 -75 27.5t-25 74.5v168q0 47 25 74.5t75 27.5h161q50 0 74.5 -27.5t24.5 -74.5v-496q0 -47 -24.5 -74.5t-74.5 -27.5h-254v70q14 -5 30 -5h206q45 0 45 49v214zM363 389v197q0 49 -45 49h-126q-44 0 -44 -49v-148q0 -49 45 -49h170z" />
    <glyph glyph-name="colon" unicode=":" horiz-adv-x="200" 
d="M63 0v78h75v-78h-75zM63 422v78h75v-78h-75z" />
    <glyph glyph-name="semicolon" unicode=";" horiz-adv-x="205" 
d="M68 422v78h75v-78h-75zM71 78h69v-81l-47 -142h-62l40 146v77z" />
    <glyph glyph-name="less" unicode="&#x3c;" horiz-adv-x="462" 
d="M136 325l271 -158v-61l-352 192v50l352 192v-58z" />
    <glyph glyph-name="equal" unicode="=" horiz-adv-x="462" 
d="M407 378h-352v57h352v-57zM407 166h-352v58h352v-58z" />
    <glyph glyph-name="greater" unicode="&#x3e;" horiz-adv-x="462" 
d="M326 321l-271 158v61l352 -192v-50l-352 -192v58z" />
    <glyph glyph-name="question" unicode="?" horiz-adv-x="403" 
d="M152 151l-2 183q-1 53 45 99l88 82q22 22 22 52v24q0 47 -45 47h-174q-24 0 -39 -7v69h243q42 0 64.5 -24t22.5 -70v-34q0 -32 -10 -54.5t-35 -46.5l-88 -84q-21 -21 -21 -52l-2 -184h-69zM149 0v78h75v-78h-75z" />
    <glyph glyph-name="at" unicode="@" horiz-adv-x="734" 
d="M675 -5q0 -46 -26 -73.5t-74 -27.5h-394q-99 0 -99 102v495q0 46 25 73.5t76 27.5h230q47 0 73 -26.5t26 -77.5v-403h-183q-40 0 -62 23t-22 62v149q0 39 22 62.5t62 23.5h120v79q0 49 -45 49h-214q-46 0 -46 -49v-479q0 -49 46 -49h379q45 0 45 49v403h61v-413zM350 357
q-45 0 -45 -49v-118q0 -50 46 -50h98v217h-99z" />
    <glyph glyph-name="A" unicode="A" horiz-adv-x="502" 
d="M146 233h207l-103 384zM363 180h-227l-47 -180h-80l197 700h94l193 -700h-82z" />
    <glyph glyph-name="B" unicode="B" horiz-adv-x="556" 
d="M380 368q94 -4 94 -108v-158q0 -47 -25 -74.5t-75 -27.5h-300v700h300q50 0 75 -27.5t25 -74.5v-124q0 -105 -94 -106zM401 589q0 49 -45 49h-209v-242h207q47 0 47 56v137zM354 341h-207v-279h209q45 0 45 49v173q0 57 -47 57z" />
    <glyph glyph-name="C" unicode="C" horiz-adv-x="476" 
d="M194 65h216q26 0 39 8v-73h-273q-50 0 -74.5 27.5t-24.5 74.5v496q0 47 24.5 74.5t74.5 27.5h273v-73q-13 8 -39 8h-216q-45 0 -45 -49v-472q0 -49 45 -49z" />
    <glyph glyph-name="D" unicode="D" horiz-adv-x="553" 
d="M149 635v-570h210q45 0 45 49v472q0 49 -45 49h-210zM77 0v700h300q50 0 75 -27.5t25 -74.5v-496q0 -47 -25 -74.5t-75 -27.5h-300z" />
    <glyph glyph-name="E" unicode="E" horiz-adv-x="477" 
d="M404 638h-255v-239h203q14 0 29 3v-67q-15 3 -29 3h-203v-276h275q16 0 29 5v-67h-376v700h357v-67q-14 5 -30 5z" />
    <glyph glyph-name="F" unicode="F" horiz-adv-x="442" 
d="M149 0h-72v700h357v-67q-14 5 -30 5h-255v-239h203q14 0 29 3v-67q-15 3 -29 3h-203v-338z" />
    <glyph glyph-name="G" unicode="G" horiz-adv-x="552" 
d="M477 399v-297q0 -47 -25 -74.5t-75 -27.5h-201q-50 0 -74.5 27.5t-24.5 74.5v496q0 47 24.5 74.5t74.5 27.5h285v-73q-15 8 -39 8h-228q-45 0 -45 -49v-472q0 -49 45 -49h165q45 0 45 49v224h-104q-14 0 -29 -3v67q15 -3 29 -3h177z" />
    <glyph glyph-name="H" unicode="H" horiz-adv-x="553" 
d="M404 338h-255v-338h-72v700h72v-301h255v301h73v-700h-73v338z" />
    <glyph glyph-name="I" unicode="I" horiz-adv-x="226" 
d="M77 700h72v-700h-72v700z" />
    <glyph glyph-name="J" unicode="J" horiz-adv-x="331" 
d="M17 0v70q13 -5 29 -5h90q45 0 45 49v586h73v-598q0 -47 -25 -74.5t-75 -27.5h-137z" />
    <glyph glyph-name="K" unicode="K" horiz-adv-x="528" 
d="M239 338h-88v-338h-74v700h74v-301h88q33 0 52 44l115 257h81l-128 -279q-15 -36 -52 -51q36 -11 56 -58l138 -312h-84l-125 293q-10 25 -21.5 35t-31.5 10z" />
    <glyph glyph-name="L" unicode="L" horiz-adv-x="456" 
d="M149 700v-638h270q17 0 29 5v-67h-371v700h72z" />
    <glyph glyph-name="M" unicode="M" horiz-adv-x="650" 
d="M574 700v-700h-68v615l-144 -431h-75l-142 431v-615h-68v700h109l141 -437l143 437h104z" />
    <glyph glyph-name="N" unicode="N" horiz-adv-x="561" 
d="M403 0l-258 575v-575h-68v700h81l259 -575v575h67v-700h-81z" />
    <glyph glyph-name="O" unicode="O" horiz-adv-x="553" 
d="M404 114v472q0 49 -45 49h-165q-45 0 -45 -49v-472q0 -49 45 -49h165q45 0 45 49zM77 102v496q0 47 24.5 74.5t74.5 27.5h201q50 0 75 -27.5t25 -74.5v-496q0 -47 -25 -74.5t-75 -27.5h-201q-50 0 -74.5 27.5t-24.5 74.5z" />
    <glyph glyph-name="P" unicode="P" horiz-adv-x="524" 
d="M149 318v-318h-72v700h300q50 0 75 -27.5t25 -74.5v-178q0 -47 -24.5 -74.5t-74.5 -27.5h-229zM149 635v-252h210q45 0 45 49v154q0 49 -45 49h-210z" />
    <glyph glyph-name="Q" unicode="Q" horiz-adv-x="553" 
d="M281 65l-35 101h44l36 -101h34q44 0 44 49v472q0 49 -45 49h-165q-45 0 -45 -49v-472q0 -49 45 -49h87zM352 0l74 -200h-62l-65 200h-123q-50 0 -74.5 27.5t-24.5 74.5v496q0 47 24.5 74.5t74.5 27.5h201q50 0 75 -27.5t25 -74.5v-496q0 -45 -25 -73.5t-70 -28.5h-30z
" />
    <glyph glyph-name="R" unicode="R" horiz-adv-x="565" 
d="M383 341l129 -341h-79l-119 336h-165v-336h-72v700h300q50 0 75 -27.5t25 -74.5v-157q0 -51 -25 -75.5t-60 -24.5h-9zM149 635v-236h210q45 0 45 49v138q0 49 -45 49h-210z" />
    <glyph glyph-name="S" unicode="S" horiz-adv-x="498" 
d="M339 238l-225 183q-53 44 -53 109v68q0 48 24.5 75t74.5 27h255v-73q-15 8 -39 8h-198q-45 0 -45 -50v-54q0 -32 22 -51l225 -183q30 -24 41.5 -49t11.5 -60v-86q0 -48 -24.5 -75t-74.5 -27h-277v73q15 -8 39 -8h219q46 0 46 50v72q0 32 -22 51z" />
    <glyph glyph-name="T" unicode="T" horiz-adv-x="465" 
d="M269 635v-635h-73v635h-139q-16 0 -30 -5v70h411v-70q-14 5 -30 5h-139z" />
    <glyph glyph-name="U" unicode="U" horiz-adv-x="553" 
d="M477 700v-598q0 -47 -25 -74.5t-75 -27.5h-201q-50 0 -74.5 27.5t-24.5 74.5v598h72v-586q0 -49 45 -49h165q45 0 45 49v586h73z" />
    <glyph glyph-name="V" unicode="V" horiz-adv-x="502" 
d="M87 700l165 -617l167 617h74l-197 -700h-94l-193 700h78z" />
    <glyph glyph-name="W" unicode="W" horiz-adv-x="765" 
d="M382 570l-115 -570h-86l-163 700h75l135 -606l122 606h69l119 -606l137 606h71l-166 -700h-86z" />
    <glyph glyph-name="X" unicode="X" horiz-adv-x="534" 
d="M313 375l213 -375h-87l-173 318l-173 -318h-84l212 373l-183 327h88l142 -276l144 276h84z" />
    <glyph glyph-name="Y" unicode="Y" horiz-adv-x="523" 
d="M300 301v-301h-72v301l-227 399h88l175 -322l174 322h84z" />
    <glyph glyph-name="Z" unicode="Z" horiz-adv-x="497" 
d="M45 0v32l318 603h-278q-19 0 -32 -5v70h403v-29l-320 -609h283q20 0 32 5v-67h-406z" />
    <glyph glyph-name="bracketleft" unicode="[" horiz-adv-x="383" 
d="M156 -138h107q17 0 29 5v-67h-209v900h209v-67q-14 5 -30 5h-106v-776z" />
    <glyph glyph-name="backslash" unicode="\" horiz-adv-x="425" 
d="M77 700l348 -700h-76l-349 700h77z" />
    <glyph glyph-name="bracketright" unicode="]" horiz-adv-x="349" 
d="M195 -138v776h-106q-16 0 -30 -5v67h209v-900h-209v67q12 -5 29 -5h107z" />
    <glyph glyph-name="asciicircum" unicode="^" horiz-adv-x="361" 
d="M179 630l-120 -198h-49l150 268h41l151 -268h-52z" />
    <glyph glyph-name="underscore" unicode="_" horiz-adv-x="723" 
d="M666 -136h-609v60h609v-60z" />
    <glyph glyph-name="grave" unicode="`" horiz-adv-x="334" 
d="M150 700l104 -139h-54l-120 139h70z" />
    <glyph glyph-name="a" unicode="a" horiz-adv-x="462" 
d="M163 311h161v82q0 49 -44 49h-164q-26 0 -39 -8v66h216q50 0 75 -27t25 -74v-399h-230q-50 0 -75 27.5t-25 74.5v108q0 47 25 74t75 27zM177 260q-46 0 -46 -49v-103q0 -50 46 -50h147v202h-147z" />
    <glyph glyph-name="b" unicode="b" 
d="M138 441v-383h148q45 0 45 49v285q0 49 -45 49h-148zM69 0v700h69v-200h162q50 0 75 -27.5t25 -74.5v-296q0 -47 -25 -74.5t-75 -27.5h-231z" />
    <glyph glyph-name="c" unicode="c" horiz-adv-x="387" 
d="M318 440h-133q-47 0 -47 -50v-280q0 -51 47 -51h133q26 0 39 7v-66h-188q-50 0 -75 27.5t-25 74.5v296q0 47 25 74.5t75 27.5h188v-67q-13 7 -39 7z" />
    <glyph glyph-name="d" unicode="d" 
d="M331 441h-148q-45 0 -45 -49v-285q0 -49 45 -49h148v383zM400 0h-231q-50 0 -75 27.5t-25 74.5v296q0 47 25 74.5t75 27.5h162v200h69v-700z" />
    <glyph glyph-name="e" unicode="e" horiz-adv-x="454" 
d="M138 260v-154q0 -22 12 -35t33 -13h161q24 0 39 8v-66h-214q-50 0 -75 27.5t-25 74.5v296q0 47 25 74.5t76 27.5h123q50 0 75 -27.5t25 -74.5v-138h-255zM138 311h190v82q0 50 -45 50h-100q-45 0 -45 -50v-82z" />
    <glyph glyph-name="f" unicode="f" horiz-adv-x="275" 
d="M185 641q-47 0 -47 -51v-90h133v-59h-133v-441h-69v598q0 47 25 74.5t76 27.5h101v-67q-15 8 -39 8h-47z" />
    <glyph glyph-name="g" unicode="g" 
d="M331 58v383h-148q-45 0 -45 -50v-283q0 -50 45 -50h148zM331 -93v93h-162q-50 0 -75 27.5t-25 74.5v296q0 47 25 74.5t75 27.5h231v-598q0 -47 -25 -74.5t-75 -27.5h-214v66q15 -8 39 -8h159q47 0 47 49z" />
    <glyph glyph-name="h" unicode="h" 
d="M400 398v-398h-69v392q0 49 -45 49h-148v-441h-69v700h69v-200h161q51 0 76 -27.5t25 -74.5z" />
    <glyph glyph-name="i" unicode="i" horiz-adv-x="207" 
d="M69 500h69v-500h-69v500zM69 648h69v-76h-69v76z" />
    <glyph glyph-name="j" unicode="j" horiz-adv-x="207" 
d="M69 648h69v-76h-69v76zM138 500v-500q0 -109 -33 -200h-73q37 90 37 200v500h69z" />
    <glyph glyph-name="k" unicode="k" horiz-adv-x="446" 
d="M214 304q25 0 42 35l73 161h74l-82 -178q-16 -35 -41 -44q25 -12 39 -46l96 -232h-78l-80 209q-16 37 -42 37h-77v-246h-69v700h69v-396h76z" />
    <glyph glyph-name="l" unicode="l" horiz-adv-x="207" 
d="M69 700h69v-700h-69v700z" />
    <glyph glyph-name="m" unicode="m" horiz-adv-x="677" 
d="M607 399v-399h-68v392q0 49 -45 49h-76q-45 0 -45 -49v-392h-68v392q0 49 -45 49h-122v-441h-69v500h178q86 0 95 -66q4 29 26 47.5t57 18.5h82q49 0 74.5 -27t25.5 -74z" />
    <glyph glyph-name="n" unicode="n" 
d="M400 398v-398h-69v392q0 49 -45 49h-148v-441h-69v500h231q49 0 74.5 -27.5t25.5 -74.5z" />
    <glyph glyph-name="o" unicode="o" 
d="M331 107v285q0 49 -45 49h-103q-45 0 -45 -49v-285q0 -49 45 -49h103q45 0 45 49zM69 102v296q0 47 25 74.5t75 27.5h131q50 0 75 -27.5t25 -74.5v-296q0 -47 -25 -74.5t-75 -27.5h-131q-50 0 -75 27.5t-25 74.5z" />
    <glyph glyph-name="p" unicode="p" 
d="M138 58h148q45 0 45 49v285q0 49 -45 49h-148v-383zM69 500h231q50 0 75 -28t25 -74v-296q0 -47 -25.5 -74.5t-74.5 -27.5h-162v-200h-69v700z" />
    <glyph glyph-name="q" unicode="q" 
d="M331 58v383h-148q-45 0 -45 -49v-285q0 -49 45 -49h148zM400 500v-700h-69v200h-162q-50 0 -75 27t-25 75v296q0 48 25 75t76 27h230z" />
    <glyph glyph-name="r" unicode="r" horiz-adv-x="302" 
d="M253 437h-58q-57 0 -57 -70v-367h-69v500h60v-53q11 53 71 53h89v-71q-15 8 -36 8z" />
    <glyph glyph-name="s" unicode="s" horiz-adv-x="407" 
d="M153 500h188v-67q-13 8 -39 8h-139q-20 0 -32 -12.5t-12 -34.5v-13q0 -30 36 -55l132 -82q37 -23 52 -46t15 -64v-32q0 -49 -25.5 -75.5t-74.5 -26.5h-201v66q13 -7 39 -7h152q20 0 32 12.5t12 34.5v21q0 39 -32 60l-128 81q-42 26 -58.5 49.5t-16.5 62.5v18
q0 48 25.5 75t74.5 27z" />
    <glyph glyph-name="t" unicode="t" horiz-adv-x="303" 
d="M138 111q0 -51 47 -51h46q26 0 39 7v-67h-101q-50 0 -75 27.5t-25 74.5v493l69 40v-135h132v-59h-132v-330z" />
    <glyph glyph-name="u" unicode="u" 
d="M69 102v398h69v-393q0 -49 45 -49h148v442h69v-500h-231q-50 0 -75 27.5t-25 74.5z" />
    <glyph glyph-name="v" unicode="v" horiz-adv-x="410" 
d="M246 0h-83l-151 500h78l117 -429l116 429h75z" />
    <glyph glyph-name="w" unicode="w" horiz-adv-x="639" 
d="M359 500l85 -427l101 427h75l-137 -500h-82l-81 405l-83 -405h-83l-134 500h77l102 -427l85 427h75z" />
    <glyph glyph-name="x" unicode="x" horiz-adv-x="430" 
d="M254 251l154 -251h-80l-114 196l-114 -196h-78l154 249l-155 251h81l114 -197l114 197h78z" />
    <glyph glyph-name="y" unicode="y" horiz-adv-x="410" 
d="M184 -200h-78l69 200h-12l-151 500h78l117 -433l116 433h75z" />
    <glyph glyph-name="z" unicode="z" horiz-adv-x="409" 
d="M37 0v33l246 408h-206q-19 0 -32 -5v64h328v-28l-248 -413h208q19 0 32 5v-64h-328z" />
    <glyph glyph-name="braceleft" unicode="{" horiz-adv-x="331" 
d="M156 527v-190q0 -23 -14 -42.5t-34 -27.5q20 -8 34 -27.5t14 -42.5v-223q0 -64 25.5 -89t103.5 -25v-60q-111 0 -156 38.5t-45 132.5v210q0 29 -16 45t-41 16v49q25 0 41 15.5t16 44.5v172q0 99 44 138t157 39v-62q-79 0 -104 -24t-25 -87z" />
    <glyph glyph-name="bar" unicode="|" horiz-adv-x="215" 
d="M73 -200v900h69v-900h-69z" />
    <glyph glyph-name="braceright" unicode="}" horiz-adv-x="331" 
d="M175 527q0 63 -25 87t-104 24v62q113 0 157 -39t44 -138v-172q0 -29 15.5 -44.5t41.5 -15.5v-49q-25 0 -41 -16t-16 -45v-210q0 -94 -45 -132.5t-156 -38.5v60q78 0 103.5 25t25.5 89v223q0 23 14 42.5t34 27.5q-20 8 -34 27.5t-14 42.5v190z" />
    <glyph glyph-name="asciitilde" unicode="~" horiz-adv-x="473" 
d="M90 430h-47v28q0 62 27 96t72 34q35 0 70 -24.5t65 -49t54 -24.5q29 0 41 18t12 76h46v-37q0 -121 -96 -121q-27 0 -55 15t-47.5 33.5t-43 33.5t-43.5 15q-30 0 -42.5 -18.5t-12.5 -74.5z" />
    <glyph glyph-name="nbspace" unicode="&#xa0;" horiz-adv-x="263" 
 />
    <glyph glyph-name="exclamdown" unicode="&#xa1;" horiz-adv-x="200" 
d="M135 349l2 -549h-72l2 549h68zM139 500v-78h-76v78h76z" />
    <glyph glyph-name="cent" unicode="&#xa2;" horiz-adv-x="379" 
d="M240 102v-102h-60v102h-44q-38 0 -63.5 27t-25.5 74v297q0 48 26 75t63 27h44v98h60v-98h95v-67q-13 7 -39 7h-133q-47 0 -47 -50v-280q0 -51 47 -51h133q26 0 39 7v-66h-95z" />
    <glyph glyph-name="sterling" unicode="&#xa3;" horiz-adv-x="463" 
d="M77 318h-39v57h39v223q0 102 99 102h141v-73q-13 8 -39 8h-82q-47 0 -47 -51v-209h160v-57h-160v-255h261q26 0 39 8v-71h-372v318z" />
    <glyph glyph-name="currency" unicode="&#xa4;" horiz-adv-x="513" 
d="M352 225v245q0 49 -45 49h-103q-45 0 -45 -49v-245q0 -23 12 -36t33 -13h103q45 0 45 49zM498 0h-70l-74 125q-15 -9 -39 -9h-116q-22 0 -36 7l-73 -123h-70l88 147q-17 22 -17 55v290q0 36 18 59l-89 149h70l74 -126q15 6 35 6h116q21 0 38 -7l75 127h70l-93 -154
q16 -22 16 -54v-290q0 -30 -15 -51z" />
    <glyph glyph-name="yen" unicode="&#xa5;" horiz-adv-x="523" 
d="M228 200h-77v52h77v49l-230 399h90l176 -322l175 322h86l-225 -399v-49h74v-52h-74v-200h-72v200z" />
    <glyph glyph-name="brokenbar" unicode="&#xa6;" horiz-adv-x="215" 
d="M73 -200v375h68v-375h-68zM73 324v376h68v-376h-68z" />
    <glyph glyph-name="section" unicode="&#xa7;" horiz-adv-x="434" 
d="M155 700h207v-67q-15 8 -39 8h-160q-20 0 -32 -12.5t-12 -34.5v-24q0 -31 36 -57l171 -134q30 -24 42.5 -47.5t12.5 -64.5v-365q0 -102 -98 -102h-218v66q13 -7 39 -7h168q43 0 43 47v45q0 40 -31 63l-167 133q-35 27 -49.5 51.5t-14.5 63.5v332q0 51 26.5 78.5
t75.5 27.5zM315 56v211q0 49 -34 74l-128 95q-26 19 -34 42v-223q0 -38 38 -66l126 -94q21 -16 32 -39z" />
    <glyph glyph-name="dieresis" unicode="&#xa8;" horiz-adv-x="353" 
d="M78 663h55v-71h-55v71zM220 663h55v-71h-55v71z" />
    <glyph glyph-name="copyright" unicode="&#xa9;" horiz-adv-x="668" 
d="M534 98v504q0 51 -46 51h-308q-47 0 -47 -51v-504q0 -51 47 -51h308q46 0 46 51zM78 102v496q0 47 25 74.5t75 27.5h312q49 0 74 -27.5t25 -74.5v-496q0 -47 -25 -74.5t-74 -27.5h-312q-50 0 -75 27.5t-25 74.5zM286 157h163q19 0 28 5v-50h-219q-30 0 -46 17.5t-16 46.5
v351q0 31 16.5 48.5t48.5 17.5h216v-52q-9 5 -28 5h-163q-37 0 -37 -41v-308q0 -40 37 -40z" />
    <glyph glyph-name="ordfeminine" unicode="&#xaa;" horiz-adv-x="462" 
d="M393 0h-330v57h330v-57zM163 511h161v82q0 49 -44 49h-164q-26 0 -39 -8v66h216q50 0 75 -27t25 -74v-399h-230q-50 0 -75 27.5t-25 74.5v108q0 47 25 74t75 27zM177 460q-46 0 -46 -49v-103q0 -50 46 -50h147v202h-147z" />
    <glyph glyph-name="guillemotleft" unicode="&#xab;" horiz-adv-x="599" 
d="M110 297l198 -161v-71l-268 202v56l268 202v-67zM361 297l198 -161v-71l-268 202v56l268 202v-67z" />
    <glyph glyph-name="logicalnot" unicode="&#xac;" horiz-adv-x="464" 
d="M407 0h-70v261h-282v60h352v-321z" />
    <glyph glyph-name="registered" unicode="&#xae;" horiz-adv-x="668" 
d="M534 98v504q0 51 -46 51h-308q-47 0 -47 -51v-504q0 -51 47 -51h308q46 0 46 51zM78 102v496q0 47 25 74.5t75 27.5h312q49 0 74 -27.5t25 -74.5v-496q0 -47 -25 -74.5t-74 -27.5h-312q-50 0 -75 27.5t-25 74.5zM404 337l95 -225h-55l-88 225h-109v-225h-51v481h213
q29 0 45.5 -17.5t16.5 -47.5v-123q0 -31 -15 -49.5t-44 -18.5h-8zM247 548v-168h138q35 0 35 39v90q0 39 -35 39h-138z" />
    <glyph glyph-name="macron" unicode="&#xaf;" horiz-adv-x="373" 
d="M293 596h-213v51h213v-51z" />
    <glyph glyph-name="macron" unicode="&#x2c9;" horiz-adv-x="373" 
d="M293 596h-213v51h213v-51z" />
    <glyph glyph-name="degree" unicode="&#xb0;" horiz-adv-x="331" 
d="M227 462v138q0 48 -44 48h-34q-44 0 -44 -48v-138q0 -48 44 -48h34q44 0 44 48zM51 455v153q0 41 22.5 66.5t69.5 25.5h47q45 0 68 -25.5t23 -66.5v-152q0 -45 -23.5 -70t-69.5 -25h-48q-42 0 -65.5 24.5t-23.5 69.5z" />
    <glyph glyph-name="plusminus" unicode="&#xb1;" horiz-adv-x="462" 
d="M260 290v-147h-58v147h-147v58h147v147h58v-147h147v-58h-147zM407 0h-352v60h352v-60z" />
    <glyph glyph-name="twosuperior" unicode="&#xb2;" horiz-adv-x="346" 
d="M46 324v51q0 83 61 114l108 54q23 12 23 44v18q0 22 -7.5 31.5t-28.5 9.5h-108q-21 0 -36 -8v62h148q52 0 74 -22t22 -73v-18q0 -43 -13.5 -60t-59.5 -40l-96 -48q-26 -12 -26 -44v-16h150q26 0 39 7v-62h-250z" />
    <glyph glyph-name="threesuperior" unicode="&#xb3;" horiz-adv-x="346" 
d="M118 489q-14 0 -28 -3v60q14 -3 28 -3h73q20 0 27.5 10t7.5 38v11q0 24 -9 33t-32 9h-102q-15 0 -29 -5v61h144q92 0 92 -80v-20q0 -79 -87 -82q48 -2 67.5 -20t19.5 -63v-17q0 -47 -21 -69.5t-71 -22.5h-144v60q13 -5 28 -5h102q24 0 33 9t9 33v16q0 31 -7 40.5t-28 9.5
h-73z" />
    <glyph glyph-name="acute" unicode="&#xb4;" horiz-adv-x="334" 
d="M184 700h70l-120 -139h-54z" />
    <glyph glyph-name="mu" unicode="&#xb5;" 
d="M135 24l3 -224h-69v700h69v-393q0 -49 45 -49h148v442h69v-500h-211q-37 0 -54 24z" />
    <glyph glyph-name="mu" unicode="&#x3bc;" 
d="M135 24l3 -224h-69v700h69v-393q0 -49 45 -49h148v442h69v-500h-211q-37 0 -54 24z" />
    <glyph glyph-name="paragraph" unicode="&#xb6;" horiz-adv-x="524" 
d="M404 321h-243q-40 0 -62 23.5t-22 65.5v204q0 39 22 62.5t62 23.5h316v-700h-73v321z" />
    <glyph glyph-name="periodcentered" unicode="&#xb7;" horiz-adv-x="199" 
d="M55 248v86h83v-86h-83z" />
    <glyph glyph-name="periodcentered" unicode="&#x2219;" horiz-adv-x="199" 
d="M55 248v86h83v-86h-83z" />
    <glyph glyph-name="cedilla" unicode="&#xb8;" horiz-adv-x="345" 
d="M174 -39h23q39 0 57 -17.5t18 -53.5v-15q0 -75 -75 -75h-122l13 38h87q23 0 33 9.5t10 32.5v8q0 23 -10 32.5t-32 9.5h-56l26 77h44z" />
    <glyph glyph-name="onesuperior" unicode="&#xb9;" horiz-adv-x="346" 
d="M61 381h89v245l-100 -59v61l165 84v-331h82v-55h-236v55z" />
    <glyph glyph-name="ordmasculine" unicode="&#xba;" 
d="M400 0h-331v57h331v-57zM331 307v285q0 49 -45 49h-103q-45 0 -45 -49v-285q0 -49 45 -49h103q45 0 45 49zM69 302v296q0 47 25 74.5t75 27.5h131q50 0 75 -27.5t25 -74.5v-296q0 -47 -25 -74.5t-75 -27.5h-131q-50 0 -75 27.5t-25 74.5z" />
    <glyph glyph-name="guillemotright" unicode="&#xbb;" horiz-adv-x="599" 
d="M489 293l-198 161v71l268 -202v-56l-268 -202v67zM238 293l-198 161v71l268 -202v-56l-268 -202v67z" />
    <glyph glyph-name="onequarter" unicode="&#xbc;" horiz-adv-x="776" 
d="M553 700h73l-392 -700h-74zM54 381h89v245l-100 -59v61l165 84v-331h82v-55h-236v55zM660 76v-76h-60v76h-172v45l165 252h67v-243h43q14 0 29 3v-60q-15 3 -29 3h-43zM600 130v169l-104 -169h104z" />
    <glyph glyph-name="onehalf" unicode="&#xbd;" horiz-adv-x="776" 
d="M548 700h74l-393 -700h-73zM54 381h89v245l-100 -59v61l165 84v-331h82v-55h-236v55zM473 0v51q0 83 61 114l108 54q23 12 23 44v18q0 22 -7.5 31.5t-28.5 9.5h-108q-21 0 -36 -8v62h148q51 0 73.5 -22t22.5 -73v-18q0 -43 -13.5 -60t-59.5 -40l-96 -48q-26 -12 -26 -44
v-16h150q26 0 39 7v-62h-250z" />
    <glyph glyph-name="threequarters" unicode="&#xbe;" horiz-adv-x="776" 
d="M553 700h73l-392 -700h-74zM660 76v-76h-60v76h-172v45l165 252h67v-243h43q14 0 29 3v-60q-15 3 -29 3h-43zM600 130v169l-104 -169h104zM135 489q-15 0 -28 -3v60q13 -3 28 -3h73q20 0 27.5 10t7.5 38v11q0 24 -9 33t-32 9h-102q-15 0 -29 -5v61h144q92 0 92 -80v-20
q0 -79 -87 -82q48 -2 67.5 -20t19.5 -63v-17q0 -47 -21 -69.5t-71 -22.5h-144v60q12 -5 28 -5h102q24 0 33 9t9 33v16q0 31 -7 40.5t-28 9.5h-73z" />
    <glyph glyph-name="questiondown" unicode="&#xbf;" horiz-adv-x="403" 
d="M273 349l2 -183q1 -54 -45 -99l-87 -82q-22 -21 -22 -52v-24q0 -22 12 -34.5t32 -12.5h174q24 0 39 7v-69h-243q-42 0 -64.5 24t-22.5 70v34q0 56 45 101l88 84q22 21 22 52l2 184h68zM276 500v-78h-75v78h75z" />
    <glyph glyph-name="Agrave" unicode="&#xc0;" horiz-adv-x="502" 
d="M146 233h207l-103 384zM363 180h-227l-47 -180h-80l197 700h94l193 -700h-82zM207 829l104 -100h-54l-120 100h70z" />
    <glyph glyph-name="Aacute" unicode="&#xc1;" horiz-adv-x="502" 
d="M146 233h207l-103 384zM363 180h-227l-47 -180h-80l197 700h94l193 -700h-82zM298 829h67l-120 -100h-52z" />
    <glyph glyph-name="Acircumflex" unicode="&#xc2;" horiz-adv-x="502" 
d="M146 233h207l-103 384zM363 180h-227l-47 -180h-80l197 700h94l193 -700h-82zM248 793l-72 -64h-52l98 100h54l98 -100h-53z" />
    <glyph glyph-name="Atilde" unicode="&#xc3;" horiz-adv-x="502" 
d="M146 233h207l-103 384zM363 180h-227l-47 -180h-80l197 700h94l193 -700h-82zM140 729h-37v20q0 82 79 82q32 0 76.5 -31.5t65.5 -31.5t30 12t9 49h37v-18q0 -46 -19 -65t-57 -19q-32 0 -77 31.5t-65 31.5q-22 0 -32 -12.5t-10 -48.5z" />
    <glyph glyph-name="Adieresis" unicode="&#xc4;" horiz-adv-x="502" 
d="M146 233h207l-103 384zM363 180h-227l-47 -180h-80l197 700h94l193 -700h-82zM153 809h55v-56h-55v56zM295 809h55v-56h-55v56z" />
    <glyph glyph-name="Aring" unicode="&#xc5;" horiz-adv-x="502" 
d="M146 233h207l-103 384zM363 180h-227l-47 -180h-80l197 700h94l193 -700h-82zM314 783q0 28 -41 28h-45q-41 0 -41 -28v-8q0 -26 41 -26h45q41 0 41 26v8zM361 770q0 -22 -20 -36t-57 -14h-66q-38 0 -57.5 14t-19.5 35v21q0 22 19.5 37t57.5 15h66q36 0 56.5 -15.5
t20.5 -37.5v-19z" />
    <glyph glyph-name="AE" unicode="&#xc6;" horiz-adv-x="772" 
d="M372 180h-230l-97 -180h-84l377 700h392v-67q-14 5 -30 5h-255v-239h202q14 0 29 3v-67q-15 3 -29 3h-202v-276h274q17 0 29 5v-67h-376v180zM372 233v386l-209 -386h209z" />
    <glyph glyph-name="Ccedilla" unicode="&#xc7;" horiz-adv-x="476" 
d="M298 -39h23q39 0 57 -17.5t18 -53.5v-15q0 -75 -75 -75h-122l13 38h87q23 0 33 9.5t10 32.5v8q0 23 -10 32.5t-32 9.5h-56l23 70h-91q-50 0 -74.5 27.5t-24.5 74.5v496q0 47 24.5 74.5t74.5 27.5h273v-73q-13 8 -39 8h-216q-45 0 -45 -49v-472q0 -49 45 -49h216
q26 0 39 8v-73h-138z" />
    <glyph glyph-name="Egrave" unicode="&#xc8;" horiz-adv-x="477" 
d="M404 638h-255v-239h203q14 0 29 3v-67q-15 3 -29 3h-203v-276h275q16 0 29 5v-67h-376v700h357v-67q-14 5 -30 5zM226 829l104 -100h-54l-120 100h70z" />
    <glyph glyph-name="Eacute" unicode="&#xc9;" horiz-adv-x="477" 
d="M404 638h-255v-239h203q14 0 29 3v-67q-15 3 -29 3h-203v-276h275q16 0 29 5v-67h-376v700h357v-67q-14 5 -30 5zM314 829h67l-120 -100h-52z" />
    <glyph glyph-name="Ecircumflex" unicode="&#xca;" horiz-adv-x="477" 
d="M404 638h-255v-239h203q14 0 29 3v-67q-15 3 -29 3h-203v-276h275q16 0 29 5v-67h-376v700h357v-67q-14 5 -30 5zM261 793l-72 -64h-52l98 100h54l98 -100h-53z" />
    <glyph glyph-name="Edieresis" unicode="&#xcb;" horiz-adv-x="477" 
d="M404 638h-255v-239h203q14 0 29 3v-67q-15 3 -29 3h-203v-276h275q16 0 29 5v-67h-376v700h357v-67q-14 5 -30 5zM164 809h55v-56h-55v56zM306 809h55v-56h-55v56z" />
    <glyph glyph-name="Igrave" unicode="&#xcc;" horiz-adv-x="226" 
d="M77 700h72v-700h-72v700zM48 829l104 -100h-54l-120 100h70z" />
    <glyph glyph-name="Iacute" unicode="&#xcd;" horiz-adv-x="226" 
d="M77 700h72v-700h-72v700zM165 829h67l-120 -100h-52z" />
    <glyph glyph-name="Icircumflex" unicode="&#xce;" horiz-adv-x="226" 
d="M77 700h72v-700h-72v700zM112 793l-72 -64h-52l98 100h54l98 -100h-53z" />
    <glyph glyph-name="Idieresis" unicode="&#xcf;" horiz-adv-x="226" 
d="M77 700h72v-700h-72v700zM15 809h55v-56h-55v56zM157 809h55v-56h-55v56z" />
    <glyph glyph-name="Eth" unicode="&#xd0;" horiz-adv-x="553" 
d="M76 0v338h-58v51h58v311h301q49 0 74 -33.5t25 -79.5v-483q0 -45 -25.5 -74.5t-73.5 -29.5h-301zM231 338h-82v-273h209q45 0 45 49v471q0 49 -44 49h-210v-245h82v-51z" />
    <glyph glyph-name="Ntilde" unicode="&#xd1;" horiz-adv-x="561" 
d="M403 0l-258 575v-575h-68v700h81l259 -575v575h67v-700h-81zM182 729h-37v20q0 82 79 82q32 0 76.5 -31.5t65.5 -31.5t30 12t9 49h37v-18q0 -46 -19 -65t-57 -19q-32 0 -77 31.5t-65 31.5q-22 0 -32 -12.5t-10 -48.5z" />
    <glyph glyph-name="Ograve" unicode="&#xd2;" horiz-adv-x="553" 
d="M404 114v472q0 49 -45 49h-165q-45 0 -45 -49v-472q0 -49 45 -49h165q45 0 45 49zM77 102v496q0 47 24.5 74.5t74.5 27.5h201q50 0 75 -27.5t25 -74.5v-496q0 -47 -25 -74.5t-75 -27.5h-201q-50 0 -74.5 27.5t-24.5 74.5zM237 829l104 -100h-54l-120 100h70z" />
    <glyph glyph-name="Oacute" unicode="&#xd3;" horiz-adv-x="553" 
d="M404 114v472q0 49 -45 49h-165q-45 0 -45 -49v-472q0 -49 45 -49h165q45 0 45 49zM77 102v496q0 47 24.5 74.5t74.5 27.5h201q50 0 75 -27.5t25 -74.5v-496q0 -47 -25 -74.5t-75 -27.5h-201q-50 0 -74.5 27.5t-24.5 74.5zM333 829h67l-120 -100h-52z" />
    <glyph glyph-name="Ocircumflex" unicode="&#xd4;" horiz-adv-x="553" 
d="M404 114v472q0 49 -45 49h-165q-45 0 -45 -49v-472q0 -49 45 -49h165q45 0 45 49zM77 102v496q0 47 24.5 74.5t74.5 27.5h201q50 0 75 -27.5t25 -74.5v-496q0 -47 -25 -74.5t-75 -27.5h-201q-50 0 -74.5 27.5t-24.5 74.5zM276 793l-72 -64h-52l98 100h54l98 -100h-53z
" />
    <glyph glyph-name="Otilde" unicode="&#xd5;" horiz-adv-x="553" 
d="M404 114v472q0 49 -45 49h-165q-45 0 -45 -49v-472q0 -49 45 -49h165q45 0 45 49zM77 102v496q0 47 24.5 74.5t74.5 27.5h201q50 0 75 -27.5t25 -74.5v-496q0 -47 -25 -74.5t-75 -27.5h-201q-50 0 -74.5 27.5t-24.5 74.5zM166 729h-37v20q0 82 79 82q32 0 76.5 -31.5
t65.5 -31.5t30 12t9 49h37v-18q0 -46 -19 -65t-57 -19q-32 0 -77 31.5t-65 31.5q-22 0 -32 -12.5t-10 -48.5z" />
    <glyph glyph-name="Odieresis" unicode="&#xd6;" horiz-adv-x="553" 
d="M404 114v472q0 49 -45 49h-165q-45 0 -45 -49v-472q0 -49 45 -49h165q45 0 45 49zM77 102v496q0 47 24.5 74.5t74.5 27.5h201q50 0 75 -27.5t25 -74.5v-496q0 -47 -25 -74.5t-75 -27.5h-201q-50 0 -74.5 27.5t-24.5 74.5zM179 809h55v-56h-55v56zM321 809h55v-56h-55v56z
" />
    <glyph glyph-name="multiply" unicode="&#xd7;" horiz-adv-x="462" 
d="M231 251l-105 -104l-40 40l105 104l-105 105l40 40l105 -105l104 105l41 -40l-105 -105l105 -104l-41 -40z" />
    <glyph glyph-name="Oslash" unicode="&#xd8;" horiz-adv-x="557" 
d="M406 488l-255 -345v-29q0 -49 45 -49h164q46 0 46 49v374zM92 64l-48 -64h-49l83 110v488q0 47 25 74.5t75 27.5h201q36 0 59 -18t27 -47l49 65h49l-85 -112v-486q0 -47 -24.5 -74.5t-74.5 -27.5h-201q-36 0 -58.5 17.5t-27.5 46.5zM151 210l255 345v31q0 49 -45 49h-165
q-45 0 -45 -49v-376z" />
    <glyph glyph-name="Ugrave" unicode="&#xd9;" horiz-adv-x="553" 
d="M477 700v-598q0 -47 -25 -74.5t-75 -27.5h-201q-50 0 -74.5 27.5t-24.5 74.5v598h72v-586q0 -49 45 -49h165q45 0 45 49v586h73zM232 829l104 -100h-54l-120 100h70z" />
    <glyph glyph-name="Uacute" unicode="&#xda;" horiz-adv-x="553" 
d="M477 700v-598q0 -47 -25 -74.5t-75 -27.5h-201q-50 0 -74.5 27.5t-24.5 74.5v598h72v-586q0 -49 45 -49h165q45 0 45 49v586h73zM330 829h67l-120 -100h-52z" />
    <glyph glyph-name="Ucircumflex" unicode="&#xdb;" horiz-adv-x="553" 
d="M477 700v-598q0 -47 -25 -74.5t-75 -27.5h-201q-50 0 -74.5 27.5t-24.5 74.5v598h72v-586q0 -49 45 -49h165q45 0 45 49v586h73zM276 793l-72 -64h-52l98 100h54l98 -100h-53z" />
    <glyph glyph-name="Udieresis" unicode="&#xdc;" horiz-adv-x="553" 
d="M477 700v-598q0 -47 -25 -74.5t-75 -27.5h-201q-50 0 -74.5 27.5t-24.5 74.5v598h72v-586q0 -49 45 -49h165q45 0 45 49v586h73zM179 809h55v-56h-55v56zM321 809h55v-56h-55v56z" />
    <glyph glyph-name="Yacute" unicode="&#xdd;" horiz-adv-x="523" 
d="M300 301v-301h-72v301l-227 399h88l175 -322l174 322h84zM321 829h67l-120 -100h-52z" />
    <glyph glyph-name="Thorn" unicode="&#xde;" horiz-adv-x="524" 
d="M76 700h73v-146h221q106 0 106 -102v-179q0 -101 -105 -101h-222v-172h-73v700zM149 488v-251h210q44 0 44 49v153q0 49 -44 49h-210z" />
    <glyph glyph-name="germandbls" unicode="&#xdf;" horiz-adv-x="486" 
d="M325 641h-140q-47 0 -47 -51v-590h-69v599q0 46 25.5 73.5t75.5 27.5h167q49 0 74.5 -25.5t25.5 -71.5v-40q0 -40 -14.5 -63t-47.5 -45l-53 -36q-36 -26 -36 -60q0 -31 36 -56l53 -36q33 -21 46.5 -45t13.5 -63v-57q0 -50 -26.5 -76t-72.5 -26h-129v66q12 -7 38 -7h81
q43 0 43 47v49q0 22 -6.5 34t-24.5 25l-50 35q-36 25 -51.5 48.5t-15.5 62.5q0 37 14.5 60t52.5 50l48 37q18 13 25 25.5t7 34.5v27q0 47 -43 47z" />
    <glyph glyph-name="agrave" unicode="&#xe0;" horiz-adv-x="462" 
d="M163 311h161v82q0 49 -44 49h-164q-26 0 -39 -8v66h216q50 0 75 -27t25 -74v-399h-230q-50 0 -75 27.5t-25 74.5v108q0 47 25 74t75 27zM177 260q-46 0 -46 -49v-103q0 -50 46 -50h147v202h-147zM183 700l104 -139h-54l-120 139h70z" />
    <glyph glyph-name="aacute" unicode="&#xe1;" horiz-adv-x="462" 
d="M163 311h161v82q0 49 -44 49h-164q-26 0 -39 -8v66h216q50 0 75 -27t25 -74v-399h-230q-50 0 -75 27.5t-25 74.5v108q0 47 25 74t75 27zM177 260q-46 0 -46 -49v-103q0 -50 46 -50h147v202h-147zM265 700h70l-120 -139h-54z" />
    <glyph glyph-name="acircumflex" unicode="&#xe2;" horiz-adv-x="462" 
d="M163 311h161v82q0 49 -44 49h-164q-26 0 -39 -8v66h216q50 0 75 -27t25 -74v-399h-230q-50 0 -75 27.5t-25 74.5v108q0 47 25 74t75 27zM177 260q-46 0 -46 -49v-103q0 -50 46 -50h147v202h-147zM228 655l-72 -94h-52l98 139h54l98 -139h-53z" />
    <glyph glyph-name="atilde" unicode="&#xe3;" horiz-adv-x="462" 
d="M163 311h161v82q0 49 -44 49h-164q-26 0 -39 -8v66h216q50 0 75 -27t25 -74v-399h-230q-50 0 -75 27.5t-25 74.5v108q0 47 25 74t75 27zM177 260q-46 0 -46 -49v-103q0 -50 46 -50h147v202h-147zM117 562h-37v27q0 112 79 112q32 0 76.5 -44t65.5 -44t30 17t9 68h37v-25
q0 -62 -19 -88t-57 -26q-25 0 -51.5 22t-49.5 44t-41 22q-22 0 -32 -18t-10 -67z" />
    <glyph glyph-name="adieresis" unicode="&#xe4;" horiz-adv-x="462" 
d="M163 311h161v82q0 49 -44 49h-164q-26 0 -39 -8v66h216q50 0 75 -27t25 -74v-399h-230q-50 0 -75 27.5t-25 74.5v108q0 47 25 74t75 27zM177 260q-46 0 -46 -49v-103q0 -50 46 -50h147v202h-147zM130 663h55v-71h-55v71zM272 663h55v-71h-55v71z" />
    <glyph glyph-name="aring" unicode="&#xe5;" horiz-adv-x="462" 
d="M163 311h161v82q0 49 -44 49h-164q-26 0 -39 -8v66h216q50 0 75 -27t25 -74v-399h-230q-50 0 -75 27.5t-25 74.5v108q0 47 25 74t75 27zM177 260q-46 0 -46 -49v-103q0 -50 46 -50h147v202h-147zM291 643q0 22 -9.5 30.5t-31.5 8.5h-45q-22 0 -31.5 -8.5t-9.5 -30.5v-15
q0 -21 9.5 -29.5t31.5 -8.5h45q22 0 31.5 8.5t9.5 29.5v15zM338 623q0 -69 -77 -69h-66q-77 0 -77 68v29q0 68 77 68h66q77 0 77 -68v-28z" />
    <glyph glyph-name="ae" unicode="&#xe6;" horiz-adv-x="709" 
d="M287 0h-124q-50 0 -75 27.5t-25 74.5v108q0 47 25 74t75 27h161v82q0 49 -44 49h-164q-26 0 -39 -8v66h210q25 0 45.5 -12t28.5 -32q20 44 75 44h111q51 0 76 -27.5t25 -74.5v-138h-255v-154q0 -48 44 -48h162q24 0 39 7v-65h-202q-55 0 -75 44q-18 -44 -74 -44zM324 108
v152h-148q-45 0 -45 -49v-103q0 -50 46 -50h102q45 0 45 50zM393 311h190v82q0 50 -45 50h-101q-44 0 -44 -50v-82z" />
    <glyph glyph-name="ccedilla" unicode="&#xe7;" horiz-adv-x="387" 
d="M243 -39h23q39 0 57 -17.5t18 -53.5v-15q0 -75 -75 -75h-122l13 38h87q23 0 33 9.5t10 32.5v8q0 23 -10 32.5t-32 9.5h-56l23 70h-43q-50 0 -75 27.5t-25 74.5v296q0 47 25 74.5t75 27.5h188v-67q-13 7 -39 7h-133q-47 0 -47 -50v-280q0 -51 47 -51h133q26 0 39 7v-66
h-101z" />
    <glyph glyph-name="egrave" unicode="&#xe8;" horiz-adv-x="454" 
d="M138 260v-154q0 -22 12 -35t33 -13h161q24 0 39 8v-66h-214q-50 0 -75 27.5t-25 74.5v296q0 47 25 74.5t76 27.5h123q50 0 75 -27.5t25 -74.5v-138h-255zM138 311h190v82q0 50 -45 50h-100q-45 0 -45 -50v-82zM193 700l104 -139h-54l-120 139h70z" />
    <glyph glyph-name="eacute" unicode="&#xe9;" horiz-adv-x="454" 
d="M138 260v-154q0 -22 12 -35t33 -13h161q24 0 39 8v-66h-214q-50 0 -75 27.5t-25 74.5v296q0 47 25 74.5t76 27.5h123q50 0 75 -27.5t25 -74.5v-138h-255zM138 311h190v82q0 50 -45 50h-100q-45 0 -45 -50v-82zM285 700h70l-120 -139h-54z" />
    <glyph glyph-name="ecircumflex" unicode="&#xea;" horiz-adv-x="454" 
d="M138 260v-154q0 -22 12 -35t33 -13h161q24 0 39 8v-66h-214q-50 0 -75 27.5t-25 74.5v296q0 47 25 74.5t76 27.5h123q50 0 75 -27.5t25 -74.5v-138h-255zM138 311h190v82q0 50 -45 50h-100q-45 0 -45 -50v-82zM233 655l-72 -94h-52l98 139h54l98 -139h-53z" />
    <glyph glyph-name="edieresis" unicode="&#xeb;" horiz-adv-x="454" 
d="M138 260v-154q0 -22 12 -35t33 -13h161q24 0 39 8v-66h-214q-50 0 -75 27.5t-25 74.5v296q0 47 25 74.5t76 27.5h123q50 0 75 -27.5t25 -74.5v-138h-255zM138 311h190v82q0 50 -45 50h-100q-45 0 -45 -50v-82zM132 663h55v-71h-55v71zM274 663h55v-71h-55v71z" />
    <glyph glyph-name="igrave" unicode="&#xec;" horiz-adv-x="207" 
d="M69 500h69v-500h-69v500zM51 700l104 -139h-54l-120 139h70z" />
    <glyph glyph-name="iacute" unicode="&#xed;" horiz-adv-x="207" 
d="M69 500h69v-500h-69v500zM150 700h70l-120 -139h-54z" />
    <glyph glyph-name="icircumflex" unicode="&#xee;" horiz-adv-x="207" 
d="M69 500h69v-500h-69v500zM102 655l-72 -94h-52l98 139h54l98 -139h-53z" />
    <glyph glyph-name="idieresis" unicode="&#xef;" horiz-adv-x="207" 
d="M69 500h69v-500h-69v500zM5 663h55v-71h-55v71zM147 663h55v-71h-55v71z" />
    <glyph glyph-name="eth" unicode="&#xf0;" horiz-adv-x="517" 
d="M366 338h-170q-45 0 -45 -49v-175q0 -49 44 -49h126q45 0 45 49v224zM268 596l149 -159q21 -22 21 -71v-264q0 -47 -24.5 -74.5t-74.5 -27.5h-161q-50 0 -75 27.5t-25 74.5v195q0 47 25 74.5t75 27.5h189l-151 162l-61 -48l-30 32l62 48l-100 107h83l68 -72l59 45l30 -31
z" />
    <glyph glyph-name="ntilde" unicode="&#xf1;" 
d="M400 398v-398h-69v392q0 49 -45 49h-148v-441h-69v500h231q49 0 74.5 -27.5t25.5 -74.5zM123 562h-37v27q0 112 79 112q32 0 76.5 -44t65.5 -44t30 17t9 68h37v-25q0 -62 -19 -88t-57 -26q-25 0 -51.5 22t-49.5 44t-41 22q-22 0 -32 -18t-10 -67z" />
    <glyph glyph-name="ograve" unicode="&#xf2;" 
d="M331 107v285q0 49 -45 49h-103q-45 0 -45 -49v-285q0 -49 45 -49h103q45 0 45 49zM69 102v296q0 47 25 74.5t75 27.5h131q50 0 75 -27.5t25 -74.5v-296q0 -47 -25 -74.5t-75 -27.5h-131q-50 0 -75 27.5t-25 74.5zM196 700l104 -139h-54l-120 139h70z" />
    <glyph glyph-name="oacute" unicode="&#xf3;" 
d="M331 107v285q0 49 -45 49h-103q-45 0 -45 -49v-285q0 -49 45 -49h103q45 0 45 49zM69 102v296q0 47 25 74.5t75 27.5h131q50 0 75 -27.5t25 -74.5v-296q0 -47 -25 -74.5t-75 -27.5h-131q-50 0 -75 27.5t-25 74.5zM284 700h70l-120 -139h-54z" />
    <glyph glyph-name="ocircumflex" unicode="&#xf4;" 
d="M331 107v285q0 49 -45 49h-103q-45 0 -45 -49v-285q0 -49 45 -49h103q45 0 45 49zM69 102v296q0 47 25 74.5t75 27.5h131q50 0 75 -27.5t25 -74.5v-296q0 -47 -25 -74.5t-75 -27.5h-131q-50 0 -75 27.5t-25 74.5zM233 655l-72 -94h-52l98 139h54l98 -139h-53z" />
    <glyph glyph-name="otilde" unicode="&#xf5;" 
d="M331 107v285q0 49 -45 49h-103q-45 0 -45 -49v-285q0 -49 45 -49h103q45 0 45 49zM69 102v296q0 47 25 74.5t75 27.5h131q50 0 75 -27.5t25 -74.5v-296q0 -47 -25 -74.5t-75 -27.5h-131q-50 0 -75 27.5t-25 74.5zM123 562h-37v27q0 112 79 112q32 0 76.5 -44t65.5 -44
t30 17t9 68h37v-25q0 -62 -19 -88t-57 -26q-25 0 -51.5 22t-49.5 44t-41 22q-22 0 -32 -18t-10 -67z" />
    <glyph glyph-name="odieresis" unicode="&#xf6;" 
d="M331 107v285q0 49 -45 49h-103q-45 0 -45 -49v-285q0 -49 45 -49h103q45 0 45 49zM69 102v296q0 47 25 74.5t75 27.5h131q50 0 75 -27.5t25 -74.5v-296q0 -47 -25 -74.5t-75 -27.5h-131q-50 0 -75 27.5t-25 74.5zM136 663h55v-71h-55v71zM278 663h55v-71h-55v71z" />
    <glyph glyph-name="divide" unicode="&#xf7;" horiz-adv-x="462" 
d="M407 261h-352v60h352v-60zM196 90v65h62v-65h-62zM196 430v65h62v-65h-62z" />
    <glyph glyph-name="oslash" unicode="&#xf8;" 
d="M331 341l-193 -244q5 -39 45 -39h103q45 0 45 49v234zM399 423v-321q0 -47 -25 -74.5t-75 -27.5h-130q-58 0 -78 39l-31 -39h-50l59 74v324q0 47 25 74.5t75 27.5h131q57 0 80 -40l31 40h50zM330 399q-4 42 -44 42h-103q-45 0 -45 -49v-237z" />
    <glyph glyph-name="ugrave" unicode="&#xf9;" 
d="M69 102v398h69v-393q0 -49 45 -49h148v442h69v-500h-231q-50 0 -75 27.5t-25 74.5zM187 700l104 -139h-54l-120 139h70z" />
    <glyph glyph-name="uacute" unicode="&#xfa;" 
d="M69 102v398h69v-393q0 -49 45 -49h148v442h69v-500h-231q-50 0 -75 27.5t-25 74.5zM287 700h70l-120 -139h-54z" />
    <glyph glyph-name="ucircumflex" unicode="&#xfb;" 
d="M69 102v398h69v-393q0 -49 45 -49h148v442h69v-500h-231q-50 0 -75 27.5t-25 74.5zM233 655l-72 -94h-52l98 139h54l98 -139h-53z" />
    <glyph glyph-name="udieresis" unicode="&#xfc;" 
d="M69 102v398h69v-393q0 -49 45 -49h148v442h69v-500h-231q-50 0 -75 27.5t-25 74.5zM136 663h55v-71h-55v71zM278 663h55v-71h-55v71z" />
    <glyph glyph-name="yacute" unicode="&#xfd;" horiz-adv-x="410" 
d="M184 -200h-78l69 200h-12l-151 500h78l117 -433l116 433h75zM266 700h70l-120 -139h-54z" />
    <glyph glyph-name="thorn" unicode="&#xfe;" horiz-adv-x="461" 
d="M69 500h69v-84h149q62 0 87 -25t25 -88v-105q0 -54 -26 -78t-86 -24h-149v-96h-69v500zM138 154h149q44 0 44 49v104q0 50 -44 50h-149v-203z" />
    <glyph glyph-name="ydieresis" unicode="&#xff;" horiz-adv-x="410" 
d="M184 -200h-78l69 200h-12l-151 500h78l117 -433l116 433h75zM107 663h55v-71h-55v71zM249 663h55v-71h-55v71z" />
    <glyph glyph-name="Amacron" unicode="&#x100;" horiz-adv-x="502" 
d="M146 233h207l-103 384zM363 180h-227l-47 -180h-80l197 700h94l193 -700h-82zM358 758h-213v46h213v-46z" />
    <glyph glyph-name="amacron" unicode="&#x101;" horiz-adv-x="462" 
d="M163 311h161v82q0 49 -44 49h-164q-26 0 -39 -8v66h216q50 0 75 -27t25 -74v-399h-230q-50 0 -75 27.5t-25 74.5v108q0 47 25 74t75 27zM177 260q-46 0 -46 -49v-103q0 -50 46 -50h147v202h-147zM335 596h-213v51h213v-51z" />
    <glyph glyph-name="Abreve" unicode="&#x102;" horiz-adv-x="502" 
d="M146 233h207l-103 384zM363 180h-227l-47 -180h-80l197 700h94l193 -700h-82zM377 829v-24q0 -76 -81 -76h-75q-81 0 -81 76v24h47v-17q0 -43 45 -43h53q44 0 44 43v17h48z" />
    <glyph glyph-name="abreve" unicode="&#x103;" horiz-adv-x="462" 
d="M163 311h161v82q0 49 -44 49h-164q-26 0 -39 -8v66h216q50 0 75 -27t25 -74v-399h-230q-50 0 -75 27.5t-25 74.5v108q0 47 25 74t75 27zM177 260q-46 0 -46 -49v-103q0 -50 46 -50h147v202h-147zM354 700v-43q0 -40 -21 -63t-60 -23h-75q-40 0 -60.5 23t-20.5 62v44h47
v-34q0 -23 12 -36t33 -13h53q44 0 44 49v34h48z" />
    <glyph glyph-name="Aogonek" unicode="&#x104;" horiz-adv-x="502" 
d="M363 180h-227l-47 -180h-80l197 700h94l193 -700h-9q-127 -55 -127 -98v-15q0 -23 10.5 -33t32.5 -10h77v-44h-99q-39 0 -57 17.5t-18 53.5v21q0 31 28.5 55t101.5 53h-22zM146 233h207l-103 384z" />
    <glyph glyph-name="aogonek" unicode="&#x105;" horiz-adv-x="462" 
d="M163 311h161v82q0 49 -44 49h-164q-26 0 -39 -8v66h216q50 0 75 -27t25 -74v-399h-10q-121 -53 -121 -98v-15q0 -23 10.5 -33t32.5 -10h77v-44h-99q-39 0 -57 17.5t-18 53.5v21q0 32 26.5 55.5t97.5 52.5h-169q-50 0 -75 27.5t-25 74.5v108q0 47 25 74t75 27zM177 260
q-46 0 -46 -49v-103q0 -50 46 -50h147v202h-147z" />
    <glyph glyph-name="Cacute" unicode="&#x106;" horiz-adv-x="476" 
d="M194 65h216q26 0 39 8v-73h-273q-50 0 -74.5 27.5t-24.5 74.5v496q0 47 24.5 74.5t74.5 27.5h273v-73q-13 8 -39 8h-216q-45 0 -45 -49v-472q0 -49 45 -49zM339 829h67l-120 -100h-52z" />
    <glyph glyph-name="cacute" unicode="&#x107;" horiz-adv-x="387" 
d="M318 440h-133q-47 0 -47 -50v-280q0 -51 47 -51h133q26 0 39 7v-66h-188q-50 0 -75 27.5t-25 74.5v296q0 47 25 74.5t75 27.5h188v-67q-13 7 -39 7zM283 700h70l-120 -139h-54z" />
    <glyph glyph-name="Ccircumflex" unicode="&#x108;" horiz-adv-x="476" 
d="M194 65h216q26 0 39 8v-73h-273q-50 0 -74.5 27.5t-24.5 74.5v496q0 47 24.5 74.5t74.5 27.5h273v-73q-13 8 -39 8h-216q-45 0 -45 -49v-472q0 -49 45 -49zM289 793l-72 -64h-52l98 100h54l98 -100h-53z" />
    <glyph glyph-name="ccircumflex" unicode="&#x109;" horiz-adv-x="387" 
d="M318 440h-133q-47 0 -47 -50v-280q0 -51 47 -51h133q26 0 39 7v-66h-188q-50 0 -75 27.5t-25 74.5v296q0 47 25 74.5t75 27.5h188v-67q-13 7 -39 7zM228 655l-72 -94h-52l98 139h54l98 -139h-53z" />
    <glyph glyph-name="Cdotaccent" unicode="&#x10a;" horiz-adv-x="476" 
d="M194 65h216q26 0 39 8v-73h-273q-50 0 -74.5 27.5t-24.5 74.5v496q0 47 24.5 74.5t74.5 27.5h273v-73q-13 8 -39 8h-216q-45 0 -45 -49v-472q0 -49 45 -49zM259 800h62v-55h-62v55z" />
    <glyph glyph-name="cdotaccent" unicode="&#x10b;" horiz-adv-x="387" 
d="M318 440h-133q-47 0 -47 -50v-280q0 -51 47 -51h133q26 0 39 7v-66h-188q-50 0 -75 27.5t-25 74.5v296q0 47 25 74.5t75 27.5h188v-67q-13 7 -39 7zM201 648h68v-76h-68v76z" />
    <glyph glyph-name="Ccaron" unicode="&#x10c;" horiz-adv-x="476" 
d="M194 65h216q26 0 39 8v-73h-273q-50 0 -74.5 27.5t-24.5 74.5v496q0 47 24.5 74.5t74.5 27.5h273v-73q-13 8 -39 8h-216q-45 0 -45 -49v-472q0 -49 45 -49zM289 765l72 64h52l-98 -100h-54l-98 100h53z" />
    <glyph glyph-name="ccaron" unicode="&#x10d;" horiz-adv-x="387" 
d="M318 440h-133q-47 0 -47 -50v-280q0 -51 47 -51h133q26 0 39 7v-66h-188q-50 0 -75 27.5t-25 74.5v296q0 47 25 74.5t75 27.5h188v-67q-13 7 -39 7zM237 606l72 94h52l-98 -139h-54l-98 139h53z" />
    <glyph glyph-name="Dcaron" unicode="&#x10e;" horiz-adv-x="553" 
d="M149 635v-570h210q45 0 45 49v472q0 49 -45 49h-210zM77 0v700h300q50 0 75 -27.5t25 -74.5v-496q0 -47 -25 -74.5t-75 -27.5h-300zM270 765l72 64h52l-98 -100h-54l-98 100h53z" />
    <glyph glyph-name="dcaron" unicode="&#x10f;" horiz-adv-x="477" 
d="M331 441h-148q-45 0 -45 -49v-285q0 -49 45 -49h148v383zM400 0h-231q-50 0 -75 27.5t-25 74.5v296q0 47 25 74.5t75 27.5h162v200h69v-700zM454 539l6 161h56l-18 -161h-44z" />
    <glyph glyph-name="Dcroat" unicode="&#x110;" horiz-adv-x="553" 
d="M76 0v338h-58v51h58v311h301q24 0 41.5 -5.5t28 -17.5t17 -23.5t9 -33t3 -35t0.5 -39.5v-393q0 -39 -2.5 -60.5t-11.5 -46t-30 -35.5t-55 -11h-301zM231 338h-82v-273h209q45 0 45 49v471q0 49 -44 49h-210v-245h82v-51z" />
    <glyph glyph-name="dcroat" unicode="&#x111;" 
d="M400 0h-231q-50 0 -75 27.5t-25 74.5v296q0 47 25 74.5t75 27.5h162v96h-100v51h100v53h69v-53h44v-51h-44v-596zM331 441h-148q-45 0 -45 -49v-285q0 -49 45 -49h148v383z" />
    <glyph glyph-name="Emacron" unicode="&#x112;" horiz-adv-x="477" 
d="M404 638h-255v-239h203q14 0 29 3v-67q-15 3 -29 3h-203v-276h275q16 0 29 5v-67h-376v700h357v-67q-14 5 -30 5zM371 758h-213v46h213v-46z" />
    <glyph glyph-name="emacron" unicode="&#x113;" horiz-adv-x="454" 
d="M138 260v-154q0 -22 12 -35t33 -13h161q24 0 39 8v-66h-214q-50 0 -75 27.5t-25 74.5v296q0 47 25 74.5t76 27.5h123q50 0 75 -27.5t25 -74.5v-138h-255zM138 311h190v82q0 50 -45 50h-100q-45 0 -45 -50v-82zM341 596h-213v51h213v-51z" />
    <glyph glyph-name="Ebreve" unicode="&#x114;" horiz-adv-x="477" 
d="M404 638h-255v-239h203q14 0 29 3v-67q-15 3 -29 3h-203v-276h275q16 0 29 5v-67h-376v700h357v-67q-14 5 -30 5zM383 829v-24q0 -76 -81 -76h-75q-81 0 -81 76v24h47v-17q0 -43 45 -43h53q44 0 44 43v17h48z" />
    <glyph glyph-name="ebreve" unicode="&#x115;" horiz-adv-x="454" 
d="M138 260v-154q0 -22 12 -35t33 -13h161q24 0 39 8v-66h-214q-50 0 -75 27.5t-25 74.5v296q0 47 25 74.5t76 27.5h123q50 0 75 -27.5t25 -74.5v-138h-255zM138 311h190v82q0 50 -45 50h-100q-45 0 -45 -50v-82zM350 700v-43q0 -40 -21 -63t-60 -23h-75q-40 0 -60.5 23
t-20.5 62v44h47v-34q0 -23 12 -36t33 -13h53q44 0 44 49v34h48z" />
    <glyph glyph-name="Edotaccent" unicode="&#x116;" horiz-adv-x="477" 
d="M404 638h-255v-239h203q14 0 29 3v-67q-15 3 -29 3h-203v-276h275q16 0 29 5v-67h-376v700h357v-67q-14 5 -30 5zM233 800h62v-55h-62v55z" />
    <glyph glyph-name="edotaccent" unicode="&#x117;" horiz-adv-x="454" 
d="M138 260v-154q0 -22 12 -35t33 -13h161q24 0 39 8v-66h-214q-50 0 -75 27.5t-25 74.5v296q0 47 25 74.5t76 27.5h123q50 0 75 -27.5t25 -74.5v-138h-255zM138 311h190v82q0 50 -45 50h-100q-45 0 -45 -50v-82zM200 648h68v-76h-68v76z" />
    <glyph glyph-name="Eogonek" unicode="&#x118;" horiz-adv-x="477" 
d="M404 638h-255v-239h203q14 0 29 3v-67q-15 3 -29 3h-203v-276h275q16 0 29 5v-67h-20q-127 -55 -127 -98v-15q0 -23 10.5 -33t32.5 -10h77v-44h-99q-39 0 -57 17.5t-18 53.5v21q0 31 28.5 55t101.5 53h-305v700h357v-67q-14 5 -30 5z" />
    <glyph glyph-name="eogonek" unicode="&#x119;" horiz-adv-x="454" 
d="M138 260v-154q0 -22 12 -35t33 -13h161q24 0 39 8v-66h-16q-127 -55 -127 -98v-15q0 -23 10.5 -33t32.5 -10h77v-44h-99q-39 0 -57 17.5t-18 53.5v21q0 31 28.5 55t101.5 53h-147q-50 0 -75 27.5t-25 74.5v296q0 47 25 74.5t76 27.5h123q50 0 75 -27.5t25 -74.5v-138
h-255zM138 311h190v82q0 50 -45 50h-100q-45 0 -45 -50v-82z" />
    <glyph glyph-name="Ecaron" unicode="&#x11a;" horiz-adv-x="477" 
d="M404 638h-255v-239h203q14 0 29 3v-67q-15 3 -29 3h-203v-276h275q16 0 29 5v-67h-376v700h357v-67q-14 5 -30 5zM262 765l72 64h52l-98 -100h-54l-98 100h53z" />
    <glyph glyph-name="ecaron" unicode="&#x11b;" horiz-adv-x="454" 
d="M138 260v-154q0 -22 12 -35t33 -13h161q24 0 39 8v-66h-214q-50 0 -75 27.5t-25 74.5v296q0 47 25 74.5t76 27.5h123q50 0 75 -27.5t25 -74.5v-138h-255zM138 311h190v82q0 50 -45 50h-100q-45 0 -45 -50v-82zM238 606l72 94h52l-98 -139h-54l-98 139h53z" />
    <glyph glyph-name="Gcircumflex" unicode="&#x11c;" horiz-adv-x="552" 
d="M477 399v-297q0 -47 -25 -74.5t-75 -27.5h-201q-50 0 -74.5 27.5t-24.5 74.5v496q0 47 24.5 74.5t74.5 27.5h285v-73q-15 8 -39 8h-228q-45 0 -45 -49v-472q0 -49 45 -49h165q45 0 45 49v224h-104q-14 0 -29 -3v67q15 -3 29 -3h177zM283 793l-72 -64h-52l98 100h54
l98 -100h-53z" />
    <glyph glyph-name="gcircumflex" unicode="&#x11d;" 
d="M331 58v383h-148q-45 0 -45 -50v-283q0 -50 45 -50h148zM331 -93v93h-162q-50 0 -75 27.5t-25 74.5v296q0 47 25 74.5t75 27.5h231v-598q0 -47 -25 -74.5t-75 -27.5h-214v66q15 -8 39 -8h159q47 0 47 49zM242 655l-72 -94h-52l98 139h54l98 -139h-53z" />
    <glyph glyph-name="Gbreve" unicode="&#x11e;" horiz-adv-x="552" 
d="M477 399v-297q0 -47 -25 -74.5t-75 -27.5h-201q-50 0 -74.5 27.5t-24.5 74.5v496q0 47 24.5 74.5t74.5 27.5h285v-73q-15 8 -39 8h-228q-45 0 -45 -49v-472q0 -49 45 -49h165q45 0 45 49v224h-104q-14 0 -29 -3v67q15 -3 29 -3h177zM396 829v-24q0 -76 -81 -76h-75
q-81 0 -81 76v24h47v-17q0 -43 45 -43h53q44 0 44 43v17h48z" />
    <glyph glyph-name="gbreve" unicode="&#x11f;" 
d="M331 58v383h-148q-45 0 -45 -50v-283q0 -50 45 -50h148zM331 -93v93h-162q-50 0 -75 27.5t-25 74.5v296q0 47 25 74.5t75 27.5h231v-598q0 -47 -25 -74.5t-75 -27.5h-214v66q15 -8 39 -8h159q47 0 47 49zM353 700v-43q0 -40 -21 -63t-60 -23h-75q-40 0 -60.5 23t-20.5 62
v44h47v-34q0 -23 12 -36t33 -13h53q44 0 44 49v34h48z" />
    <glyph glyph-name="Gdotaccent" unicode="&#x120;" horiz-adv-x="552" 
d="M477 399v-297q0 -47 -25 -74.5t-75 -27.5h-201q-50 0 -74.5 27.5t-24.5 74.5v496q0 47 24.5 74.5t74.5 27.5h285v-73q-15 8 -39 8h-228q-45 0 -45 -49v-472q0 -49 45 -49h165q45 0 45 49v224h-104q-14 0 -29 -3v67q15 -3 29 -3h177zM256 800h62v-55h-62v55z" />
    <glyph glyph-name="gdotaccent" unicode="&#x121;" 
d="M331 58v383h-148q-45 0 -45 -50v-283q0 -50 45 -50h148zM331 -93v93h-162q-50 0 -75 27.5t-25 74.5v296q0 47 25 74.5t75 27.5h231v-598q0 -47 -25 -74.5t-75 -27.5h-214v66q15 -8 39 -8h159q47 0 47 49zM213 648h68v-76h-68v76z" />
    <glyph glyph-name="Gcommaaccent" unicode="&#x122;" horiz-adv-x="552" 
d="M477 399v-297q0 -47 -25 -74.5t-75 -27.5h-201q-50 0 -74.5 27.5t-24.5 74.5v496q0 47 24.5 74.5t74.5 27.5h285v-73q-15 8 -39 8h-228q-45 0 -45 -49v-472q0 -49 45 -49h165q45 0 45 49v224h-104q-14 0 -29 -3v67q15 -3 29 -3h177zM259 -45h64v-67l-45 -106h-57l38 111
v62z" />
    <glyph glyph-name="gcommaaccent" unicode="&#x123;" 
d="M331 58v383h-148q-45 0 -45 -50v-283q0 -50 45 -50h148zM331 -93v93h-162q-50 0 -75 27.5t-25 74.5v296q0 47 25 74.5t75 27.5h231v-598q0 -47 -25 -74.5t-75 -27.5h-214v66q15 -8 39 -8h159q47 0 47 49zM281 547h-64v67l45 106h57l-38 -111v-62z" />
    <glyph glyph-name="Hcircumflex" unicode="&#x124;" horiz-adv-x="553" 
d="M404 338h-255v-338h-72v700h72v-301h255v301h73v-700h-73v338zM276 793l-72 -64h-52l98 100h54l98 -100h-53z" />
    <glyph glyph-name="hcircumflex" unicode="&#x125;" 
d="M400 398v-398h-69v392q0 49 -45 49h-148v-441h-69v700h69v-200h161q51 0 76 -27.5t25 -74.5zM164 793l-72 -64h-52l98 100h54l98 -100h-53z" />
    <glyph glyph-name="Hbar" unicode="&#x126;" horiz-adv-x="553" 
d="M531 596h-54v-596h-73v338h-255v-338h-72v596h-53v51h53v53h72v-53h255v53h73v-53h54v-51zM149 399h255v197h-255v-197z" />
    <glyph glyph-name="hbar" unicode="&#x127;" 
d="M239 596h-101v-96h161q51 0 76 -27.5t25 -74.5v-398h-69v392q0 49 -45 49h-148v-441h-69v596h-43v51h43v53h69v-53h101v-51z" />
    <glyph glyph-name="Itilde" unicode="&#x128;" horiz-adv-x="226" 
d="M77 700h72v-700h-72v700zM2 729h-37v20q0 82 79 82q32 0 76.5 -31.5t65.5 -31.5t30 12t9 49h37v-18q0 -46 -19 -65t-57 -19q-32 0 -77 31.5t-65 31.5q-22 0 -32 -12.5t-10 -48.5z" />
    <glyph glyph-name="itilde" unicode="&#x129;" horiz-adv-x="207" 
d="M69 500h69v-500h-69v500zM-8 562h-37v27q0 112 79 112q32 0 76.5 -44t65.5 -44t30 17t9 68h37v-25q0 -62 -19 -88t-57 -26q-25 0 -51.5 22t-49.5 44t-41 22q-22 0 -32 -18t-10 -67z" />
    <glyph glyph-name="Imacron" unicode="&#x12a;" horiz-adv-x="226" 
d="M77 700h72v-700h-72v700zM220 758h-213v46h213v-46z" />
    <glyph glyph-name="imacron" unicode="&#x12b;" horiz-adv-x="207" 
d="M69 500h69v-500h-69v500zM210 596h-213v51h213v-51z" />
    <glyph glyph-name="Ibreve" unicode="&#x12c;" horiz-adv-x="226" 
d="M77 700h72v-700h-72v700zM232 829v-24q0 -76 -81 -76h-75q-81 0 -81 76v24h47v-17q0 -43 45 -43h53q44 0 44 43v17h48z" />
    <glyph glyph-name="ibreve" unicode="&#x12d;" horiz-adv-x="207" 
d="M69 500h69v-500h-69v500zM222 700v-43q0 -40 -21 -63t-60 -23h-75q-40 0 -60.5 23t-20.5 62v44h47v-34q0 -23 12 -36t33 -13h53q44 0 44 49v34h48z" />
    <glyph glyph-name="Iogonek" unicode="&#x12e;" horiz-adv-x="226" 
d="M77 700h72v-700h-3q-90 -48 -90 -98v-15q0 -23 10.5 -33t32.5 -10h77v-44h-99q-39 0 -57 17.5t-18 53.5v21q0 31 22.5 54t70.5 54h-18v700z" />
    <glyph glyph-name="iogonek" unicode="&#x12f;" horiz-adv-x="207" 
d="M69 500h69v-500h-1q-44 -32 -61.5 -53t-17.5 -45v-15q0 -23 10.5 -33t32.5 -10h77v-44h-99q-39 0 -57 17.5t-18 53.5v21q0 56 82 108h-17v500zM69 648h69v-76h-69v76z" />
    <glyph glyph-name="Idotaccent" unicode="&#x130;" horiz-adv-x="226" 
d="M77 700h72v-700h-72v700zM82 800h62v-55h-62v55z" />
    <glyph glyph-name="dotlessi" unicode="&#x131;" horiz-adv-x="207" 
d="M69 500h69v-500h-69v500z" />
    <glyph glyph-name="IJ" unicode="&#x132;" horiz-adv-x="494" 
d="M77 700h72v-700h-72v700zM180 0v70q12 -5 29 -5h90q45 0 45 49v586h73v-598q0 -47 -25 -74.5t-75 -27.5h-137z" />
    <glyph glyph-name="ij" unicode="&#x133;" horiz-adv-x="415" 
d="M69 500h69v-500h-69v500zM69 648h69v-76h-69v76zM277 648h69v-76h-69v76zM346 500v-500q0 -109 -33 -200h-73q37 90 37 200v500h69z" />
    <glyph glyph-name="Jcircumflex" unicode="&#x134;" horiz-adv-x="331" 
d="M17 0v70q13 -5 29 -5h90q45 0 45 49v586h73v-598q0 -47 -25 -74.5t-75 -27.5h-137zM210 793l-72 -64h-52l98 100h54l98 -100h-53z" />
    <glyph glyph-name="jcircumflex" unicode="&#x135;" horiz-adv-x="207" 
d="M138 500v-500q0 -109 -33 -200h-73q37 90 37 200v500h69zM100 655l-72 -94h-52l98 139h54l98 -139h-53z" />
    <glyph glyph-name="Kcommaaccent" unicode="&#x136;" horiz-adv-x="528" 
d="M239 338h-88v-338h-74v700h74v-301h88q33 0 52 44l115 257h81l-128 -279q-15 -36 -52 -51q36 -11 56 -58l138 -312h-84l-125 293q-10 25 -21.5 35t-31.5 10zM244 -45h64v-67l-45 -106h-57l38 111v62z" />
    <glyph glyph-name="kcommaaccent" unicode="&#x137;" horiz-adv-x="446" 
d="M214 304q25 0 42 35l73 161h74l-82 -178q-16 -35 -41 -44q25 -12 39 -46l96 -232h-78l-80 209q-16 37 -42 37h-77v-246h-69v700h69v-396h76zM204 -45h64v-67l-45 -106h-57l38 111v62z" />
    <glyph glyph-name="Lacute" unicode="&#x139;" horiz-adv-x="456" 
d="M149 700v-638h270q17 0 29 5v-67h-371v700h72zM195 829h67l-120 -100h-52z" />
    <glyph glyph-name="lacute" unicode="&#x13a;" horiz-adv-x="207" 
d="M69 700h69v-700h-69v700zM178 829h67l-120 -100h-52z" />
    <glyph glyph-name="Lcommaaccent" unicode="&#x13b;" horiz-adv-x="456" 
d="M149 700v-638h270q17 0 29 5v-67h-371v700h72zM246 -45h64v-67l-45 -106h-57l38 111v62z" />
    <glyph glyph-name="lcommaaccent" unicode="&#x13c;" horiz-adv-x="207" 
d="M69 700h69v-700h-69v700zM86 -45h64v-67l-45 -106h-57l38 111v62z" />
    <glyph glyph-name="Lcaron" unicode="&#x13d;" horiz-adv-x="456" 
d="M149 700v-638h270q17 0 29 5v-67h-371v700h72zM246 539l6 161h56l-18 -161h-44z" />
    <glyph glyph-name="lcaron" unicode="&#x13e;" horiz-adv-x="216" 
d="M69 700h69v-700h-69v700zM190 539l6 161h56l-18 -161h-44z" />
    <glyph glyph-name="Ldot" unicode="&#x13f;" horiz-adv-x="456" 
d="M149 700v-638h270q17 0 29 5v-67h-371v700h72zM228 353v77h74v-77h-74z" />
    <glyph glyph-name="ldot" unicode="&#x140;" horiz-adv-x="240" 
d="M69 700h69v-700h-69v700zM175 359v75h73v-75h-73z" />
    <glyph glyph-name="Lslash" unicode="&#x141;" horiz-adv-x="459" 
d="M152 330v-268h269q17 0 29 5v-67h-371v269l-58 -51v61l58 51v370h73v-309l170 147v-61z" />
    <glyph glyph-name="lslash" unicode="&#x142;" horiz-adv-x="210" 
d="M73 292l-53 -74v65l53 73v344h68v-263l54 73v-64l-54 -74v-372h-68v292z" />
    <glyph glyph-name="Nacute" unicode="&#x143;" horiz-adv-x="561" 
d="M403 0l-258 575v-575h-68v700h81l259 -575v575h67v-700h-81zM343 829h67l-120 -100h-52z" />
    <glyph glyph-name="nacute" unicode="&#x144;" 
d="M400 398v-398h-69v392q0 49 -45 49h-148v-441h-69v500h231q49 0 74.5 -27.5t25.5 -74.5zM283 700h70l-120 -139h-54z" />
    <glyph glyph-name="Ncommaaccent" unicode="&#x145;" horiz-adv-x="561" 
d="M403 0l-258 575v-575h-68v700h81l259 -575v575h67v-700h-81zM250 -45h64v-67l-45 -106h-57l38 111v62z" />
    <glyph glyph-name="ncommaaccent" unicode="&#x146;" 
d="M400 398v-398h-69v392q0 49 -45 49h-148v-441h-69v500h231q49 0 74.5 -27.5t25.5 -74.5zM206 -45h64v-67l-45 -106h-57l38 111v62z" />
    <glyph glyph-name="Ncaron" unicode="&#x147;" horiz-adv-x="561" 
d="M403 0l-258 575v-575h-68v700h81l259 -575v575h67v-700h-81zM284 765l72 64h52l-98 -100h-54l-98 100h53z" />
    <glyph glyph-name="ncaron" unicode="&#x148;" 
d="M400 398v-398h-69v392q0 49 -45 49h-148v-441h-69v500h231q49 0 74.5 -27.5t25.5 -74.5zM231 606l72 94h52l-98 -139h-54l-98 139h53z" />
    <glyph glyph-name="napostrophe" unicode="&#x149;" 
d="M400 398v-398h-69v392q0 49 -45 49h-148v-441h-69v500h231q49 0 74.5 -27.5t25.5 -74.5zM69 539l6 161h56l-18 -161h-44z" />
    <glyph glyph-name="Eng" unicode="&#x14a;" horiz-adv-x="561" 
d="M403 0l-258 575v-575h-68v700h81l259 -575v575h67v-700l-50 -145h-62z" />
    <glyph glyph-name="eng" unicode="&#x14b;" 
d="M400 398v-402l-47 -142h-62l40 146v392q0 49 -45 49h-148v-441h-69v500h231q49 0 74.5 -27.5t25.5 -74.5z" />
    <glyph glyph-name="Omacron" unicode="&#x14c;" horiz-adv-x="553" 
d="M404 114v472q0 49 -45 49h-165q-45 0 -45 -49v-472q0 -49 45 -49h165q45 0 45 49zM77 102v496q0 47 24.5 74.5t74.5 27.5h201q50 0 75 -27.5t25 -74.5v-496q0 -47 -25 -74.5t-75 -27.5h-201q-50 0 -74.5 27.5t-24.5 74.5zM384 758h-213v46h213v-46z" />
    <glyph glyph-name="omacron" unicode="&#x14d;" 
d="M331 107v285q0 49 -45 49h-103q-45 0 -45 -49v-285q0 -49 45 -49h103q45 0 45 49zM69 102v296q0 47 25 74.5t75 27.5h131q50 0 75 -27.5t25 -74.5v-296q0 -47 -25 -74.5t-75 -27.5h-131q-50 0 -75 27.5t-25 74.5zM341 596h-213v51h213v-51z" />
    <glyph glyph-name="Obreve" unicode="&#x14e;" horiz-adv-x="553" 
d="M404 114v472q0 49 -45 49h-165q-45 0 -45 -49v-472q0 -49 45 -49h165q45 0 45 49zM77 102v496q0 47 24.5 74.5t74.5 27.5h201q50 0 75 -27.5t25 -74.5v-496q0 -47 -25 -74.5t-75 -27.5h-201q-50 0 -74.5 27.5t-24.5 74.5zM396 829v-24q0 -76 -81 -76h-75q-81 0 -81 76v24
h47v-17q0 -43 45 -43h53q44 0 44 43v17h48z" />
    <glyph glyph-name="obreve" unicode="&#x14f;" 
d="M331 107v285q0 49 -45 49h-103q-45 0 -45 -49v-285q0 -49 45 -49h103q45 0 45 49zM69 102v296q0 47 25 74.5t75 27.5h131q50 0 75 -27.5t25 -74.5v-296q0 -47 -25 -74.5t-75 -27.5h-131q-50 0 -75 27.5t-25 74.5zM353 700v-43q0 -40 -21 -63t-60 -23h-75q-40 0 -60.5 23
t-20.5 62v44h47v-34q0 -23 12 -36t33 -13h53q44 0 44 49v34h48z" />
    <glyph glyph-name="Ohungarumlaut" unicode="&#x150;" horiz-adv-x="553" 
d="M404 114v472q0 49 -45 49h-165q-45 0 -45 -49v-472q0 -49 45 -49h165q45 0 45 49zM77 102v496q0 47 24.5 74.5t74.5 27.5h201q50 0 75 -27.5t25 -74.5v-496q0 -47 -25 -74.5t-75 -27.5h-201q-50 0 -74.5 27.5t-24.5 74.5zM262 829h58l-104 -100h-45zM392 829h58
l-104 -100h-46z" />
    <glyph glyph-name="ohungarumlaut" unicode="&#x151;" 
d="M331 107v285q0 49 -45 49h-103q-45 0 -45 -49v-285q0 -49 45 -49h103q45 0 45 49zM69 102v296q0 47 25 74.5t75 27.5h131q50 0 75 -27.5t25 -74.5v-296q0 -47 -25 -74.5t-75 -27.5h-131q-50 0 -75 27.5t-25 74.5zM215 700h58l-104 -139h-45zM345 700h58l-104 -139h-46z
" />
    <glyph glyph-name="OE" unicode="&#x152;" horiz-adv-x="804" 
d="M404 635h-210q-45 0 -45 -49v-472q0 -49 45 -49h210v570zM176 0q-50 0 -74.5 27.5t-24.5 74.5v496q0 47 24.5 74.5t74.5 27.5h585v-67q-14 5 -30 5h-254v-239h202q14 0 29 3v-67q-15 3 -29 3h-202v-276h274q17 0 29 5v-67h-604z" />
    <glyph glyph-name="oe" unicode="&#x153;" horiz-adv-x="716" 
d="M368 456q23 44 76 44h111q50 0 74.5 -27t24.5 -75v-138h-254v-154q0 -22 12 -35t32 -13h161q26 0 39 8v-66h-201q-51 0 -75 44q-22 -44 -74 -44h-125q-49 0 -74.5 27.5t-25.5 74.5v296q0 47 25.5 74.5t75.5 27.5h120q55 0 78 -44zM400 311h189v82q0 50 -44 50h-101
q-44 0 -44 -50v-82zM331 107v285q0 49 -45 49h-103q-45 0 -45 -49v-285q0 -23 12 -36t33 -13h103q45 0 45 49z" />
    <glyph glyph-name="Racute" unicode="&#x154;" horiz-adv-x="565" 
d="M383 341l129 -341h-79l-119 336h-165v-336h-72v700h300q50 0 75 -27.5t25 -74.5v-157q0 -51 -25 -75.5t-60 -24.5h-9zM149 635v-236h210q45 0 45 49v138q0 49 -45 49h-210zM311 829h67l-120 -100h-52z" />
    <glyph glyph-name="racute" unicode="&#x155;" horiz-adv-x="302" 
d="M253 437h-58q-57 0 -57 -70v-367h-69v500h60v-53q11 53 71 53h89v-71q-15 8 -36 8zM237 700h70l-120 -139h-54z" />
    <glyph glyph-name="Rcommaaccent" unicode="&#x156;" horiz-adv-x="565" 
d="M383 341l129 -341h-79l-119 336h-165v-336h-72v700h300q50 0 75 -27.5t25 -74.5v-157q0 -51 -25 -75.5t-60 -24.5h-9zM149 635v-236h210q45 0 45 49v138q0 49 -45 49h-210zM255 -45h64v-67l-45 -106h-57l38 111v62z" />
    <glyph glyph-name="rcommaaccent" unicode="&#x157;" horiz-adv-x="302" 
d="M253 437h-58q-57 0 -57 -70v-367h-69v500h60v-53q11 53 71 53h89v-71q-15 8 -36 8zM73 -45h64v-67l-45 -106h-57l38 111v62z" />
    <glyph glyph-name="Rcaron" unicode="&#x158;" horiz-adv-x="565" 
d="M383 341l129 -341h-79l-119 336h-165v-336h-72v700h300q50 0 75 -27.5t25 -74.5v-157q0 -51 -25 -75.5t-60 -24.5h-9zM149 635v-236h210q45 0 45 49v138q0 49 -45 49h-210zM270 765l72 64h52l-98 -100h-54l-98 100h53z" />
    <glyph glyph-name="rcaron" unicode="&#x159;" horiz-adv-x="302" 
d="M253 437h-58q-57 0 -57 -70v-367h-69v500h60v-53q11 53 71 53h89v-71q-15 8 -36 8zM189 606l72 94h52l-98 -139h-54l-98 139h53z" />
    <glyph glyph-name="Sacute" unicode="&#x15a;" horiz-adv-x="498" 
d="M339 238l-225 183q-53 44 -53 109v68q0 48 24.5 75t74.5 27h255v-73q-15 8 -39 8h-198q-45 0 -45 -50v-54q0 -32 22 -51l225 -183q30 -24 41.5 -49t11.5 -60v-86q0 -48 -24.5 -75t-74.5 -27h-277v73q15 -8 39 -8h219q46 0 46 50v72q0 32 -22 51zM294 829h67l-120 -100
h-52z" />
    <glyph glyph-name="sacute" unicode="&#x15b;" horiz-adv-x="407" 
d="M153 500h188v-67q-13 8 -39 8h-139q-20 0 -32 -12.5t-12 -34.5v-13q0 -30 36 -55l132 -82q37 -23 52 -46t15 -64v-32q0 -49 -25.5 -75.5t-74.5 -26.5h-201v66q13 -7 39 -7h152q20 0 32 12.5t12 34.5v21q0 39 -32 60l-128 81q-42 26 -58.5 49.5t-16.5 62.5v18
q0 48 25.5 75t74.5 27zM253 700h70l-120 -139h-54z" />
    <glyph glyph-name="Scircumflex" unicode="&#x15c;" horiz-adv-x="498" 
d="M339 238l-225 183q-53 44 -53 109v68q0 48 24.5 75t74.5 27h255v-73q-15 8 -39 8h-198q-45 0 -45 -50v-54q0 -32 22 -51l225 -183q30 -24 41.5 -49t11.5 -60v-86q0 -48 -24.5 -75t-74.5 -27h-277v73q15 -8 39 -8h219q46 0 46 50v72q0 32 -22 51zM250 793l-72 -64h-52
l98 100h54l98 -100h-53z" />
    <glyph glyph-name="scircumflex" unicode="&#x15d;" horiz-adv-x="407" 
d="M153 500h188v-67q-13 8 -39 8h-139q-20 0 -32 -12.5t-12 -34.5v-13q0 -30 36 -55l132 -82q37 -18 52 -42.5t15 -67.5v-32q0 -49 -25.5 -75.5t-74.5 -26.5h-201v66q13 -7 39 -7h152q20 0 32 12.5t12 34.5v21q0 39 -32 60l-128 81q-41 20 -58 45.5t-17 66.5v18
q0 48 25.5 75t74.5 27zM205 655l-72 -94h-52l98 139h54l98 -139h-53z" />
    <glyph glyph-name="Scedilla" unicode="&#x15e;" horiz-adv-x="498" 
d="M246 -39h23q39 0 57 -17.5t18 -53.5v-15q0 -75 -75 -75h-122l13 38h87q23 0 33 9.5t10 32.5v8q0 23 -10 32.5t-32 9.5h-56l23 70h-158v73q15 -8 39 -8h219q46 0 46 50v72q0 32 -22 51l-225 183q-53 44 -53 109v68q0 48 24.5 75t74.5 27h255v-73q-15 8 -39 8h-198
q-45 0 -45 -50v-54q0 -32 22 -51l225 -183q30 -24 41.5 -49t11.5 -60v-86q0 -48 -24.5 -75t-74.5 -27h-75z" />
    <glyph glyph-name="Scedilla" unicode="&#xf6c1;" horiz-adv-x="498" 
d="M246 -39h23q39 0 57 -17.5t18 -53.5v-15q0 -75 -75 -75h-122l13 38h87q23 0 33 9.5t10 32.5v8q0 23 -10 32.5t-32 9.5h-56l23 70h-158v73q15 -8 39 -8h219q46 0 46 50v72q0 32 -22 51l-225 183q-53 44 -53 109v68q0 48 24.5 75t74.5 27h255v-73q-15 8 -39 8h-198
q-45 0 -45 -50v-54q0 -32 22 -51l225 -183q30 -24 41.5 -49t11.5 -60v-86q0 -48 -24.5 -75t-74.5 -27h-75z" />
    <glyph glyph-name="scedilla" unicode="&#x15f;" horiz-adv-x="407" 
d="M153 500h188v-67q-13 8 -39 8h-139q-20 0 -32 -12.5t-12 -34.5v-13q0 -30 36 -55l132 -82q37 -18 52 -42.5t15 -67.5v-32q0 -49 -25.5 -75.5t-74.5 -26.5h-201v66q13 -7 39 -7h152q20 0 32 12.5t12 34.5v21q0 39 -32 60l-128 81q-41 20 -58 45.5t-17 66.5v18
q0 48 25.5 75t74.5 27zM204 -39h23q39 0 57 -17.5t18 -53.5v-15q0 -75 -75 -75h-122l13 38h87q23 0 33 9.5t10 32.5v8q0 23 -10 32.5t-32 9.5h-56l26 77h44z" />
    <glyph glyph-name="scedilla" unicode="&#xf6c2;" horiz-adv-x="407" 
d="M153 500h188v-67q-13 8 -39 8h-139q-20 0 -32 -12.5t-12 -34.5v-13q0 -30 36 -55l132 -82q37 -18 52 -42.5t15 -67.5v-32q0 -49 -25.5 -75.5t-74.5 -26.5h-201v66q13 -7 39 -7h152q20 0 32 12.5t12 34.5v21q0 39 -32 60l-128 81q-41 20 -58 45.5t-17 66.5v18
q0 48 25.5 75t74.5 27zM204 -39h23q39 0 57 -17.5t18 -53.5v-15q0 -75 -75 -75h-122l13 38h87q23 0 33 9.5t10 32.5v8q0 23 -10 32.5t-32 9.5h-56l26 77h44z" />
    <glyph glyph-name="Scaron" unicode="&#x160;" horiz-adv-x="498" 
d="M339 238l-225 183q-53 44 -53 109v68q0 48 24.5 75t74.5 27h255v-73q-15 8 -39 8h-198q-45 0 -45 -50v-54q0 -32 22 -51l225 -183q30 -24 41.5 -49t11.5 -60v-86q0 -48 -24.5 -75t-74.5 -27h-277v73q15 -8 39 -8h219q46 0 46 50v72q0 32 -22 51zM255 765l72 64h52
l-98 -100h-54l-98 100h53z" />
    <glyph glyph-name="scaron" unicode="&#x161;" horiz-adv-x="407" 
d="M153 500h188v-67q-13 8 -39 8h-139q-20 0 -32 -12.5t-12 -34.5v-13q0 -30 36 -55l132 -82q37 -23 52 -46t15 -64v-32q0 -49 -25.5 -75.5t-74.5 -26.5h-201v66q13 -7 39 -7h152q20 0 32 12.5t12 34.5v21q0 39 -32 60l-128 81q-42 26 -58.5 49.5t-16.5 62.5v18
q0 48 25.5 75t74.5 27zM210 606l72 94h52l-98 -139h-54l-98 139h53z" />
    <glyph glyph-name="Tcommaaccent" unicode="&#x162;" horiz-adv-x="465" 
d="M269 635v-635h-73v635h-139q-16 0 -30 -5v70h411v-70q-14 5 -30 5h-139zM218 -45h64v-67l-45 -106h-57l38 111v62z" />
    <glyph glyph-name="Tcommaaccent" unicode="&#x21a;" horiz-adv-x="465" 
d="M269 635v-635h-73v635h-139q-16 0 -30 -5v70h411v-70q-14 5 -30 5h-139zM218 -45h64v-67l-45 -106h-57l38 111v62z" />
    <glyph glyph-name="tcommaaccent" unicode="&#x163;" horiz-adv-x="303" 
d="M138 111q0 -51 47 -51h46q26 0 39 7v-67h-101q-50 0 -75 27.5t-25 74.5v493l69 40v-135h132v-59h-132v-330zM156 -45h64v-67l-45 -106h-57l38 111v62z" />
    <glyph glyph-name="tcommaaccent" unicode="&#x21b;" horiz-adv-x="303" 
d="M138 111q0 -51 47 -51h46q26 0 39 7v-67h-101q-50 0 -75 27.5t-25 74.5v493l69 40v-135h132v-59h-132v-330zM156 -45h64v-67l-45 -106h-57l38 111v62z" />
    <glyph glyph-name="Tcaron" unicode="&#x164;" horiz-adv-x="465" 
d="M269 635v-635h-73v635h-139q-16 0 -30 -5v70h411v-70q-14 5 -30 5h-139zM233 765l72 64h52l-98 -100h-54l-98 100h53z" />
    <glyph glyph-name="tcaron" unicode="&#x165;" horiz-adv-x="303" 
d="M138 111q0 -51 47 -51h46q26 0 39 7v-67h-101q-50 0 -75 27.5t-25 74.5v493l69 40v-135h132v-59h-132v-330zM210 539l6 161h56l-18 -161h-44z" />
    <glyph glyph-name="Tbar" unicode="&#x166;" horiz-adv-x="465" 
d="M408 263h-139v-263h-73v263h-140v58h140v314h-139q-16 0 -30 -5v70h411v-70q-14 5 -30 5h-139v-314h139v-58z" />
    <glyph glyph-name="tbar" unicode="&#x167;" horiz-adv-x="303" 
d="M138 111q0 -51 47 -51h46q26 0 39 7v-67h-101q-50 0 -75 27.5t-25 74.5v159h-59v54h59v280l69 40v-135h132v-59h-132v-126h131v-54h-131v-150z" />
    <glyph glyph-name="Utilde" unicode="&#x168;" horiz-adv-x="553" 
d="M477 700v-598q0 -47 -25 -74.5t-75 -27.5h-201q-50 0 -74.5 27.5t-24.5 74.5v598h72v-586q0 -49 45 -49h165q45 0 45 49v586h73zM166 729h-37v20q0 82 79 82q32 0 76.5 -31.5t65.5 -31.5t30 12t9 49h37v-18q0 -46 -19 -65t-57 -19q-32 0 -77 31.5t-65 31.5
q-22 0 -32 -12.5t-10 -48.5z" />
    <glyph glyph-name="utilde" unicode="&#x169;" 
d="M69 102v398h69v-393q0 -49 45 -49h148v442h69v-500h-231q-50 0 -75 27.5t-25 74.5zM123 562h-37v27q0 112 79 112q32 0 76.5 -44t65.5 -44t30 17t9 68h37v-25q0 -62 -19 -88t-57 -26q-25 0 -51.5 22t-49.5 44t-41 22q-22 0 -32 -18t-10 -67z" />
    <glyph glyph-name="Umacron" unicode="&#x16a;" horiz-adv-x="553" 
d="M477 700v-598q0 -47 -25 -74.5t-75 -27.5h-201q-50 0 -74.5 27.5t-24.5 74.5v598h72v-586q0 -49 45 -49h165q45 0 45 49v586h73zM384 758h-213v46h213v-46z" />
    <glyph glyph-name="umacron" unicode="&#x16b;" 
d="M69 102v398h69v-393q0 -49 45 -49h148v442h69v-500h-231q-50 0 -75 27.5t-25 74.5zM341 596h-213v51h213v-51z" />
    <glyph glyph-name="Ubreve" unicode="&#x16c;" horiz-adv-x="553" 
d="M477 700v-598q0 -47 -25 -74.5t-75 -27.5h-201q-50 0 -74.5 27.5t-24.5 74.5v598h72v-586q0 -49 45 -49h165q45 0 45 49v586h73zM396 829v-24q0 -76 -81 -76h-75q-81 0 -81 76v24h47v-17q0 -43 45 -43h53q44 0 44 43v17h48z" />
    <glyph glyph-name="ubreve" unicode="&#x16d;" 
d="M69 102v398h69v-393q0 -49 45 -49h148v442h69v-500h-231q-50 0 -75 27.5t-25 74.5zM353 700v-43q0 -40 -21 -63t-60 -23h-75q-40 0 -60.5 23t-20.5 62v44h47v-34q0 -23 12 -36t33 -13h53q44 0 44 49v34h48z" />
    <glyph glyph-name="Uring" unicode="&#x16e;" horiz-adv-x="553" 
d="M477 700v-598q0 -47 -25 -74.5t-75 -27.5h-201q-50 0 -74.5 27.5t-24.5 74.5v598h72v-586q0 -49 45 -49h165q45 0 45 49v586h73zM340 783q0 28 -41 28h-45q-41 0 -41 -28v-8q0 -26 41 -26h45q41 0 41 26v8zM387 770q0 -22 -20 -36t-57 -14h-66q-38 0 -57.5 14t-19.5 35
v21q0 22 19.5 37t57.5 15h66q36 0 56.5 -15.5t20.5 -37.5v-19z" />
    <glyph glyph-name="uring" unicode="&#x16f;" 
d="M69 102v398h69v-393q0 -49 45 -49h148v442h69v-500h-231q-50 0 -75 27.5t-25 74.5zM297 643q0 22 -9.5 30.5t-31.5 8.5h-45q-22 0 -31.5 -8.5t-9.5 -30.5v-15q0 -21 9.5 -29.5t31.5 -8.5h45q22 0 31.5 8.5t9.5 29.5v15zM344 623q0 -69 -77 -69h-66q-77 0 -77 68v29
q0 68 77 68h66q77 0 77 -68v-28z" />
    <glyph glyph-name="Uhungarumlaut" unicode="&#x170;" horiz-adv-x="553" 
d="M477 700v-598q0 -47 -25 -74.5t-75 -27.5h-201q-50 0 -74.5 27.5t-24.5 74.5v598h72v-586q0 -49 45 -49h165q45 0 45 49v586h73zM266 829h58l-104 -100h-45zM396 829h58l-104 -100h-46z" />
    <glyph glyph-name="uhungarumlaut" unicode="&#x171;" 
d="M69 102v398h69v-393q0 -49 45 -49h148v442h69v-500h-231q-50 0 -75 27.5t-25 74.5zM215 700h58l-104 -139h-45zM345 700h58l-104 -139h-46z" />
    <glyph glyph-name="Uogonek" unicode="&#x172;" horiz-adv-x="553" 
d="M477 700v-598q0 -47 -24.5 -74t-73.5 -28q-127 -55 -127 -98v-15q0 -23 10.5 -33t32.5 -10h77v-44h-99q-39 0 -57 17.5t-18 53.5v21q0 31 28.5 55t101.5 53h-152q-50 0 -74.5 27.5t-24.5 74.5v598h72v-586q0 -49 45 -49h165q45 0 45 49v586h73z" />
    <glyph glyph-name="uogonek" unicode="&#x173;" 
d="M69 102v398h69v-393q0 -49 45 -49h148v442h69v-500h-6q-127 -55 -127 -98v-15q0 -23 10.5 -33t32.5 -10h77v-44h-99q-39 0 -57 17.5t-18 53.5v21q0 31 28.5 55t101.5 53h-174q-50 0 -75 27.5t-25 74.5z" />
    <glyph glyph-name="Wcircumflex" unicode="&#x174;" horiz-adv-x="765" 
d="M382 570l-115 -570h-86l-163 700h75l135 -606l122 606h69l119 -606l137 606h71l-166 -700h-86zM381 793l-72 -64h-52l98 100h54l98 -100h-53z" />
    <glyph glyph-name="wcircumflex" unicode="&#x175;" horiz-adv-x="639" 
d="M359 500l85 -427l101 427h75l-137 -500h-82l-81 405l-83 -405h-83l-134 500h77l102 -427l85 427h75zM319 655l-72 -94h-52l98 139h54l98 -139h-53z" />
    <glyph glyph-name="Ycircumflex" unicode="&#x176;" horiz-adv-x="523" 
d="M300 301v-301h-72v301l-227 399h88l175 -322l174 322h84zM260 793l-72 -64h-52l98 100h54l98 -100h-53z" />
    <glyph glyph-name="ycircumflex" unicode="&#x177;" horiz-adv-x="410" 
d="M184 -200h-78l69 200h-12l-151 500h78l117 -433l116 433h75zM204 655l-72 -94h-52l98 139h54l98 -139h-53z" />
    <glyph glyph-name="Ydieresis" unicode="&#x178;" horiz-adv-x="523" 
d="M300 301v-301h-72v301l-227 399h88l175 -322l174 322h84zM163 809h55v-56h-55v56zM305 809h55v-56h-55v56z" />
    <glyph glyph-name="Zacute" unicode="&#x179;" horiz-adv-x="497" 
d="M45 0v32l318 603h-278q-19 0 -32 -5v70h403v-29l-320 -609h283q20 0 32 5v-67h-406zM300 829h67l-120 -100h-52z" />
    <glyph glyph-name="zacute" unicode="&#x17a;" horiz-adv-x="409" 
d="M37 0v33l246 408h-206q-19 0 -32 -5v64h328v-28l-248 -413h208q19 0 32 5v-64h-328zM254 700h70l-120 -139h-54z" />
    <glyph glyph-name="Zdotaccent" unicode="&#x17b;" horiz-adv-x="497" 
d="M45 0v32l318 603h-278q-19 0 -32 -5v70h403v-29l-320 -609h283q20 0 32 5v-67h-406zM219 800h62v-55h-62v55z" />
    <glyph glyph-name="zdotaccent" unicode="&#x17c;" horiz-adv-x="409" 
d="M37 0v33l246 408h-206q-19 0 -32 -5v64h328v-28l-248 -413h208q19 0 32 5v-64h-328zM171 648h68v-76h-68v76z" />
    <glyph glyph-name="Zcaron" unicode="&#x17d;" horiz-adv-x="497" 
d="M45 0v32l318 603h-278q-19 0 -32 -5v70h403v-29l-320 -609h283q20 0 32 5v-67h-406zM254 765l72 64h52l-98 -100h-54l-98 100h53z" />
    <glyph glyph-name="zcaron" unicode="&#x17e;" horiz-adv-x="409" 
d="M37 0v33l246 408h-206q-19 0 -32 -5v64h328v-28l-248 -413h208q19 0 32 5v-64h-328zM216 606l72 94h52l-98 -139h-54l-98 139h53z" />
    <glyph glyph-name="florin" unicode="&#x192;" horiz-adv-x="294" 
d="M159 441v-539q0 -47 -25 -74.5t-75 -27.5h-101v67q15 -8 39 -8h47q47 0 47 51v688q0 47 24.5 74.5t75.5 27.5h101v-67q-15 8 -39 8h-46q-48 0 -48 -51v-90h133v-59h-133z" />
    <glyph glyph-name="Scommaaccent" unicode="&#x218;" horiz-adv-x="498" 
d="M339 238l-225 183q-53 44 -53 109v68q0 48 24.5 75t74.5 27h255v-73q-15 8 -39 8h-198q-45 0 -45 -50v-54q0 -32 22 -51l225 -183q30 -24 41.5 -49t11.5 -60v-86q0 -48 -24.5 -75t-74.5 -27h-277v73q15 -8 39 -8h219q46 0 46 50v72q0 32 -22 51zM219 -45h64v-67l-45 -106
h-57l38 111v62z" />
    <glyph glyph-name="scommaaccent" unicode="&#x219;" horiz-adv-x="407" 
d="M153 500h188v-67q-13 8 -39 8h-139q-20 0 -32 -12.5t-12 -34.5v-13q0 -30 36 -55l132 -82q37 -23 52 -46t15 -64v-32q0 -49 -25.5 -75.5t-74.5 -26.5h-201v66q13 -7 39 -7h152q20 0 32 12.5t12 34.5v21q0 39 -32 60l-128 81q-42 26 -58.5 49.5t-16.5 62.5v18
q0 48 25.5 75t74.5 27zM178 -45h64v-67l-45 -106h-57l38 111v62z" />
    <glyph glyph-name="circumflex" unicode="&#x2c6;" horiz-adv-x="410" 
d="M204 655l-72 -94h-52l98 139h54l98 -139h-53z" />
    <glyph glyph-name="caron" unicode="&#x2c7;" horiz-adv-x="410" 
d="M206 606l72 94h52l-98 -139h-54l-98 139h53z" />
    <glyph glyph-name="breve" unicode="&#x2d8;" horiz-adv-x="397" 
d="M317 700v-43q0 -40 -21 -63t-60 -23h-75q-40 0 -60.5 23t-20.5 62v44h47v-34q0 -23 12 -36t33 -13h53q44 0 44 49v34h48z" />
    <glyph glyph-name="dotaccent" unicode="&#x2d9;" horiz-adv-x="202" 
d="M67 648h68v-76h-68v76z" />
    <glyph glyph-name="ring" unicode="&#x2da;" horiz-adv-x="379" 
d="M253 643q0 22 -9.5 30.5t-31.5 8.5h-45q-22 0 -31.5 -8.5t-9.5 -30.5v-15q0 -21 9.5 -29.5t31.5 -8.5h45q22 0 31.5 8.5t9.5 29.5v15zM300 623q0 -69 -77 -69h-66q-77 0 -77 68v29q0 68 77 68h66q77 0 77 -68v-28z" />
    <glyph glyph-name="ogonek" unicode="&#x2db;" horiz-adv-x="341" 
d="M261 0q-127 -55 -127 -98v-15q0 -23 10.5 -33t32.5 -10h77v-44h-99q-39 0 -57 17.5t-18 53.5v21q0 31 28.5 55t101.5 53h51z" />
    <glyph glyph-name="tilde" unicode="&#x2dc;" horiz-adv-x="457" 
d="M117 562h-37v27q0 112 79 112q32 0 76.5 -44t65.5 -44t30 17t9 68h37v-25q0 -62 -19 -88t-57 -26q-25 0 -51.5 22t-49.5 44t-41 22q-22 0 -32 -18t-10 -67z" />
    <glyph glyph-name="hungarumlaut" unicode="&#x2dd;" horiz-adv-x="439" 
d="M171 700h58l-104 -139h-45zM301 700h58l-104 -139h-46z" />
    <glyph glyph-name="Delta" unicode="&#x394;" horiz-adv-x="503" 
d="M489 0h-475l215 700h50zM401 72l-148 497l-151 -497h299z" />
    <glyph glyph-name="Delta" unicode="&#x2206;" horiz-adv-x="503" 
d="M489 0h-475l215 700h50zM401 72l-148 497l-151 -497h299z" />
    <glyph glyph-name="Omega" unicode="&#x3a9;" horiz-adv-x="527" 
d="M346 57h115v-57h-166v256h52q45 0 45 49v287q0 49 -45 49h-167q-45 0 -45 -49v-287q0 -49 45 -49h57v-256h-170v57h119v144h-34q-39 0 -62 25.5t-23 72.5v299q0 47 25 74.5t75 27.5h194q50 0 75 -27.5t25 -74.5v-299q0 -47 -24.5 -72.5t-62.5 -25.5h-28v-144z" />
    <glyph glyph-name="Omega" unicode="&#x2126;" horiz-adv-x="527" 
d="M346 57h115v-57h-166v256h52q45 0 45 49v287q0 49 -45 49h-167q-45 0 -45 -49v-287q0 -49 45 -49h57v-256h-170v57h119v144h-34q-39 0 -62 25.5t-23 72.5v299q0 47 25 74.5t75 27.5h194q50 0 75 -27.5t25 -74.5v-299q0 -47 -24.5 -72.5t-62.5 -25.5h-28v-144z" />
    <glyph glyph-name="pi" unicode="&#x3c0;" horiz-adv-x="494" 
d="M389 379v-379h-66v375q-29 2 -76.5 35.5t-70.5 36.5v-447h-61v460q-23 -2 -33.5 -20t-10.5 -62h-34v27q0 59 29 87.5t77 28.5q46 0 117.5 -45t98.5 -45q29 0 41.5 17t12.5 69h38v-25q0 -92 -62 -113z" />
    <glyph glyph-name="endash" unicode="&#x2013;" horiz-adv-x="462" 
d="M407 261h-352v60h352v-60z" />
    <glyph glyph-name="emdash" unicode="&#x2014;" horiz-adv-x="723" 
d="M666 261h-609v60h609v-60z" />
    <glyph glyph-name="quoteleft" unicode="&#x2018;" horiz-adv-x="198" 
d="M129 531h-66v80l46 120h56l-36 -124v-76z" />
    <glyph glyph-name="quoteright" unicode="&#x2019;" horiz-adv-x="198" 
d="M69 700h66v-81l-46 -119h-56l36 124v76z" />
    <glyph glyph-name="quotesinglbase" unicode="&#x201a;" horiz-adv-x="198" 
d="M69 62h66v-80l-46 -120h-56l36 124v76z" />
    <glyph glyph-name="quotedblleft" unicode="&#x201c;" horiz-adv-x="350" 
d="M282 531h-67v80l46 120h56l-35 -124v-76zM129 531h-66v80l46 120h56l-36 -124v-76z" />
    <glyph glyph-name="quotedblright" unicode="&#x201d;" horiz-adv-x="350" 
d="M69 700h66v-81l-46 -119h-56l36 124v76zM221 700h67v-81l-46 -119h-56l35 124v76z" />
    <glyph glyph-name="quotedblbase" unicode="&#x201e;" horiz-adv-x="350" 
d="M69 62h66v-80l-46 -120h-56l36 124v76zM221 62h67v-80l-46 -120h-56l35 124v76z" />
    <glyph glyph-name="dagger" unicode="&#x2020;" horiz-adv-x="493" 
d="M280 439v-439h-67v439h-193v61h193v200h67v-200h193v-61h-193z" />
    <glyph glyph-name="daggerdbl" unicode="&#x2021;" horiz-adv-x="708" 
d="M237 700h70v-164q0 -67 -20.5 -104t-80.5 -37h-206v62h192q45 0 45 49v194zM307 0h-70v193q0 49 -45 49h-192v62h171q87 0 111.5 -31.5t24.5 -108.5v-164zM400 700h70v-194q0 -49 45 -49h192v-62h-171q-87 0 -111.5 31t-24.5 110v164zM470 0h-70v164q0 32 3.5 54.5
t13.5 43.5t31 31.5t53 10.5h206v-62h-192q-45 0 -45 -49v-193z" />
    <glyph glyph-name="bullet" unicode="&#x2022;" horiz-adv-x="427" 
d="M355 119q0 -90 -86 -90h-111q-85 0 -85 90v264q0 90 85 90h111q86 0 86 -90v-264z" />
    <glyph glyph-name="ellipsis" unicode="&#x2026;" horiz-adv-x="666" 
d="M59 0v78h75v-78h-75zM294 0v78h75v-78h-75zM529 0v78h75v-78h-75z" />
    <glyph glyph-name="perthousand" unicode="&#x2030;" horiz-adv-x="874" 
d="M445 700h69l-360 -700h-68zM216 461v140q0 48 -44 48h-25q-44 0 -44 -48v-140q0 -48 44 -48h25q44 0 44 48zM50 455v153q0 40 23 66t69 26h36q45 0 68 -26t23 -66v-152q0 -45 -24 -70t-70 -25h-36q-42 0 -65.5 24.5t-23.5 69.5zM497 100v140q0 48 -44 48h-25
q-44 0 -44 -48v-140q0 -48 44 -48h25q44 0 44 48zM331 94v153q0 40 23 66t69 26h36q45 0 68 -26t23 -66v-152q0 -45 -24 -70t-70 -25h-36q-42 0 -65.5 24.5t-23.5 69.5zM773 100v140q0 48 -44 48h-25q-44 0 -44 -48v-140q0 -48 44 -48h25q44 0 44 48zM607 94v153q0 40 23 66
t69 26h36q45 0 68 -26t23 -66v-152q0 -45 -24 -70t-70 -25h-36q-42 0 -65.5 24.5t-23.5 69.5z" />
    <glyph glyph-name="guilsinglleft" unicode="&#x2039;" horiz-adv-x="348" 
d="M115 297l193 -158v-74l-268 202v56l268 202v-70z" />
    <glyph glyph-name="guilsinglright" unicode="&#x203a;" horiz-adv-x="348" 
d="M308 267l-268 -202v70l193 158l-193 158v74l268 -202v-56z" />
    <glyph glyph-name="fraction" unicode="&#x2044;" horiz-adv-x="435" 
d="M355 700h77l-349 -700h-76z" />
    <glyph glyph-name="fraction" unicode="&#x2215;" horiz-adv-x="435" 
d="M355 700h77l-349 -700h-76z" />
    <glyph glyph-name="Euro" unicode="&#x20ac;" horiz-adv-x="476" 
d="M149 417v-107h213v-43h-213v-152q0 -50 47 -50h214q26 0 39 8v-73h-272q-50 0 -75 27.5t-25 75.5v164h-34v43h34v107h-34v44h34v138q0 46 25 73.5t75 27.5h272v-73q-13 8 -39 8h-215q-46 0 -46 -50v-124h213v-44h-213z" />
    <glyph glyph-name="trademark" unicode="&#x2122;" horiz-adv-x="535" 
d="M101 511q0 -26 23 -26h21q12 0 20 4v-39h-59q-20 0 -33 12t-13 32v253l41 21v-68h64v-35h-64v-154zM482 656v-206h-41v190q0 25 -22 25h-32q-22 0 -22 -25v-190h-41v190q0 25 -21 25h-56v-215h-40v250h99q35 0 40 -33q2 15 12.5 24t27.5 9h52q21 0 32.5 -12t11.5 -32z
" />
    <glyph glyph-name="partialdiff" unicode="&#x2202;" horiz-adv-x="517" 
d="M366 338h-170q-45 0 -45 -49v-175q0 -49 44 -49h126q45 0 45 49v224zM170 700l247 -263q21 -22 21 -71v-264q0 -47 -24.5 -74.5t-74.5 -27.5h-161q-50 0 -75 27.5t-25 74.5v195q0 47 25 74.5t75 27.5h189l-280 301h83z" />
    <glyph glyph-name="product" unicode="&#x220f;" horiz-adv-x="553" 
d="M404 640h-255v-640h-72v700h400v-700h-73v640z" />
    <glyph glyph-name="summation" unicode="&#x2211;" horiz-adv-x="497" 
d="M290 351l-154 -289h283q20 0 32 5v-67h-406v32l167 319l-167 320v29h404v-70q-13 5 -32 5h-279z" />
    <glyph glyph-name="radical" unicode="&#x221a;" horiz-adv-x="685" 
d="M272 95l295 605h76l-349 -700h-89v440h-155v60h222v-405z" />
    <glyph glyph-name="infinity" unicode="&#x221e;" horiz-adv-x="734" 
d="M368 448q1 90 100 90h123q44 0 70.5 -23.5t26.5 -71.5v-156q0 -48 -26.5 -71.5t-70.5 -23.5h-123q-99 0 -100 90q-1 -47 -26 -68.5t-75 -21.5h-123q-45 0 -71 23.5t-26 71.5v156q0 48 26 71.5t71 23.5h123q50 0 75 -21.5t26 -68.5zM104 428v-126q0 -44 48 -44h132
q55 0 55 47v120q0 47 -55 47h-132q-48 0 -48 -44zM630 428q0 44 -48 44h-132q-55 0 -55 -47v-120q0 -47 55 -47h132q48 0 48 44v126z" />
    <glyph glyph-name="integral" unicode="&#x222b;" horiz-adv-x="270" 
d="M168 -98q0 -47 -25.5 -74.5t-75.5 -27.5h-101v67q15 -8 39 -8h47q47 0 47 51v688q0 47 24.5 74.5t75.5 27.5h101v-67q-13 8 -39 8h-46q-47 0 -47 -51v-688z" />
    <glyph glyph-name="approxequal" unicode="&#x2248;" horiz-adv-x="455" 
d="M90 341h-41v26q0 59 25 90t67 31q33 0 66.5 -23.5t62.5 -47t53 -23.5q28 0 39.5 17.5t11.5 72.5h40v-33q0 -114 -89 -114q-32 0 -65 23.5t-62.5 47t-53.5 23.5q-29 0 -41.5 -18.5t-12.5 -71.5zM90 139h-41v26q0 59 25 90t67 31q33 0 66.5 -23.5t62.5 -47t53 -23.5
q28 0 39.5 17.5t11.5 73.5h40v-34q0 -114 -89 -114q-32 0 -65 23.5t-62.5 47t-53.5 23.5q-29 0 -41.5 -18.5t-12.5 -71.5z" />
    <glyph glyph-name="notequal" unicode="&#x2260;" horiz-adv-x="462" 
d="M303 378l-91 -154h195v-58h-225l-63 -106h-49l62 106h-77v58h108l90 154h-198v57h229l60 105h50l-61 -105h74v-57h-104z" />
    <glyph glyph-name="lessequal" unicode="&#x2264;" horiz-adv-x="462" 
d="M407 0h-352v60h352v-60zM137 341l270 -161v-58l-352 192v50l352 192v-55z" />
    <glyph glyph-name="greaterequal" unicode="&#x2265;" horiz-adv-x="462" 
d="M55 0v60h352v-60h-352zM324 338l-269 160v58l352 -192v-50l-352 -191v54z" />
    <glyph glyph-name="lozenge" unicode="&#x25ca;" horiz-adv-x="503" 
d="M462 253l-184 -453h-59l-177 447l184 453h59zM386 252l-132 333l-135 -336l132 -334z" />
    <glyph glyph-name="commaaccent" unicode="&#xf6c3;" horiz-adv-x="201" 
d="M72 -45h64v-67l-45 -106h-57l38 111v62z" />
    <glyph glyph-name="Acute" unicode="&#xf6c9;" horiz-adv-x="477" 
d="M307 829h67l-120 -100h-52z" />
    <glyph glyph-name="Caron" unicode="&#xf6ca;" horiz-adv-x="410" 
d="M206 765l72 64h52l-98 -100h-54l-98 100h53z" />
    <glyph glyph-name="Dieresis" unicode="&#xf6cb;" horiz-adv-x="353" 
d="M78 809h55v-56h-55v56zM220 809h55v-56h-55v56z" />
    <glyph glyph-name="Grave" unicode="&#xf6ce;" horiz-adv-x="334" 
d="M150 829l104 -100h-54l-120 100h70z" />
    <glyph glyph-name="Hungarumlaut" unicode="&#xf6cf;" horiz-adv-x="439" 
d="M171 829h58l-104 -100h-45zM301 829h58l-104 -100h-46z" />
    <glyph glyph-name="Macron" unicode="&#xf6d0;" horiz-adv-x="373" 
d="M293 758h-213v46h213v-46z" />
    <glyph glyph-name="Lslashsmall" unicode="&#xf6f9;" horiz-adv-x="355" 
d="M30 165v54l39 46v235h69v-176l86 100v-53l-86 -100v-212h170q27 0 39 7v-66h-278v212z" />
    <glyph glyph-name="OEsmall" unicode="&#xf6fa;" horiz-adv-x="703" 
d="M592 440h-146q-47 0 -47 -51v-94h232v-54h-232v-132q0 -51 47 -51h146q25 0 39 7v-65h-194q-52 0 -72 34q-34 -34 -72 -34h-113q-66 0 -88.5 25.5t-22.5 77.5v287q0 59 24 84.5t87 25.5h113q49 0 72 -37q21 37 72 37h194v-67q-14 7 -39 7zM331 107v284q0 49 -45 49h-103
q-45 0 -45 -49v-284q0 -49 44 -49h103q46 0 46 49z" />
    <glyph glyph-name="Scaronsmall" unicode="&#xf6fd;" horiz-adv-x="407" 
d="M153 500h188v-67q-13 8 -39 8h-139q-20 0 -32 -12.5t-12 -34.5v-13q0 -30 36 -55l132 -82q37 -23 52 -46t15 -64v-32q0 -49 -25.5 -75.5t-74.5 -26.5h-201v66q13 -7 39 -7h152q20 0 32 12.5t12 34.5v21q0 39 -32 60l-128 81q-42 26 -58.5 49.5t-16.5 62.5v18
q0 48 25.5 75t74.5 27zM204 606l72 94h52l-98 -139h-54l-98 139h53z" />
    <glyph glyph-name="Zcaronsmall" unicode="&#xf6ff;" horiz-adv-x="409" 
d="M37 0v33l246 408h-206q-19 0 -32 -5v64h328v-28l-248 -413h208q19 0 32 5v-64h-328zM209 606l72 94h52l-98 -139h-54l-98 139h53z" />
    <glyph glyph-name="exclamsmall" unicode="&#xf721;" horiz-adv-x="200" 
d="M66 151l-1 349h71l-1 -349h-69zM63 0v78h75v-78h-75z" />
    <glyph glyph-name="ampersandsmall" unicode="&#xf726;" horiz-adv-x="604" 
d="M378 241h-196q-17 0 -28 -12.5t-11 -31.5v-93q0 -44 39 -44h103q17 0 29 5v-65h-143q-59 0 -78 23t-19 89v63q0 93 94 93q-94 0 -94 75v49q0 54 20 81t77 27h278v-67q-14 5 -30 5h-237q-39 0 -39 -44v-54q0 -19 11.5 -32t27.5 -13h365v-54h-99v-148q0 -33 29 -33h31
q26 0 39 7v-67h-83q-50 0 -68 23.5t-18 73.5v144z" />
    <glyph glyph-name="questionsmall" unicode="&#xf73f;" horiz-adv-x="403" 
d="M152 134l-1 40q0 46 43 82l93 77q20 17 20 44v21q0 43 -45 43h-176q-24 0 -39 -7v66h219q59 0 85 -22.5t26 -72.5q0 -45 -9 -66.5t-30 -39.5l-96 -77q-9 -7 -13.5 -18t-5.5 -18t-1.5 -26t-1.5 -26h-68zM148 0v61h76v-61h-76z" />
    <glyph glyph-name="Asmall" unicode="&#xf761;" horiz-adv-x="462" 
d="M163 297h161v96q0 49 -44 49h-164q-26 0 -39 -8v66h216q50 0 75 -27t25 -74v-399h-230q-50 0 -75 27.5t-25 74.5v94q0 47 25 74t75 27zM177 246q-46 0 -46 -49v-89q0 -50 46 -50h147v188h-147z" />
    <glyph glyph-name="Bsmall" unicode="&#xf762;" horiz-adv-x="465" 
d="M399 181v-75q0 -48 -20.5 -77t-79.5 -29h-230v500h230q56 0 78 -27.5t22 -78.5v-44q0 -81 -91 -82q91 -6 91 -87zM288 241h-150v-183h153q40 0 40 49v77q0 57 -43 57zM138 440v-145h150q43 0 43 56v40q0 49 -40 49h-153z" />
    <glyph glyph-name="Csmall" unicode="&#xf763;" horiz-adv-x="392" 
d="M317 440h-132q-47 0 -47 -51v-280q0 -51 47 -51h132q25 0 39 7v-65h-170q-59 0 -88 25.5t-29 81.5v279q0 114 116 114h171v-67q-14 7 -39 7z" />
    <glyph glyph-name="Dsmall" unicode="&#xf764;" 
d="M138 440v-382h148q45 0 45 49v284q0 49 -45 49h-148zM69 500h230q50 0 75 -27.5t25 -74.5v-297q0 -47 -25 -74t-75 -27h-230v500z" />
    <glyph glyph-name="Esmall" unicode="&#xf765;" horiz-adv-x="411" 
d="M331 440h-146q-47 0 -47 -51v-94h232v-54h-232v-132q0 -51 47 -51h146q24 0 39 7v-65h-183q-61 0 -89.5 23.5t-28.5 83.5v280q0 113 116 113h185v-67q-15 7 -39 7z" />
    <glyph glyph-name="Fsmall" unicode="&#xf766;" horiz-adv-x="346" 
d="M185 440q-47 0 -47 -51v-99h194v-59h-194v-231h-69v387q0 58 31 85.5t82 27.5h150v-67q-13 7 -39 7h-108z" />
    <glyph glyph-name="Gsmall" unicode="&#xf767;" 
d="M331 249v191h-148q-21 0 -33 -12t-12 -34v-100q0 -21 12 -33t33 -12h148zM331 107v83h-151q-111 0 -111 104v98q0 50 25 79t75 29h230v-394q0 -106 -106 -106h-207v65q12 -7 39 -7h158q48 0 48 49z" />
    <glyph glyph-name="Hsmall" unicode="&#xf768;" 
d="M331 500h68v-500h-68v246h-193v-246h-69v500h69v-197h193v197z" />
    <glyph glyph-name="Ismall" unicode="&#xf769;" horiz-adv-x="207" 
d="M69 500h69v-500h-69v500z" />
    <glyph glyph-name="Jsmall" unicode="&#xf76a;" horiz-adv-x="364" 
d="M226 107v393h69v-394q0 -52 -23.5 -79t-90.5 -27h-173v65q14 -7 38 -7h133q47 0 47 49z" />
    <glyph glyph-name="Ksmall" unicode="&#xf76b;" horiz-adv-x="446" 
d="M213 303q28 0 43 35l73 162h73l-82 -179q-17 -35 -41 -44q26 -12 40 -46l96 -231h-79l-80 209q-13 37 -42 37h-76v-246h-69v500h69v-197h75z" />
    <glyph glyph-name="Lsmall" unicode="&#xf76c;" horiz-adv-x="355" 
d="M347 65v-65h-278v500h69v-442h170q24 0 39 7z" />
    <glyph glyph-name="Msmall" unicode="&#xf76d;" horiz-adv-x="677" 
d="M607 398v-398h-69v391q0 49 -45 49h-75q-45 0 -45 -49v-391h-69v391q0 49 -44 49h-122v-440h-69v500h170q48 0 72 -14.5t30 -51.5q4 29 26 47.5t57 18.5h69q114 0 114 -102z" />
    <glyph glyph-name="Nsmall" unicode="&#xf76e;" 
d="M399 397v-397h-68v391q0 49 -45 49h-148v-440h-69v500h230q50 0 75 -27.5t25 -75.5z" />
    <glyph glyph-name="Osmall" unicode="&#xf76f;" 
d="M331 107v285q0 49 -45 49h-103q-45 0 -45 -49v-285q0 -49 45 -49h103q45 0 45 49zM69 102v296q0 47 25 74.5t75 27.5h131q50 0 75 -27.5t25 -74.5v-296q0 -47 -25 -74.5t-75 -27.5h-131q-50 0 -75 27.5t-25 74.5z" />
    <glyph glyph-name="Psmall" unicode="&#xf770;" horiz-adv-x="444" 
d="M138 238h148q45 0 45 49v104q0 49 -45 49h-148v-202zM69 500h223q107 0 107 -112v-106q0 -102 -111 -102h-150v-180h-69v500z" />
    <glyph glyph-name="Qsmall" unicode="&#xf771;" horiz-adv-x="444" 
d="M157 238h149v202h-149q-44 0 -44 -49v-104q0 -49 44 -49zM144 500h230v-500h-68v180h-160q-102 0 -102 102v118q0 100 100 100z" />
    <glyph glyph-name="Rsmall" unicode="&#xf772;" horiz-adv-x="352" 
d="M307 437h-112q-57 0 -57 -70v-367h-69v500h60v-53q11 53 71 53h144v-71q-15 8 -37 8z" />
    <glyph glyph-name="Ssmall" unicode="&#xf773;" horiz-adv-x="407" 
d="M153 500h188v-67q-13 8 -39 8h-139q-20 0 -32 -12.5t-12 -34.5v-13q0 -30 36 -55l132 -82q37 -23 52 -46t15 -64v-32q0 -49 -25.5 -75.5t-74.5 -26.5h-201v66q13 -7 39 -7h152q20 0 32 12.5t12 34.5v21q0 39 -32 60l-128 81q-42 26 -58.5 49.5t-16.5 62.5v18
q0 48 25.5 75t74.5 27z" />
    <glyph glyph-name="Tsmall" unicode="&#xf774;" horiz-adv-x="410" 
d="M192 111q0 -51 47 -51h99q27 0 39 7v-67h-154q-50 0 -75 27.5t-25 74.5v339h-109v59h363v-59h-185v-330z" />
    <glyph glyph-name="Usmall" unicode="&#xf775;" 
d="M69 101v399h69v-393q0 -49 44 -49h149v442h68v-500h-231q-49 0 -74 27t-25 74z" />
    <glyph glyph-name="Vsmall" unicode="&#xf776;" horiz-adv-x="410" 
d="M245 0h-83l-150 500h78l116 -430l116 430h76z" />
    <glyph glyph-name="Wsmall" unicode="&#xf777;" horiz-adv-x="639" 
d="M284 500h75l84 -427l102 427h74l-137 -500h-81l-81 405l-84 -405h-82l-134 500h77l101 -427z" />
    <glyph glyph-name="Xsmall" unicode="&#xf778;" horiz-adv-x="430" 
d="M254 251l154 -251h-80l-114 196l-114 -196h-78l154 249l-155 251h81l114 -197l114 197h78z" />
    <glyph glyph-name="Ysmall" unicode="&#xf779;" 
d="M331 249v251h69v-398q0 -47 -25 -74.5t-75 -27.5h-214v66q15 -8 39 -8h159q47 0 47 49v84h-162q-50 0 -75 27t-25 75v207h69v-202q0 -49 45 -49h148z" />
    <glyph glyph-name="Zsmall" unicode="&#xf77a;" horiz-adv-x="409" 
d="M37 0v33l246 408h-206q-19 0 -32 -5v64h328v-28l-248 -413h208q19 0 32 5v-64h-328z" />
    <glyph glyph-name="exclamdownsmall" unicode="&#xf7a1;" horiz-adv-x="201" 
d="M66 348h69l1 -348h-71zM138 500v-79h-75v79h75z" />
    <glyph glyph-name="questiondownsmall" unicode="&#xf7bf;" horiz-adv-x="403" 
d="M250 365l1 -40q0 -26 -9.5 -43t-34.5 -37l-90 -73q-22 -18 -22 -51v-17q0 -46 44 -46h177q24 0 39 7v-65h-248q-82 0 -82 99q0 73 55 116l78 62q12 9 17.5 25t6 25.5t0.5 37.5h68zM253 500v-62h-75v62h75z" />
    <glyph glyph-name="Agravesmall" unicode="&#xf7e0;" horiz-adv-x="462" 
d="M163 297h161v96q0 49 -44 49h-164q-26 0 -39 -8v66h216q50 0 75 -27t25 -74v-399h-230q-50 0 -75 27.5t-25 74.5v94q0 47 25 74t75 27zM177 246q-46 0 -46 -49v-89q0 -50 46 -50h147v188h-147zM188 700l104 -139h-54l-120 139h70z" />
    <glyph glyph-name="Aacutesmall" unicode="&#xf7e1;" horiz-adv-x="462" 
d="M163 297h161v96q0 49 -44 49h-164q-26 0 -39 -8v66h216q50 0 75 -27t25 -74v-399h-230q-50 0 -75 27.5t-25 74.5v94q0 47 25 74t75 27zM177 246q-46 0 -46 -49v-89q0 -50 46 -50h147v188h-147zM263 700h70l-120 -139h-54z" />
    <glyph glyph-name="Acircumflexsmall" unicode="&#xf7e2;" horiz-adv-x="462" 
d="M163 297h161v96q0 49 -44 49h-164q-26 0 -39 -8v66h216q50 0 75 -27t25 -74v-399h-230q-50 0 -75 27.5t-25 74.5v94q0 47 25 74t75 27zM177 246q-46 0 -46 -49v-89q0 -50 46 -50h147v188h-147zM231 655l-72 -94h-52l98 139h54l98 -139h-53z" />
    <glyph glyph-name="Atildesmall" unicode="&#xf7e3;" horiz-adv-x="462" 
d="M163 297h161v96q0 49 -44 49h-164q-26 0 -39 -8v66h216q50 0 75 -27t25 -74v-399h-230q-50 0 -75 27.5t-25 74.5v94q0 47 25 74t75 27zM177 246q-46 0 -46 -49v-89q0 -50 46 -50h147v188h-147zM111 562h-37v27q0 112 79 112q32 0 76.5 -44t65.5 -44t30 17t9 68h37v-25
q0 -62 -19 -88t-57 -26q-25 0 -51.5 22t-49.5 44t-41 22q-22 0 -32 -18t-10 -67z" />
    <glyph glyph-name="Adieresissmall" unicode="&#xf7e4;" horiz-adv-x="462" 
d="M163 297h161v96q0 49 -44 49h-164q-26 0 -39 -8v66h216q50 0 75 -27t25 -74v-399h-230q-50 0 -75 27.5t-25 74.5v94q0 47 25 74t75 27zM177 246q-46 0 -46 -49v-89q0 -50 46 -50h147v188h-147zM131 663h55v-71h-55v71zM273 663h55v-71h-55v71z" />
    <glyph glyph-name="Aringsmall" unicode="&#xf7e5;" horiz-adv-x="462" 
d="M163 297h161v96q0 49 -44 49h-164q-26 0 -39 -8v66h216q50 0 75 -27t25 -74v-399h-230q-50 0 -75 27.5t-25 74.5v94q0 47 25 74t75 27zM177 246q-46 0 -46 -49v-89q0 -50 46 -50h147v188h-147zM294 643q0 22 -9.5 30.5t-31.5 8.5h-45q-22 0 -31.5 -8.5t-9.5 -30.5v-15
q0 -21 9.5 -29.5t31.5 -8.5h45q22 0 31.5 8.5t9.5 29.5v15zM341 623q0 -69 -77 -69h-66q-77 0 -77 68v29q0 68 77 68h66q77 0 77 -68v-28z" />
    <glyph glyph-name="AEsmall" unicode="&#xf7e6;" horiz-adv-x="697" 
d="M434 500h191v-67q-15 7 -39 7h-147q-22 0 -34.5 -13.5t-12.5 -37.5v-94h233v-54h-233v-132q0 -51 47 -51h147q24 0 39 7v-65h-192q-53 0 -75 35q-21 -35 -75 -35h-134q-41 0 -64 27.5t-23 68.5v109q0 91 108 91h154v96q0 49 -45 49h-164q-26 0 -39 -7v66h206q53 0 77 -37
q22 37 75 37zM324 107v139h-157q-22 0 -29 -10t-7 -35v-99q0 -25 7 -35t28 -10h112q46 0 46 50z" />
    <glyph glyph-name="Ccedillasmall" unicode="&#xf7e7;" horiz-adv-x="392" 
d="M317 440h-132q-47 0 -47 -51v-280q0 -51 47 -51h132q25 0 39 7v-65h-170q-59 0 -88 25.5t-29 81.5v279q0 114 116 114h171v-67q-14 7 -39 7zM237 -39h23q39 0 57 -17.5t18 -53.5v-15q0 -75 -75 -75h-122l13 38h87q23 0 33 9.5t10 32.5v8q0 23 -10 32.5t-32 9.5h-56l26 77
h44z" />
    <glyph glyph-name="Egravesmall" unicode="&#xf7e8;" horiz-adv-x="411" 
d="M331 440h-146q-47 0 -47 -51v-94h232v-54h-232v-132q0 -51 47 -51h146q24 0 39 7v-65h-183q-61 0 -89.5 23.5t-28.5 83.5v280q0 113 116 113h185v-67q-15 7 -39 7zM203 700l104 -139h-54l-120 139h70z" />
    <glyph glyph-name="Eacutesmall" unicode="&#xf7e9;" horiz-adv-x="411" 
d="M331 440h-146q-47 0 -47 -51v-94h232v-54h-232v-132q0 -51 47 -51h146q24 0 39 7v-65h-183q-61 0 -89.5 23.5t-28.5 83.5v280q0 113 116 113h185v-67q-15 7 -39 7zM284 700h70l-120 -139h-54z" />
    <glyph glyph-name="Ecircumflexsmall" unicode="&#xf7ea;" horiz-adv-x="411" 
d="M331 440h-146q-47 0 -47 -51v-94h232v-54h-232v-132q0 -51 47 -51h146q24 0 39 7v-65h-183q-61 0 -89.5 23.5t-28.5 83.5v280q0 113 116 113h185v-67q-15 7 -39 7zM235 655l-72 -94h-52l98 139h54l98 -139h-53z" />
    <glyph glyph-name="Edieresissmall" unicode="&#xf7eb;" horiz-adv-x="411" 
d="M331 440h-146q-47 0 -47 -51v-94h232v-54h-232v-132q0 -51 47 -51h146q24 0 39 7v-65h-183q-61 0 -89.5 23.5t-28.5 83.5v280q0 113 116 113h185v-67q-15 7 -39 7zM137 663h55v-71h-55v71zM279 663h55v-71h-55v71z" />
    <glyph glyph-name="Igravesmall" unicode="&#xf7ec;" horiz-adv-x="207" 
d="M69 500h69v-500h-69v500zM59 700l104 -139h-54l-120 139h70z" />
    <glyph glyph-name="Iacutesmall" unicode="&#xf7ed;" horiz-adv-x="207" 
d="M69 500h69v-500h-69v500zM151 700h70l-120 -139h-54z" />
    <glyph glyph-name="Icircumflexsmall" unicode="&#xf7ee;" horiz-adv-x="207" 
d="M69 500h69v-500h-69v500zM103 655l-72 -94h-52l98 139h54l98 -139h-53z" />
    <glyph glyph-name="Idieresissmall" unicode="&#xf7ef;" horiz-adv-x="207" 
d="M69 500h69v-500h-69v500zM5 663h55v-71h-55v71zM147 663h55v-71h-55v71z" />
    <glyph glyph-name="Ethsmall" unicode="&#xf7f0;" horiz-adv-x="517" 
d="M366 338h-170q-45 0 -45 -49v-175q0 -49 44 -49h126q45 0 45 49v224zM268 596l149 -159q21 -22 21 -71v-264q0 -47 -24.5 -74.5t-74.5 -27.5h-161q-50 0 -75 27.5t-25 74.5v195q0 47 25 74.5t75 27.5h189l-151 162l-61 -48l-30 32l62 48l-100 107h83l68 -72l59 45l30 -31
z" />
    <glyph glyph-name="Ntildesmall" unicode="&#xf7f1;" 
d="M399 397v-397h-68v391q0 49 -45 49h-148v-440h-69v500h230q50 0 75 -27.5t25 -75.5zM109 562h-37v27q0 112 79 112q32 0 76.5 -44t65.5 -44t30 17t9 68h37v-25q0 -62 -19 -88t-57 -26q-25 0 -51.5 22t-49.5 44t-41 22q-22 0 -32 -18t-10 -67z" />
    <glyph glyph-name="Ogravesmall" unicode="&#xf7f2;" 
d="M331 107v285q0 49 -45 49h-103q-45 0 -45 -49v-285q0 -49 45 -49h103q45 0 45 49zM69 102v296q0 47 25 74.5t75 27.5h131q50 0 75 -27.5t25 -74.5v-296q0 -47 -25 -74.5t-75 -27.5h-131q-50 0 -75 27.5t-25 74.5zM200 700l104 -139h-54l-120 139h70z" />
    <glyph glyph-name="Oacutesmall" unicode="&#xf7f3;" 
d="M331 107v285q0 49 -45 49h-103q-45 0 -45 -49v-285q0 -49 45 -49h103q45 0 45 49zM69 102v296q0 47 25 74.5t75 27.5h131q50 0 75 -27.5t25 -74.5v-296q0 -47 -25 -74.5t-75 -27.5h-131q-50 0 -75 27.5t-25 74.5zM265 700h70l-120 -139h-54z" />
    <glyph glyph-name="Ocircumflexsmall" unicode="&#xf7f4;" 
d="M331 107v285q0 49 -45 49h-103q-45 0 -45 -49v-285q0 -49 45 -49h103q45 0 45 49zM69 102v296q0 47 25 74.5t75 27.5h131q50 0 75 -27.5t25 -74.5v-296q0 -47 -25 -74.5t-75 -27.5h-131q-50 0 -75 27.5t-25 74.5zM234 655l-72 -94h-52l98 139h54l98 -139h-53z" />
    <glyph glyph-name="Otildesmall" unicode="&#xf7f5;" 
d="M331 107v285q0 49 -45 49h-103q-45 0 -45 -49v-285q0 -49 45 -49h103q45 0 45 49zM69 102v296q0 47 25 74.5t75 27.5h131q50 0 75 -27.5t25 -74.5v-296q0 -47 -25 -74.5t-75 -27.5h-131q-50 0 -75 27.5t-25 74.5zM124 562h-37v27q0 112 79 112q32 0 76.5 -44t65.5 -44
t30 17t9 68h37v-25q0 -62 -19 -88t-57 -26q-25 0 -51.5 22t-49.5 44t-41 22q-22 0 -32 -18t-10 -67z" />
    <glyph glyph-name="Odieresissmall" unicode="&#xf7f6;" 
d="M331 107v285q0 49 -45 49h-103q-45 0 -45 -49v-285q0 -49 45 -49h103q45 0 45 49zM69 102v296q0 47 25 74.5t75 27.5h131q50 0 75 -27.5t25 -74.5v-296q0 -47 -25 -74.5t-75 -27.5h-131q-50 0 -75 27.5t-25 74.5zM132 663h55v-71h-55v71zM274 663h55v-71h-55v71z" />
    <glyph glyph-name="Oslashsmall" unicode="&#xf7f8;" 
d="M331 341l-193 -244q5 -39 45 -39h103q45 0 45 49v234zM399 423v-321q0 -47 -25 -74.5t-75 -27.5h-130q-58 0 -78 39l-31 -39h-50l59 74v324q0 47 25 74.5t75 27.5h131q57 0 80 -40l31 40h50zM330 399q-4 42 -44 42h-103q-45 0 -45 -49v-237z" />
    <glyph glyph-name="Ugravesmall" unicode="&#xf7f9;" 
d="M69 101v399h69v-393q0 -49 44 -49h149v442h68v-500h-231q-49 0 -74 27t-25 74zM197 700l104 -139h-54l-120 139h70z" />
    <glyph glyph-name="Uacutesmall" unicode="&#xf7fa;" 
d="M69 101v399h69v-393q0 -49 44 -49h149v442h68v-500h-231q-49 0 -74 27t-25 74zM270 700h70l-120 -139h-54z" />
    <glyph glyph-name="Ucircumflexsmall" unicode="&#xf7fb;" 
d="M69 101v399h69v-393q0 -49 44 -49h149v442h68v-500h-231q-49 0 -74 27t-25 74zM230 655l-72 -94h-52l98 139h54l98 -139h-53z" />
    <glyph glyph-name="Udieresissmall" unicode="&#xf7fc;" 
d="M69 101v399h69v-393q0 -49 44 -49h149v442h68v-500h-231q-49 0 -74 27t-25 74zM134 663h55v-71h-55v71zM276 663h55v-71h-55v71z" />
    <glyph glyph-name="Yacutesmall" unicode="&#xf7fd;" 
d="M331 249v251h69v-398q0 -47 -25 -74.5t-75 -27.5h-214v66q15 -8 39 -8h159q47 0 47 49v84h-162q-50 0 -75 27t-25 75v207h69v-202q0 -49 45 -49h148zM274 700h70l-120 -139h-54z" />
    <glyph glyph-name="Thornsmall" unicode="&#xf7fe;" horiz-adv-x="461" 
d="M69 500h69v-84h149q62 0 87 -25t25 -88v-105q0 -54 -26 -78t-86 -24h-149v-96h-69v500zM138 154h149q44 0 44 49v104q0 50 -44 50h-149v-203z" />
    <glyph glyph-name="Ydieresissmall" unicode="&#xf7ff;" 
d="M331 249v251h69v-398q0 -47 -25 -74.5t-75 -27.5h-214v66q15 -8 39 -8h159q47 0 47 49v84h-162q-50 0 -75 27t-25 75v207h69v-202q0 -49 45 -49h148zM134 663h55v-71h-55v71zM276 663h55v-71h-55v71z" />
    <glyph glyph-name="fi" unicode="&#xfb01;" horiz-adv-x="460" 
d="M322 441h-184v-441h-69v598q0 47 25 74.5t76 27.5h221v-67q-15 8 -39 8h-167q-47 0 -47 -51v-90h253v-500h-69v441z" />
    <glyph glyph-name="fl" unicode="&#xfb02;" horiz-adv-x="460" 
d="M322 441h-184v-441h-69v598q0 47 25.5 74.5t75.5 27.5h82v-64q-11 5 -30 5h-37q-47 0 -47 -51v-90h184v200h69v-700h-69v441z" />
    <glyph glyph-name="Breve" horiz-adv-x="397" 
d="M317 829v-24q0 -76 -81 -76h-75q-81 0 -81 76v24h47v-17q0 -43 45 -43h53q44 0 44 43v17h48z" />
    <glyph glyph-name="caron.alt" horiz-adv-x="202" 
d="M133 539l6 161h56l-18 -161h-44z" />
    <glyph glyph-name="Circumflex" horiz-adv-x="410" 
d="M205 793l-72 -64h-52l98 100h54l98 -100h-53z" />
    <glyph glyph-name="Dotaccent" horiz-adv-x="202" 
d="M70 800h62v-55h-62v55z" />
    <glyph glyph-name="Ring" horiz-adv-x="379" 
d="M253 783q0 28 -41 28h-45q-41 0 -41 -28v-8q0 -26 41 -26h45q41 0 41 26v8zM300 770q0 -22 -20 -36t-57 -14h-66q-38 0 -57.5 14t-19.5 35v21q0 22 19.5 37t57.5 15h66q36 0 56.5 -15.5t20.5 -37.5v-19z" />
    <glyph glyph-name="Tilde" horiz-adv-x="457" 
d="M117 729h-37v20q0 82 79 82q32 0 76.5 -31.5t65.5 -31.5t30 12t9 49h37v-18q0 -46 -19 -65t-57 -19q-32 0 -77 31.5t-65 31.5q-22 0 -32 -12.5t-10 -48.5z" />
    <glyph glyph-name="publish" horiz-adv-x="668" 
d="M534 98v504q0 51 -46 51h-308q-47 0 -47 -51v-504q0 -51 47 -51h308q46 0 46 51zM78 102v496q0 47 25 74.5t75 27.5h312q49 0 74 -27.5t25 -74.5v-496q0 -47 -25 -74.5t-74 -27.5h-312q-50 0 -75 27.5t-25 74.5zM412 311h-165v-199h-51v481h215q29 0 45.5 -17.5
t16.5 -47.5v-149q0 -31 -16 -49.5t-45 -18.5zM247 548v-194h139q36 0 36 39v116q0 39 -36 39h-139z" />
    <glyph glyph-name="cross" horiz-adv-x="775" 
d="M449 -111v286h286v-69h-217v-217h-69zM40 175h286v-286h-69v217h-217v69zM326 584v-286h-286v68h217v218h69zM449 584h69v-217h217v-69h-286v286z" />
    <glyph glyph-name="dmacron" 
d="M400 0h-231q-50 0 -75 27.5t-25 74.5v296q0 47 25 74.5t75 27.5h162v96h-93v51h93v53h69v-53h51v-51h-51v-596zM331 441h-148q-45 0 -45 -49v-285q0 -49 45 -49h148v383z" />
    <glyph glyph-name="Dmacron" horiz-adv-x="553" 
d="M149 635v-570h210q45 0 45 49v472q0 49 -45 49h-210zM77 0v700h300q50 0 75 -27.5t25 -74.5v-496q0 -47 -25 -74.5t-75 -27.5h-300zM371 758h-213v46h213v-46z" />
    <glyph glyph-name="atsmall" horiz-adv-x="724" 
d="M642 68q0 -46 -26 -73.5t-74 -27.5h-361q-99 0 -99 102v351q0 46 25 73.5t76 27.5h210q47 0 73 -26.5t26 -77.5v-295h-176q-40 0 -62 23t-22 62v75q0 39 22 62.5t62 23.5h113v45q0 49 -45 49h-194q-46 0 -46 -49v-335q0 -49 46 -49h346q45 0 45 49v302h61v-312zM337 319
q-45 0 -45 -49v-43q0 -50 45 -50h92v142h-92z" />
    <glyph glyph-name="Abrevesmall" horiz-adv-x="462" 
d="M163 297h161v96q0 49 -44 49h-164q-26 0 -39 -8v66h216q50 0 75 -27t25 -74v-399h-230q-50 0 -75 27.5t-25 74.5v94q0 47 25 74t75 27zM177 246q-46 0 -46 -49v-89q0 -50 46 -50h147v188h-147zM346 700v-43q0 -40 -21 -63t-60 -23h-75q-40 0 -60.5 23t-20.5 62v44h47v-34
q0 -23 12 -36t33 -13h53q44 0 44 49v34h48z" />
    <glyph glyph-name="Amacronsmall" horiz-adv-x="462" 
d="M163 297h161v96q0 49 -44 49h-164q-26 0 -39 -8v66h216q50 0 75 -27t25 -74v-399h-230q-50 0 -75 27.5t-25 74.5v94q0 47 25 74t75 27zM177 246q-46 0 -46 -49v-89q0 -50 46 -50h147v188h-147zM333 596h-213v51h213v-51z" />
    <glyph glyph-name="Aogoneksmall" horiz-adv-x="462" 
d="M163 297h161v96q0 49 -44 49h-164q-26 0 -39 -8v66h216q50 0 75 -27t25 -74v-399h-230q-50 0 -75 27.5t-25 74.5v94q0 47 25 74t75 27zM177 246q-46 0 -46 -49v-89q0 -50 46 -50h147v188h-147zM374 0q-127 -55 -127 -98v-15q0 -23 10.5 -33t32.5 -10h77v-44h-99
q-39 0 -57 17.5t-18 53.5v21q0 31 28.5 55t101.5 53h51z" />
    <glyph glyph-name="backslashsmall" horiz-adv-x="425" 
d="M82 500l343 -500h-81l-344 500h82z" />
    <glyph glyph-name="barsmall" horiz-adv-x="215" 
d="M73 -200v900h69v-900h-69z" />
    <glyph glyph-name="bracketleftsmall" horiz-adv-x="345" 
d="M155 -39h94q17 0 29 5v-66h-194v700h194v-66q-14 5 -30 5h-93v-578z" />
    <glyph glyph-name="bracketrightsmall" horiz-adv-x="345" 
d="M95 -39h94v578h-93q-16 0 -30 -5v66h194v-700h-194v66q12 -5 29 -5z" />
    <glyph glyph-name="Ccircumflexsmall" horiz-adv-x="392" 
d="M317 440h-132q-47 0 -47 -51v-280q0 -51 47 -51h132q25 0 39 7v-65h-170q-59 0 -88 25.5t-29 81.5v279q0 114 116 114h171v-67q-14 7 -39 7zM227 655l-72 -94h-52l98 139h54l98 -139h-53z" />
    <glyph glyph-name="Cdotaccentsmall" horiz-adv-x="392" 
d="M317 440h-132q-47 0 -47 -51v-280q0 -51 47 -51h132q25 0 39 7v-65h-170q-59 0 -88 25.5t-29 81.5v279q0 114 116 114h171v-67q-14 7 -39 7zM201 648h68v-76h-68v76z" />
    <glyph glyph-name="centsmall" horiz-adv-x="379" 
d="M240 101v-101h-60v101h-45q-88 0 -88 107v182q0 49 23 79.5t65 30.5h45v98h60v-98h94v-67q-15 7 -39 7h-141q-22 0 -30.5 -12.5t-8.5 -38.5v-178q0 -51 39 -51h141q24 0 39 7v-66h-94z" />
    <glyph glyph-name="Ccaronsmall" horiz-adv-x="392" 
d="M317 440h-132q-47 0 -47 -51v-280q0 -51 47 -51h132q25 0 39 7v-65h-170q-59 0 -88 25.5t-29 81.5v279q0 114 116 114h171v-67q-14 7 -39 7zM233 606l72 94h52l-98 -139h-54l-98 139h53z" />
    <glyph glyph-name="Cacutesmall" horiz-adv-x="392" 
d="M317 440h-132q-47 0 -47 -51v-280q0 -51 47 -51h132q25 0 39 7v-65h-170q-59 0 -88 25.5t-29 81.5v279q0 114 116 114h171v-67q-14 7 -39 7zM272 700h70l-120 -139h-54z" />
    <glyph glyph-name="daggersmall" horiz-adv-x="493" 
d="M280 439v-439h-67v439h-193v61h193v200h67v-200h193v-61h-193z" />
    <glyph glyph-name="degreesmall" horiz-adv-x="331" 
d="M227 262v138q0 48 -44 48h-34q-44 0 -44 -48v-138q0 -48 44 -48h34q44 0 44 48zM281 256q0 -45 -23.5 -70t-69.5 -25h-48q-42 0 -65.5 24.5t-23.5 69.5v153q0 41 22.5 66.5t69.5 25.5h47q45 0 68 -25.5t23 -66.5v-152z" />
    <glyph glyph-name="dollarsmall" horiz-adv-x="410" 
d="M240 41v-94h-60v94h-122v68q12 -7 39 -7h162q25 0 25 26v23q0 22 -20 34l-155 87q-51 29 -51 82v49q0 71 82 71h40v91h60v-91h112v-69q-12 7 -39 7h-154q-19 0 -26 -7t-7 -26v-14q0 -24 20 -35l156 -89q31 -17 40.5 -35t9.5 -57v-26q0 -38 -18.5 -60t-53.5 -22h-40z" />
    <glyph glyph-name="Dcaronsmall" 
d="M138 440v-382h148q45 0 45 49v284q0 49 -45 49h-148zM69 500h230q50 0 75 -27.5t25 -74.5v-297q0 -47 -25 -74t-75 -27h-230v500zM228 606l72 94h52l-98 -139h-54l-98 139h53z" />
    <glyph glyph-name="Dcroatsmall" 
d="M69 500h230q50 0 75 -32.5t25 -78.5v-285q0 -44 -26 -74t-74 -30h-230v247h-55v42h55v211zM226 247h-88v-189h148q45 0 45 49v284q0 49 -45 49h-148v-151h88v-42z" />
    <glyph glyph-name="Dmacronsmall" 
d="M138 440v-382h148q45 0 45 49v284q0 49 -45 49h-148zM69 500h230q50 0 75 -27.5t25 -74.5v-297q0 -47 -25 -74t-75 -27h-230v500zM328 596h-213v51h213v-51z" />
    <glyph glyph-name="Emacronsmall" horiz-adv-x="411" 
d="M331 440h-146q-47 0 -47 -51v-94h232v-54h-232v-132q0 -51 47 -51h146q24 0 39 7v-65h-183q-61 0 -89.5 23.5t-28.5 83.5v280q0 113 116 113h185v-67q-15 7 -39 7zM340 596h-213v51h213v-51z" />
    <glyph glyph-name="Eurosmall" horiz-adv-x="461" 
d="M148 300v-86h178v-30h-178v-82q0 -25 9 -34.5t31 -9.5h181q24 0 39 7v-65h-244q-46 0 -66.5 29t-20.5 69v86h-34v30h34v86h-34v31h34v65q0 56 23 80t92 24h216v-66q-15 7 -39 7h-181q-23 0 -31.5 -10.5t-8.5 -33.5v-66h178v-31h-178z" />
    <glyph glyph-name="Eogoneksmall" horiz-adv-x="411" 
d="M331 440h-146q-47 0 -47 -51v-94h232v-54h-232v-132q0 -51 47 -51h146q24 0 39 7v-65h-183q-61 0 -89.5 23.5t-28.5 83.5v280q0 113 116 113h185v-67q-15 7 -39 7zM354 0q-127 -55 -127 -98v-15q0 -23 10.5 -33t32.5 -10h77v-44h-99q-39 0 -57 17.5t-18 53.5v21
q0 31 28.5 55t101.5 53h51z" />
    <glyph glyph-name="Ecaronsmall" horiz-adv-x="411" 
d="M331 440h-146q-47 0 -47 -51v-94h232v-54h-232v-132q0 -51 47 -51h146q24 0 39 7v-65h-183q-61 0 -89.5 23.5t-28.5 83.5v280q0 113 116 113h185v-67q-15 7 -39 7zM243 606l72 94h52l-98 -139h-54l-98 139h53z" />
    <glyph glyph-name="Edotaccentsmall" horiz-adv-x="411" 
d="M331 440h-146q-47 0 -47 -51v-94h232v-54h-232v-132q0 -51 47 -51h146q24 0 39 7v-65h-183q-61 0 -89.5 23.5t-28.5 83.5v280q0 113 116 113h185v-67q-15 7 -39 7zM206 648h68v-76h-68v76z" />
    <glyph glyph-name="Ebrevesmall" horiz-adv-x="411" 
d="M331 440h-146q-47 0 -47 -51v-94h232v-54h-232v-132q0 -51 47 -51h146q24 0 39 7v-65h-183q-61 0 -89.5 23.5t-28.5 83.5v280q0 113 116 113h185v-67q-15 7 -39 7zM354 700v-43q0 -40 -21 -63t-60 -23h-75q-40 0 -60.5 23t-20.5 62v44h47v-34q0 -23 12 -36t33 -13h53
q44 0 44 49v34h48z" />
    <glyph glyph-name="gacute" 
d="M331 58v383h-148q-45 0 -45 -50v-283q0 -50 45 -50h148zM331 -93v93h-162q-50 0 -75 27.5t-25 74.5v296q0 47 25 74.5t75 27.5h231v-598q0 -47 -25 -74.5t-75 -27.5h-214v66q15 -8 39 -8h159q47 0 47 49zM288 700h70l-120 -139h-54z" />
    <glyph glyph-name="Gacutesmall" 
d="M331 249v191h-148q-21 0 -33 -12t-12 -34v-100q0 -21 12 -33t33 -12h148zM331 107v83h-151q-111 0 -111 104v98q0 50 25 79t75 29h230v-394q0 -106 -106 -106h-207v65q12 -7 39 -7h158q48 0 48 49zM289 700h70l-120 -139h-54z" />
    <glyph glyph-name="Gbrevesmall" 
d="M331 249v191h-148q-21 0 -33 -12t-12 -34v-100q0 -21 12 -33t33 -12h148zM331 107v83h-151q-111 0 -111 104v98q0 50 25 79t75 29h230v-394q0 -106 -106 -106h-207v65q12 -7 39 -7h158q48 0 48 49zM357 700v-43q0 -40 -21 -63t-60 -23h-75q-40 0 -60.5 23t-20.5 62v44h47
v-34q0 -23 12 -36t33 -13h53q44 0 44 49v34h48z" />
    <glyph glyph-name="Gcircumflexsmall" 
d="M331 249v191h-148q-21 0 -33 -12t-12 -34v-100q0 -21 12 -33t33 -12h148zM331 107v83h-151q-111 0 -111 104v98q0 50 25 79t75 29h230v-394q0 -106 -106 -106h-207v65q12 -7 39 -7h158q48 0 48 49zM244 655l-72 -94h-52l98 139h54l98 -139h-53z" />
    <glyph glyph-name="Gcommaaccentsmall" 
d="M331 249v191h-148q-21 0 -33 -12t-12 -34v-100q0 -21 12 -33t33 -12h148zM331 107v83h-151q-111 0 -111 104v98q0 50 25 79t75 29h230v-394q0 -106 -106 -106h-207v65q12 -7 39 -7h158q48 0 48 49zM222 -45h64v-67l-45 -106h-57l38 111v62z" />
    <glyph glyph-name="Gdotaccentsmall" 
d="M331 249v191h-148q-21 0 -33 -12t-12 -34v-100q0 -21 12 -33t33 -12h148zM331 107v83h-151q-111 0 -111 104v98q0 50 25 79t75 29h230v-394q0 -106 -106 -106h-207v65q12 -7 39 -7h158q48 0 48 49zM209 648h68v-76h-68v76z" />
    <glyph glyph-name="Germandblssmall" horiz-adv-x="814" 
d="M153 500h188v-67q-13 8 -39 8h-139q-20 0 -32 -12.5t-12 -34.5v-13q0 -30 36 -55l132 -82q37 -23 52 -46t15 -64v-32q0 -49 -25.5 -75.5t-74.5 -26.5h-201v66q13 -7 39 -7h152q20 0 32 12.5t12 34.5v21q0 39 -32 60l-128 81q-42 26 -58.5 49.5t-16.5 62.5v18
q0 48 25.5 75t74.5 27zM559 500h188v-67q-13 8 -39 8h-139q-20 0 -32 -12.5t-12 -34.5v-13q0 -30 36 -55l132 -82q37 -23 52 -46t15 -64v-32q0 -49 -25.5 -75.5t-74.5 -26.5h-201v66q13 -7 39 -7h152q20 0 32 12.5t12 34.5v21q0 39 -32 60l-128 81q-42 26 -58.5 49.5
t-16.5 62.5v18q0 48 25.5 75t74.5 27z" />
    <glyph glyph-name="Hbarsmall" 
d="M450 386h-51v-386h-68v246h-193v-246h-69v386h-52v39h52v75h69v-75h193v75h68v-75h51v-39zM138 303h193v83h-193v-83z" />
    <glyph glyph-name="Hcircumflexsmall" 
d="M331 500h68v-500h-68v246h-193v-246h-69v500h69v-197h193v197zM234 655l-72 -94h-52l98 139h54l98 -139h-53z" />
    <glyph glyph-name="IJsmall" horiz-adv-x="572" 
d="M69 500h69v-500h-69v500zM433 107v393h69v-394q0 -52 -23.5 -79t-90.5 -27h-173v65q14 -7 38 -7h133q47 0 47 49z" />
    <glyph glyph-name="Imacronsmall" horiz-adv-x="207" 
d="M69 500h69v-500h-69v500zM210 596h-213v51h213v-51z" />
    <glyph glyph-name="Iogoneksmall" horiz-adv-x="207" 
d="M69 500h69v-500h-69v500zM140 0q-127 -55 -127 -98v-15q0 -23 10.5 -33t32.5 -10h77v-44h-99q-39 0 -57 17.5t-18 53.5v21q0 31 28.5 55t101.5 53h51z" />
    <glyph glyph-name="Itildesmall" horiz-adv-x="207" 
d="M69 500h69v-500h-69v500zM-12 562h-37v27q0 112 79 112q32 0 76.5 -44t65.5 -44t30 17t9 68h37v-25q0 -62 -19 -88t-57 -26q-25 0 -51.5 22t-49.5 44t-41 22q-22 0 -32 -18t-10 -67z" />
    <glyph glyph-name="Jcircumflexsmall" horiz-adv-x="364" 
d="M226 107v393h69v-394q0 -52 -23.5 -79t-90.5 -27h-173v65q14 -7 38 -7h133q47 0 47 49zM257 655l-72 -94h-52l98 139h54l98 -139h-53z" />
    <glyph glyph-name="Kcommaaccentsmall" horiz-adv-x="446" 
d="M213 303q28 0 43 35l73 162h73l-82 -179q-17 -35 -41 -44q26 -12 40 -46l96 -231h-79l-80 209q-13 37 -42 37h-76v-246h-69v500h69v-197h75zM197 -45h64v-67l-45 -106h-57l38 111v62z" />
    <glyph glyph-name="Lacutesmall" horiz-adv-x="355" 
d="M347 65v-65h-278v500h69v-442h170q24 0 39 7zM180 700h70l-120 -139h-54z" />
    <glyph glyph-name="Lcaronsmall" horiz-adv-x="355" 
d="M347 65v-65h-278v500h69v-442h170q24 0 39 7zM204 378l6 161h56l-18 -161h-44z" />
    <glyph glyph-name="Lcommaaccentsmall" horiz-adv-x="355" 
d="M347 65v-65h-278v500h69v-442h170q24 0 39 7zM176 -45h64v-67l-45 -106h-57l38 111v62z" />
    <glyph glyph-name="Ldotsmall" horiz-adv-x="355" 
d="M347 65v-65h-278v500h69v-442h170q24 0 39 7zM216 334h60v-70h-60v70z" />
    <glyph glyph-name="Nacutesmall" 
d="M399 397v-397h-68v391q0 49 -45 49h-148v-440h-69v500h230q50 0 75 -27.5t25 -75.5zM264 700h70l-120 -139h-54z" />
    <glyph glyph-name="Ncaronsmall" 
d="M399 397v-397h-68v391q0 49 -45 49h-148v-440h-69v500h230q50 0 75 -27.5t25 -75.5zM228 606l72 94h52l-98 -139h-54l-98 139h53z" />
    <glyph glyph-name="Ncommaaccentsmall" 
d="M399 397v-397h-68v391q0 49 -45 49h-148v-440h-69v500h230q50 0 75 -27.5t25 -75.5zM202 -45h64v-67l-45 -106h-57l38 111v62z" />
    <glyph glyph-name="numbersignsmall" horiz-adv-x="488" 
d="M289 134h-143l-30 -134h-59l31 134h-61v45h71l35 147h-64v45h74l30 129h58l-30 -129h143l30 129h58l-30 -129h59v-45h-69l-34 -147h62v-45h-73l-31 -134h-57zM157 179h142l36 147h-144z" />
    <glyph glyph-name="Obrevesmall" 
d="M331 107v285q0 49 -45 49h-103q-45 0 -45 -49v-285q0 -49 45 -49h103q45 0 45 49zM69 102v296q0 47 25 74.5t75 27.5h131q50 0 75 -27.5t25 -74.5v-296q0 -47 -25 -74.5t-75 -27.5h-131q-50 0 -75 27.5t-25 74.5zM355 700v-43q0 -40 -21 -63t-60 -23h-75q-40 0 -60.5 23
t-20.5 62v44h47v-34q0 -23 12 -36t33 -13h53q44 0 44 49v34h48z" />
    <glyph glyph-name="Ohungarumlautsmall" 
d="M331 107v285q0 49 -45 49h-103q-45 0 -45 -49v-285q0 -49 45 -49h103q45 0 45 49zM69 102v296q0 47 25 74.5t75 27.5h131q50 0 75 -27.5t25 -74.5v-296q0 -47 -25 -74.5t-75 -27.5h-131q-50 0 -75 27.5t-25 74.5zM205 700h58l-104 -139h-45zM335 700h58l-104 -139h-46z
" />
    <glyph glyph-name="Omacronsmall" 
d="M331 107v285q0 49 -45 49h-103q-45 0 -45 -49v-285q0 -49 45 -49h103q45 0 45 49zM69 102v296q0 47 25 74.5t75 27.5h131q50 0 75 -27.5t25 -74.5v-296q0 -47 -25 -74.5t-75 -27.5h-131q-50 0 -75 27.5t-25 74.5zM341 596h-213v51h213v-51z" />
    <glyph glyph-name="parenleftsmall" horiz-adv-x="308" 
d="M250 537q-68 0 -85 -22t-17 -85v-360q0 -63 17.5 -85.5t84.5 -22.5v-62q-100 0 -136.5 38t-36.5 133v352q0 101 36 139t137 38v-63z" />
    <glyph glyph-name="parenrightsmall" horiz-adv-x="308" 
d="M58 537v63q101 0 137 -38t36 -139v-352q0 -95 -36.5 -133t-136.5 -38v62q67 0 84 22t17 86v360q0 63 -17 85t-84 22z" />
    <glyph glyph-name="Racutesmall" horiz-adv-x="352" 
d="M307 437h-112q-57 0 -57 -70v-367h-69v500h60v-53q11 53 71 53h144v-71q-15 8 -37 8zM244 700h70l-120 -139h-54z" />
    <glyph glyph-name="Rcaronsmall" horiz-adv-x="352" 
d="M307 437h-112q-57 0 -57 -70v-367h-69v500h60v-53q11 53 71 53h144v-71q-15 8 -37 8zM209 606l72 94h52l-98 -139h-54l-98 139h53z" />
    <glyph glyph-name="Rcommaaccentsmall" horiz-adv-x="352" 
d="M307 437h-112q-57 0 -57 -70v-367h-69v500h60v-53q11 53 71 53h144v-71q-15 8 -37 8zM74 -45h64v-67l-45 -106h-57l38 111v62z" />
    <glyph glyph-name="slashsmall" horiz-adv-x="435" 
d="M353 500h82l-349 -500h-83z" />
    <glyph glyph-name="sectionsmall" horiz-adv-x="434" 
d="M155 609h206v-56q-14 7 -39 7h-160q-20 0 -32 -13t-12 -34v-16q0 -30 37 -57l170 -122q30 -22 43 -43.5t13 -58.5v-205q0 -55 -21.5 -84.5t-77.5 -29.5h-218v56q13 -6 39 -6h169q43 0 43 46v30q0 23 -9.5 38t-38.5 35l-151 108q-34 24 -48.5 47.5t-14.5 58.5v180
q0 59 22.5 89t79.5 30zM315 116v99q0 47 -34 71l-112 76q-40 28 -51 55v-112q0 -31 22 -48l122 -89q42 -31 53 -52z" />
    <glyph glyph-name="sterlingsmall" horiz-adv-x="426" 
d="M77 241h-39v53h39v97q0 50 19 79.5t76 29.5h182v-68q-15 7 -39 7h-122q-22 0 -35 -13.5t-13 -37.5v-94h147v-53h-147v-183h201q25 0 39 7v-65h-308v241z" />
    <glyph glyph-name="Sacutesmall" horiz-adv-x="407" 
d="M153 500h188v-67q-13 8 -39 8h-139q-20 0 -32 -12.5t-12 -34.5v-13q0 -30 36 -55l132 -82q37 -23 52 -46t15 -64v-32q0 -49 -25.5 -75.5t-74.5 -26.5h-201v66q13 -7 39 -7h152q20 0 32 12.5t12 34.5v21q0 39 -32 60l-128 81q-42 26 -58.5 49.5t-16.5 62.5v18
q0 48 25.5 75t74.5 27zM238 700h70l-120 -139h-54z" />
    <glyph glyph-name="Scedillasmall" horiz-adv-x="407" 
d="M153 500h188v-67q-13 8 -39 8h-139q-20 0 -32 -12.5t-12 -34.5v-13q0 -30 36 -55l132 -82q37 -23 52 -46t15 -64v-32q0 -49 -25.5 -75.5t-74.5 -26.5h-201v66q13 -7 39 -7h152q20 0 32 12.5t12 34.5v21q0 39 -32 60l-128 81q-42 26 -58.5 49.5t-16.5 62.5v18
q0 48 25.5 75t74.5 27zM206 -39h23q39 0 57 -17.5t18 -53.5v-15q0 -75 -75 -75h-122l13 38h87q23 0 33 9.5t10 32.5v8q0 23 -10 32.5t-32 9.5h-56l26 77h44z" />
    <glyph glyph-name="Scircumflexsmall" horiz-adv-x="407" 
d="M153 500h188v-67q-13 8 -39 8h-139q-20 0 -32 -12.5t-12 -34.5v-13q0 -30 36 -55l132 -82q37 -23 52 -46t15 -64v-32q0 -49 -25.5 -75.5t-74.5 -26.5h-201v66q13 -7 39 -7h152q20 0 32 12.5t12 34.5v21q0 39 -32 60l-128 81q-42 26 -58.5 49.5t-16.5 62.5v18
q0 48 25.5 75t74.5 27zM207 655l-72 -94h-52l98 139h54l98 -139h-53z" />
    <glyph glyph-name="Scommaaccentsmall" horiz-adv-x="407" 
d="M153 500h188v-67q-13 8 -39 8h-139q-20 0 -32 -12.5t-12 -34.5v-13q0 -30 36 -55l132 -82q37 -23 52 -46t15 -64v-32q0 -49 -25.5 -75.5t-74.5 -26.5h-201v66q13 -7 39 -7h152q20 0 32 12.5t12 34.5v21q0 39 -32 60l-128 81q-42 26 -58.5 49.5t-16.5 62.5v18
q0 48 25.5 75t74.5 27zM169 -45h64v-67l-45 -106h-57l38 111v62z" />
    <glyph glyph-name="summationsmall" horiz-adv-x="481" 
d="M284 252l-149 -199h263q20 0 32 5v-58h-384v25l167 227l-167 225v23h381v-60q-10 4 -32 4h-258z" />
    <glyph glyph-name="Tbarsmall" horiz-adv-x="410" 
d="M192 111q0 -51 47 -51h99q27 0 39 7v-67h-154q-50 0 -75 27.5t-25 74.5v147h-81v44h81v148h-109v59h363v-59h-185v-148h131v-44h-131v-138z" />
    <glyph glyph-name="Tcommaaccentsmall" horiz-adv-x="410" 
d="M192 111q0 -51 47 -51h99q27 0 39 7v-67h-154q-50 0 -75 27.5t-25 74.5v339h-109v59h363v-59h-185v-330zM189 -45h64v-67l-45 -106h-57l38 111v62z" />
    <glyph glyph-name="Tcaronsmall" horiz-adv-x="410" 
d="M192 111q0 -51 47 -51h99q27 0 39 7v-67h-154q-50 0 -75 27.5t-25 74.5v339h-109v59h363v-59h-185v-330zM197 606l72 94h52l-98 -139h-54l-98 139h53z" />
    <glyph glyph-name="Utildesmall" 
d="M69 101v399h69v-393q0 -49 44 -49h149v442h68v-500h-231q-49 0 -74 27t-25 74zM123 562h-37v27q0 112 79 112q32 0 76.5 -44t65.5 -44t30 17t9 68h37v-25q0 -62 -19 -88t-57 -26q-25 0 -51.5 22t-49.5 44t-41 22q-22 0 -32 -18t-10 -67z" />
    <glyph glyph-name="Uringsmall" 
d="M69 101v399h69v-393q0 -49 44 -49h149v442h68v-500h-231q-49 0 -74 27t-25 74zM294 643q0 22 -9.5 30.5t-31.5 8.5h-45q-22 0 -31.5 -8.5t-9.5 -30.5v-15q0 -21 9.5 -29.5t31.5 -8.5h45q22 0 31.5 8.5t9.5 29.5v15zM341 623q0 -69 -77 -69h-66q-77 0 -77 68v29
q0 68 77 68h66q77 0 77 -68v-28z" />
    <glyph glyph-name="Uogoneksmall" 
d="M69 101v399h69v-393q0 -49 44 -49h149v442h68v-500h-231q-49 0 -74 27t-25 74zM378 0q-127 -55 -127 -98v-15q0 -23 10.5 -33t32.5 -10h77v-44h-99q-39 0 -57 17.5t-18 53.5v21q0 31 28.5 55t101.5 53h51z" />
    <glyph glyph-name="Umacronsmall" 
d="M69 101v399h69v-393q0 -49 44 -49h149v442h68v-500h-231q-49 0 -74 27t-25 74zM338 596h-213v51h213v-51z" />
    <glyph glyph-name="Ubrevesmall" 
d="M69 101v399h69v-393q0 -49 44 -49h149v442h68v-500h-231q-49 0 -74 27t-25 74zM353 700v-43q0 -40 -21 -63t-60 -23h-75q-40 0 -60.5 23t-20.5 62v44h47v-34q0 -23 12 -36t33 -13h53q44 0 44 49v34h48z" />
    <glyph glyph-name="Uhungarumlautsmall" 
d="M69 101v399h69v-393q0 -49 44 -49h149v442h68v-500h-231q-49 0 -74 27t-25 74zM214 700h58l-104 -139h-45zM344 700h58l-104 -139h-46z" />
    <glyph glyph-name="Wcircumflexsmall" horiz-adv-x="639" 
d="M284 500h75l84 -427l102 427h74l-137 -500h-81l-81 405l-84 -405h-82l-134 500h77l101 -427zM321 655l-72 -94h-52l98 139h54l98 -139h-53z" />
    <glyph glyph-name="yensmall" horiz-adv-x="469" 
d="M203 108h-76v53h76v47l-183 292h75l142 -233l140 233h72l-179 -292v-47h73v-53h-73v-108h-67v108z" />
    <glyph glyph-name="Ycircumflexsmall" 
d="M331 249v251h69v-398q0 -47 -25 -74.5t-75 -27.5h-214v66q15 -8 39 -8h159q47 0 47 49v84h-162q-50 0 -75 27t-25 75v207h69v-202q0 -49 45 -49h148zM233 655l-72 -94h-52l98 139h54l98 -139h-53z" />
    <glyph glyph-name="Zacutesmall" horiz-adv-x="409" 
d="M37 0v33l246 408h-206q-19 0 -32 -5v64h328v-28l-248 -413h208q19 0 32 5v-64h-328zM244 700h70l-120 -139h-54z" />
    <glyph glyph-name="Zdotaccentsmall" horiz-adv-x="409" 
d="M37 0v33l246 408h-206q-19 0 -32 -5v64h328v-28l-248 -413h208q19 0 32 5v-64h-328zM173 648h68v-76h-68v76z" />
    <glyph glyph-name="Qsmall.001" 
d="M69 101v299q0 44 26 72t74 28h130q51 0 75.5 -27.5t24.5 -71.5v-299q0 -53 -22.5 -77.5t-70.5 -24.5h-38l98 -153h-65l-94 153h-20q-118 0 -118 101zM331 107v284q0 49 -45 49h-103q-45 0 -45 -49v-284q0 -49 44 -49h103q46 0 46 49z" />
    <glyph glyph-name="zerosmall" horiz-adv-x="471" 
d="M328 109v281q0 49 -45 49h-94q-46 0 -46 -49v-281q0 -49 45 -49h94q46 0 46 49zM73 102v296q0 47 25 74.5t75 27.5h125q50 0 74.5 -27.5t24.5 -74.5v-296q0 -47 -24.5 -74.5t-74.5 -27.5h-125q-50 0 -75 27.5t-25 74.5z" />
    <glyph glyph-name="onesmall" horiz-adv-x="471" 
d="M116 59h111v364l-122 -45v67l193 67v-453h103v-59h-285v59z" />
    <glyph glyph-name="twosmall" horiz-adv-x="471" 
d="M79 0v103q0 32 16.5 61t45.5 47l167 101q23 14 23 49v30q0 48 -45 48h-156q-24 0 -39 -7v68h195q63 0 89.5 -27t26.5 -78v-43q0 -58 -48 -87l-185 -112q-23 -14 -23 -50v-44h208q24 0 39 8v-67h-314z" />
    <glyph glyph-name="threesmall" horiz-adv-x="471" 
d="M151 239q-15 0 -30 -3v64q15 -3 30 -3h128q48 0 48 55v40q0 22 -12 34.5t-33 12.5h-181q-16 0 -30 -5v66h220q62 0 84 -27.5t22 -81.5v-39q0 -35 -23 -57t-69 -23q92 -5 92 -90v-80q0 -102 -98 -102h-228v64q13 -5 29 -5h181q46 0 46 49v73q0 27 -13 42.5t-35 15.5h-128z
" />
    <glyph glyph-name="foursmall" horiz-adv-x="471" 
d="M340 118v-118h-66v118h-239v51l230 338h75v-329h76q14 0 29 3v-66q-15 3 -29 3h-76zM274 178v251l-172 -251h172z" />
    <glyph glyph-name="fivesmall" horiz-adv-x="471" 
d="M283 60q45 0 45 49v83q0 50 -45 50h-207v258h306v-66q-14 5 -30 5h-206v-140h151q100 0 100 -97v-101q0 -46 -24.5 -73.5t-73.5 -27.5h-223v67q14 -7 38 -7h169z" />
    <glyph glyph-name="sixsmall" horiz-adv-x="471" 
d="M143 298h145q55 0 82 -26.5t27 -70.5v-103q0 -98 -100 -98h-124q-51 0 -75.5 29.5t-24.5 67.5v303q0 38 24.5 69t75.5 31h211v-67q-15 7 -38 7h-156q-47 0 -47 -49v-93zM143 241v-135q0 -22 12 -34.5t33 -12.5h98q19 0 30 12.5t11 34.5v90q0 21 -12 33t-33 12h-139z" />
    <glyph glyph-name="sevensmall" horiz-adv-x="471" 
d="M409 445l-192 -445h-76l196 438h-229q-29 0 -43 -5v67h344v-55z" />
    <glyph glyph-name="eightsmall" horiz-adv-x="471" 
d="M171 0q-53 0 -75.5 26.5t-22.5 66.5v81q0 91 92 96q-48 1 -70 21t-22 60v45q0 50 21 77t77 27h128q55 0 76.5 -27t21.5 -74v-47q0 -41 -22 -61t-70 -21q92 -5 92 -95v-83q0 -92 -98 -92h-128zM188 440q-45 0 -45 -44v-45q0 -56 47 -56h90q47 0 47 56v45q0 44 -45 44h-94z
M188 59h94q45 0 45 42v82q0 27 -12.5 42.5t-34.5 15.5h-90q-47 0 -47 -58v-82q0 -42 45 -42z" />
    <glyph glyph-name="ninesmall" horiz-adv-x="471" 
d="M324 237h-148q-106 0 -106 93v70q0 41 27.5 70.5t71.5 29.5h125q49 0 74.5 -30.5t25.5 -70.5v-297q0 -38 -26.5 -70t-73.5 -32h-211v66q15 -7 37 -7h157q47 0 47 49v129zM324 294v96q0 50 -46 50h-94q-44 0 -44 -47v-49q0 -50 45 -50h139z" />
    <glyph glyph-name="braceleftsmall" horiz-adv-x="324" 
d="M168 426v-89q0 -24 -13.5 -43.5t-33.5 -26.5q20 -8 33.5 -27.5t13.5 -43.5v-122q0 -65 22 -89t93 -24v-61q-60 0 -96.5 10t-56.5 35.5t-26.5 60t-6.5 92.5v83q0 28 -16.5 44.5t-40.5 16.5v48q25 0 41 16t16 45v51q0 59 6.5 93.5t26.5 60t56.5 35t96.5 9.5v-62
q-41 0 -64 -5.5t-34.5 -21.5t-14 -33t-2.5 -52z" />
    <glyph glyph-name="bracerightsmall" horiz-adv-x="324" 
d="M155 337v89q0 66 -20 89t-95 23v62q115 0 150.5 -41.5t35.5 -156.5v-51q0 -28 16 -44.5t41 -16.5v-48q-25 0 -41 -16t-16 -45v-83q0 -58 -6.5 -92.5t-26.5 -60t-56.5 -35.5t-96.5 -10v61q76 0 95.5 23t19.5 90v122q0 24 13.5 43.5t33.5 27.5q-20 7 -33.5 26.5t-13.5 43.5
z" />
    <glyph glyph-name="percentsmall" horiz-adv-x="583" 
d="M433 500h67l-352 -500h-66zM213 357v48q0 48 -45 48h-24q-45 0 -45 -48v-48q0 -48 45 -48h26q43 0 43 48zM50 351v61q0 39 22 63.5t66 24.5h37q43 0 65 -24.5t22 -63.5v-60q0 -43 -22.5 -66.5t-66.5 -23.5h-38q-40 0 -62.5 23.5t-22.5 65.5zM483 95v48q0 48 -45 48h-26
q-44 0 -44 -48v-48q0 -48 44 -48h28q43 0 43 48zM319 89v60q0 39 22 64t67 25h37q43 0 65 -24.5t22 -64.5v-60q0 -42 -22.5 -65.5t-66.5 -23.5h-38q-41 0 -63.5 23t-22.5 66z" />
    <glyph glyph-name="lright" horiz-adv-x="1211" 
d="M192 -65q55 36 141 57.5t174 21.5q169 0 255 -76l-1 -6q-126 37 -285 37q-169 0 -288 -40zM281 40q50 30 129 48t159 18q153 0 223 -64l-1 -5q-105 32 -251 32q-150 0 -264 -34zM360 128q47 30 119 48t145 18q138 0 206 -61l-1 -5q-103 28 -230 28q-143 0 -242 -34z
M448 217q41 24 105 39t130 15q128 0 188 -54l-1 -4q-84 26 -209 26t-217 -27zM529 292q81 52 208 52q108 0 170 -48l-1 -3q-86 21 -187 21q-113 0 -193 -27zM603 364q74 44 187 44q101 0 156 -42l-1 -4q-73 20 -172 20q-102 0 -172 -22zM684 430q64 37 166 37q89 0 140 -37
l-1 -3q-65 18 -157 18q-94 0 -151 -19zM758 487q61 32 152 32q80 0 121 -31l-1 -2q-59 14 -135 14q-82 0 -139 -16zM824 534q56 33 138 33q71 0 107 -32l-1 -2q-53 14 -121 14q-73 0 -124 -16zM897 584q50 26 127 26q64 0 90 -25v-3q-36 12 -104 12q-69 0 -115 -13zM978 630
q42 21 106 21q54 0 74 -20l-1 -2q-35 11 -84 11q-58 0 -97 -13zM1050 671q39 15 90 15q43 0 73 -15q-33 5 -76 5q-54 0 -88 -7zM60 -200h-58q223 308 528 566.5t559 333.5h8q-143 -57 -297.5 -163.5t-290 -233.5t-249 -254.5t-200.5 -248.5z" />
    <glyph glyph-name="lleft" horiz-adv-x="1211" 
d="M1022 -65l4 -6q-119 40 -288 40q-159 0 -285 -37l-1 6q86 76 255 76q88 0 174 -21.5t141 -57.5zM933 40l5 -5q-114 34 -264 34q-146 0 -251 -32l-1 5q70 64 223 64q80 0 159 -18t129 -48zM854 128l3 -6q-99 34 -242 34q-127 0 -230 -28l-1 5q68 61 206 61q73 0 145 -18
t119 -48zM766 217l4 -5q-91 27 -217 27q-125 0 -209 -26l-1 4q60 54 188 54q66 0 130 -15t105 -39zM685 292l3 -5q-79 27 -193 27q-101 0 -187 -21l-1 3q62 48 170 48q127 0 208 -52zM611 364l2 -4q-70 22 -172 22q-99 0 -172 -20l-1 4q55 42 156 42q113 0 187 -44zM530 430
l3 -4q-57 19 -151 19q-92 0 -157 -18l-1 3q51 37 140 37q102 0 166 -37zM456 487l2 -3q-57 16 -139 16q-76 0 -135 -14l-1 2q41 31 121 31q91 0 152 -32zM390 534l1 -3q-51 16 -124 16q-68 0 -121 -14l-1 2q36 32 107 32q82 0 138 -33zM317 584l2 -3q-46 13 -115 13
q-68 0 -104 -12v3q26 25 90 25q77 0 127 -26zM236 630l2 -3q-39 13 -97 13q-49 0 -84 -11l-1 2q20 20 74 20q64 0 106 -21zM164 671l1 -2q-34 7 -88 7q-43 0 -76 -5q30 15 73 15q51 0 90 -15zM1212 -200h-58q-87 121 -200.5 248.5t-249 254.5t-290 233.5t-297.5 163.5h8
q254 -75 559 -333.5t528 -566.5z" />
    </font>
</defs>
</svg>
